<?xml version="1.0" encoding="utf-8"?>
<!-- Generator: Adobe Illustrator 19.1.0, SVG Export Plug-In . SVG Version: 6.00 Build 0)  -->
<svg version="1.1" id="Layer_1" xmlns:sketch="http://www.bohemiancoding.com/sketch/ns"
	 xmlns="http://www.w3.org/2000/svg" xmlns:xlink="http://www.w3.org/1999/xlink" x="0px" y="0px" viewBox="-575 33 48 48"
	 style="enable-background:new -575 33 48 48;" xml:space="preserve">
<style type="text/css">
	.st0{fill:#169CEE;}
</style>
<title>forks</title>
<desc>Created with Sketch.</desc>
<g id="Page-1" sketch:type="MSPage">
	<g id="forks" sketch:type="MSArtboardGroup">
		<path id="Shape" sketch:type="MSShapeGroup" class="st0" d="M-535.3,46.6c0-3.5-2.8-6.3-6.3-6.3c-3.5,0-6.3,2.8-6.3,6.3
			c0,2.3,1.3,4.3,3.1,5.4v0.9c0,1.6-0.7,3.1-2,4.3c-1.2,1.2-2.7,1.9-4.3,2c-2.6,0-4.7,0.5-6.3,1.4V45.7c1.9-1.1,3.1-3.1,3.1-5.4
			c0-3.5-2.8-6.3-6.3-6.3c-3.5,0-6.3,2.8-6.3,6.3c0,2.3,1.3,4.3,3.1,5.4v20.6c-1.9,1.1-3.1,3.1-3.1,5.4c0,3.5,2.8,6.3,6.3,6.3
			c3.5,0,6.3-2.8,6.3-6.3c0-1.7-0.6-3.1-1.7-4.3c0.3-0.2,1.5-1.3,1.9-1.5c0.8-0.3,1.8-0.5,2.9-0.5c3.3-0.1,6.1-1.4,8.6-3.9
			c2.5-2.5,3.8-6.2,3.9-9.5h0C-536.6,50.9-535.3,48.9-535.3,46.6L-535.3,46.6z M-560.4,36.5c2.1,0,3.8,1.7,3.8,3.8s-1.7,3.8-3.8,3.8
			s-3.8-1.7-3.8-3.8S-562.5,36.5-560.4,36.5L-560.4,36.5z M-560.4,75.5c-2.1,0-3.8-1.7-3.8-3.8s1.7-3.8,3.8-3.8s3.8,1.7,3.8,3.8
			S-558.4,75.5-560.4,75.5L-560.4,75.5z M-541.6,50.4c-2.1,0-3.8-1.7-3.8-3.8s1.7-3.8,3.8-3.8s3.8,1.7,3.8,3.8
			S-539.5,50.4-541.6,50.4L-541.6,50.4z"/>
	</g>
</g>
</svg>
