<?xml version="1.0" encoding="utf-8"?>
<!-- Generator: Adobe Illustrator 19.1.0, SVG Export Plug-In . SVG Version: 6.00 Build 0)  -->
<svg version="1.1" id="Layer_1" xmlns="http://www.w3.org/2000/svg" xmlns:xlink="http://www.w3.org/1999/xlink" x="0px" y="0px"
	 viewBox="0 0 1200 112" style="enable-background:new 0 0 1200 112;" xml:space="preserve">
<style type="text/css">
	.st0{fill:#169CEE;}
</style>
<g>
	<g>
		<path class="st0" d="M349.5,48.9h25.3V23.1h13v25.8h25.3v11.9h-25.3v25.9h-13V60.8h-25.3V48.9z"/>
		<path class="st0" d="M499.2,1.3c24.4,0,42.8,16.9,42.8,43c0,26.6-18.5,43.9-42.8,43.9c-24.4,0-43-17.3-43-43.9
			C456.3,18.2,474.9,1.3,499.2,1.3z M499.2,75.7c15.8,0,28.2-11.8,28.2-31.4c0-19-12.2-30.6-28.2-30.6c-16,0-28.2,11.6-28.2,30.6
			C471,63.9,483.4,75.7,499.2,75.7z"/>
		<path class="st0" d="M567.1,110.7h-13.8V23.2h12.5l1.1,7.8c5.2-5.6,11.9-9.2,19.4-9.2c15.1,0,25.3,11.3,25.3,32.2
			c0,22.3-10.1,34.2-25.2,34.2c-8.3,0-14.5-3.7-19.3-8.8V110.7z M582.8,77.1c9.7,0,14.8-8.5,14.8-23c0-13.9-5-21.2-14.8-21.2
			c-6,0-11,2.8-15.7,8v28.6C571.9,74.8,576.6,77.1,582.8,77.1z"/>
		<path class="st0" d="M652,21.7c18.4,0,27.1,12.4,27.1,29c0,1.9-0.2,4.8-0.5,6.4H635c0.7,13,7,19.8,18.2,19.8
			c6.5,0,12.6-2.4,17.9-5.8l6.1,9.2c-7.3,5-15.8,7.9-24.8,7.9c-19.1,0-31.4-12.6-31.4-33.8C621,34.4,634.4,21.7,652,21.7z
			 M635.6,48.1h30.1c0-8.9-3.5-16-13.3-16C643.9,32.1,637.4,38,635.6,48.1z"/>
		<path class="st0" d="M689,23.2H702l0.7,7.6c4.8-5,11.8-9.1,19.9-9.1c14.2,0,20.5,9,20.5,22.8v42.2h-13.9V44.2
			c0-7-2.9-11.6-10-11.6c-6.6,0-12,3.1-16.4,8.6v45.5H689V23.2z"/>
		<path class="st0" d="M800.8,67.8c7.4,4.6,16.1,7.7,25.3,7.7c11,0,16.6-4.8,16.6-11.5c0-19-47.3-6.5-47.3-38.5
			c0-13.4,11.2-24.1,30-24.1c11,0,20.8,2.8,29.2,6.8l-5.4,11.5c-7.1-3.5-15-5.6-23.3-5.6c-9.7,0-15.5,4.9-15.5,11.2
			c0,18.8,47.3,6,47.3,38.6c0,13.8-10.4,24.4-31.6,24.4c-12.4,0-24.2-4-32.3-9L800.8,67.8z"/>
		<path class="st0" d="M897.1,21.8c17.9,0,31.2,12.7,31.2,32.4c0,21-12.6,34-31.2,34c-18.8,0-31.4-13-31.4-34
			C865.7,34.5,879.1,21.8,897.1,21.8z M897.1,77.2c10.6,0,16.9-9.1,16.9-22.9c0-12.8-6.8-21.5-16.9-21.5c-10.2,0-17.3,8.6-17.3,21.5
			C879.8,68.1,886.2,77.2,897.1,77.2z"/>
		<path class="st0" d="M938.6,23.2h13.9v42.4c0,7,2.4,11.6,9.8,11.6c6.7,0,12.1-3.2,16.7-8.5V23.2H993v63.5h-12.8l-0.8-7.7
			c-4.9,5-12,9.1-20.2,9.1c-14.4,0-20.5-9-20.5-22.8V23.2z"/>
		<path class="st0" d="M1007.4,23.2h12.7l1.1,10.4c4.7-8.3,10.8-12.1,18.5-12.1c3.4,0,6.1,0.6,8.4,1.6l-2.5,12.8
			c-2.4-1-4.8-1.6-8-1.6c-7,0-11.8,4.4-16.2,12.7v39.6h-13.9V23.2z"/>
		<path class="st0" d="M1082.4,21.8c8.3,0,15.6,2.6,22,7.6l-7.3,9.4c-3.7-2.9-8.3-5.3-14.3-5.3c-10.1,0-17.5,7.9-17.5,21
			c0,13.9,7.2,22.2,17.5,22.2c6.4,0,10.7-2.3,14.9-5.9l7.9,8.4c-6.8,6.1-13.8,9-23.2,9c-18.2,0-31.3-12.6-31.3-33.7
			C1051.1,34.3,1064.3,21.8,1082.4,21.8z"/>
		<path class="st0" d="M1142.5,21.7c18.4,0,27.1,12.4,27.1,29c0,1.9-0.2,4.8-0.5,6.4h-43.7c0.7,13,7,19.8,18.2,19.8
			c6.5,0,12.6-2.4,17.9-5.8l6.1,9.2c-7.3,5-15.8,7.9-24.8,7.9c-19.1,0-31.4-12.6-31.4-33.8C1111.4,34.4,1124.8,21.7,1142.5,21.7z
			 M1126,48.1h30.1c0-8.9-3.5-16-13.3-16C1134.3,32.1,1127.8,38,1126,48.1z"/>
	</g>
	<path class="st0" d="M302.3,84.2V72.3c-6.1,3.2-12.4,4.6-18,4.6c-11.9,0-20.2-5.9-20.6-19.9h41.1c0.7-3.6,0.8-7,0.8-10
		c0-15.1-8.5-26-23.8-26.2c-18.9-0.2-30.6,13.8-30.6,34.8V56c0,20,12.9,31.9,31.9,31.9C289.4,88.1,296.9,86.9,302.3,84.2
		 M281.1,31.4c8.5,0,12.9,5.8,12.9,15.1v0.7h-29.4C266.6,37,272.4,31.4,281.1,31.4 M218.8,59.2l1.4,0.5c9.5,3.4,11.7,5.4,11.7,9.7
		c0,4.9-3.2,8.2-11.5,8.2c-6.6,0-13.8-2.2-21.2-5.6v12.4c5.9,2.4,13.8,3.9,21.2,3.9c16,0,23.9-8.2,23.9-19.4c0-9.9-4.9-15.1-18-19.9
		l-1.4-0.5c-10.4-3.7-12.4-5.4-12.4-9.5c0-4.6,3.2-7.6,10.7-7.6c6.1,0,12.1,2,18,4.8V24.4c-5.3-2-11.2-3.4-17.5-3.4
		c-15.3,0-23.6,8.5-23.6,19.5C200.2,49.2,205.3,54.3,218.8,59.2 M169.3,43.1c4.2-6.8,10.2-10,17.5-10c2.5,0,5.1,0.3,7.1,1V22.9
		c-2-0.8-4.6-1.4-7.1-1.4c-7.6,0-13.2,3.4-18.3,10.2l-0.8-9.5h-10.5v64.4h12.1V43.1H169.3z M134.5,86.9H145V43.6
		c0-15.3-7.6-22.6-23.4-22.6c-7.6,0-15.5,2.4-21.6,5.6v12.1c6.8-4.1,14.6-6.8,20.7-6.8c8.7,0,12.2,3.7,12.2,10.9v5.4
		c-17.7,0.5-28.2,3.4-33.6,9c-3.9,3.7-5.6,9-5.6,14.3c0,10.9,7.8,17.2,19,17.2c7.5,0,14.6-3.1,21.1-9.3L134.5,86.9z M115.5,78.2
		c-5.8,0-9.3-2.9-9.3-8.2c0-7.6,6.3-12.1,27-12.7v11.7C128.2,74.7,122.5,78.2,115.5,78.2 M43.1,47.7V13.9H60c11.4,0,18,5.4,18,16.8
		v0.2c0,11.4-6.6,16.8-18.2,16.8H43.1z M30.4,86.9h12.7V59.2h15.8c19.7,0,31.6-10.5,31.6-28.2v-0.2c0-17.7-11.9-28.2-31.6-28.2H30.4
		V86.9z"/>
</g>
</svg>
