<?xml version="1.0" encoding="utf-8"?>
<!-- Generator: Adobe Illustrator 19.1.0, SVG Export Plug-In . SVG Version: 6.00 Build 0)  -->
<svg version="1.1" id="Layer_1" xmlns:sketch="http://www.bohemiancoding.com/sketch/ns"
	 xmlns="http://www.w3.org/2000/svg" xmlns:xlink="http://www.w3.org/1999/xlink" x="0px" y="0px" viewBox="-464 -79 271 271"
	 style="enable-background:new -464 -79 271 271;" xml:space="preserve">
<style type="text/css">
	.st0{fill:#FFFFFF;}
	.st1{fill:#169CEE;}
</style>
<circle class="st0" cx="-328.5" cy="56.5" r="107.4"/>
<title>logo</title>
<desc>Created with Sketch.</desc>
<g id="Page-1" sketch:type="MSPage">
	<g id="logo" transform="translate(-24.000000, -24.000000)" sketch:type="MSArtboardGroup">
		<path sketch:type="MSShapeGroup" class="st1" d="M-304.5-55C-379.3-55-440,5.7-440,80.5S-379.3,216-304.5,216S-169,155.3-169,80.5
			S-229.6-55-304.5-55z M-280.2,115.5h-71.1c-7,0-12.7,5.7-12.7,12.7s5.7,12.7,12.7,12.7s12.7-5.5,12.7-12.5v-1h19.1v0.8
			c0,17.6-14.2,31.9-31.9,31.9c-17.7,0-31.8-14.2-31.8-31.8s14.3-31.9,31.9-31.9h71.1c21.6,0,39.2-17.5,39.2-39.2
			c0-21.6-17.6-39.1-39.2-39.1c-21.6,0-39.2,17.9-39.2,39.5v27.9h-19.3V57.6c0-32.3,26.2-58.7,58.4-58.7c32.3,0,58.4,26.1,58.4,58.4
			S-247.9,115.5-280.2,115.5z"/>
	</g>
</g>
</svg>
