<?xml version="1.0" encoding="UTF-8" standalone="no"?>
<svg width="28px" height="28px" viewBox="0 0 28 28" version="1.1" xmlns="http://www.w3.org/2000/svg" xmlns:xlink="http://www.w3.org/1999/xlink" xmlns:sketch="http://www.bohemiancoding.com/sketch/ns">
    <!-- Generator: Sketch 3.3.3 (12072) - http://www.bohemiancoding.com/sketch -->
    <title>php</title>
    <desc>Created with Sketch.</desc>
    <defs></defs>
    <g id="Page-1" stroke="none" stroke-width="1" fill="none" fill-rule="evenodd" sketch:type="MSPage">
        <g id="php" sketch:type="MSArtboardGroup" fill="#5788CC">
            <path d="M3.26351429,19.9241081 C3.73534286,19.9241081 4.25777143,19.8417297 4.8308,19.6776216 C5.40448571,19.5135135 5.78825714,19.6685405 5.98277143,20.1433514 C6.04717143,20.3074595 6.08857143,20.6272432 6.10697143,21.1014054 C6.12537143,21.5762162 6.09777143,22.0101622 6.02417143,22.4025946 C5.94991429,22.7852973 5.90851429,23.0324324 5.89931429,23.1414054 C4.7618,22.2657297 3.79514286,21.1928649 3,19.9241081 L3.26351429,19.9241081 L3.26351429,19.9241081 Z M9.72191429,4.72497297 C8.13097143,4.72497297 6.78514286,5.27502703 5.68442857,6.37513514 C5.05554286,6.23113514 4.56071429,6.14097297 4.2006,6.10464865 C5.31905714,4.82291892 6.66948571,3.81881081 8.25122857,3.09102703 C9.83297143,2.36389189 11.5152571,2 13.3007143,2 C16.6120571,2 19.4436857,3.14681081 21.7942857,5.43978378 C24.1448857,7.73275676 25.3198571,10.5135135 25.3198571,13.7814054 C25.3198571,17.0402162 24.1442286,19.8287568 21.7929714,22.147027 C19.4417143,24.4659459 16.6100857,25.6205405 13.2987429,25.6114595 C11.4028857,25.6114595 9.58522857,25.1827027 7.84642857,24.3245405 C8.58702857,24.3427027 9.38151429,24.2972973 10.2325143,24.1876757 C11.3700286,23.9684324 11.5967429,23.4345946 10.9126571,22.5855135 C10.2279143,21.728 9.9874,20.8283243 10.1911143,19.8884324 C10.3948286,18.9478919 10.9632571,18.2408649 11.8977143,17.7660541 C12.6922,17.2912432 12.9609714,17.3321081 12.7020571,17.8892973 C12.591,18.1267027 12.3918857,18.4555676 12.1060286,18.8752432 C10.9954571,20.5001081 10.8982,21.8142703 11.8142571,22.8183784 C12.5358,23.6038919 13.4558,23.8361081 14.5749143,23.516973 C15.0467429,23.3891892 15.4765143,23.1654054 15.8648857,22.8456216 C16.2532571,22.5264865 16.3557714,22.1976216 16.1724286,21.8596757 C16.0528286,21.6501622 15.8011429,21.6086486 15.4160571,21.7364324 C15.0316286,21.8642162 14.6636286,22.0017297 14.3140286,22.147027 C13.9624571,22.2754595 13.6384857,22.1794595 13.3427714,21.8596757 C12.9912,21.4127568 13.1114571,20.8970811 13.7035429,20.3126486 C14.2949714,19.7288649 14.9232,19.0348108 15.5875714,18.2311351 C16.2512857,17.4281081 16.7316571,16.7204324 17.0267143,16.1087568 C17.3401714,15.5158919 17.6082857,14.8724324 17.8297429,14.1783784 C18.0512,13.4843243 18.1386,12.7818378 18.0926,12.0696216 C18.0459429,11.3574054 17.8468286,10.7645405 17.4952571,10.2897297 C16.8368,9.40432432 16.2808571,8.91135135 15.8267714,8.81081081 C15.6598571,8.76540541 15.4232857,8.73362162 15.1177143,8.71545946 C14.7937429,7.55178378 14.1326571,6.59632432 13.1338,5.84778378 C12.1257429,5.09924324 10.9882286,4.72497297 9.72191429,4.72497297 L9.72191429,4.72497297 Z M14.4027429,11.9113514 C14.4027429,11.5662703 14.5552,11.3930811 14.8614286,11.3930811 C15.0053429,11.3755676 15.1315143,11.4196757 15.2392857,11.5273514 C15.3470571,11.6356757 15.3963429,11.7731892 15.3878,11.9411892 C15.3878,12.2668108 15.2254857,12.4490811 14.9015143,12.4886486 C14.569,12.4490811 14.4027429,12.2570811 14.4027429,11.9113514 L14.4027429,11.9113514 Z" sketch:type="MSShapeGroup"></path>
        </g>
    </g>
</svg>