<?xml version="1.0" encoding="utf-8"?>
<!-- Generator: Adobe Illustrator 19.1.0, SVG Export Plug-In . SVG Version: 6.00 Build 0)  -->
<svg version="1.1" id="Layer_1" xmlns="http://www.w3.org/2000/svg" xmlns:xlink="http://www.w3.org/1999/xlink" x="0px" y="0px"
	 viewBox="-239 -1064 720 1280" style="enable-background:new -239 -1064 720 1280;" xml:space="preserve">
<style type="text/css">
	.st0{fill:#0E69A1;}
	.st1{fill:#3A3A59;}
	.st2{fill:#169CEE;}
	.st3{fill:none;stroke:#555574;stroke-width:10;stroke-miterlimit:10;}
	.st4{fill:#555574;}
	.st5{fill:#4BBC6E;}
	.st6{fill:#EF3F61;}
</style>
<g id="charts">
	<g>
		<rect x="-97.6" y="-104" class="st0" width="480" height="320"/>
		<path class="st1" d="M-59.9,140h2.3c4.4,0,8-3.6,8-8V-57.7c0-4.4-3.6-8-8-8h-2.3c-4.4,0-8,3.6-8,8V132
			C-67.9,136.4-64.3,140-59.9,140z"/>
		<path class="st1" d="M-23.3,140h2.3c4.4,0,8-3.6,8-8V-37.2c0-4.4-3.6-8-8-8h-2.3c-4.4,0-8,3.6-8,8V132
			C-31.3,136.4-27.7,140-23.3,140z"/>
		<path class="st1" d="M13.3,140h2.3c4.4,0,8-3.6,8-8V-16.6c0-4.4-3.6-8-8-8h-2.3c-4.4,0-8,3.6-8,8V132C5.3,136.4,8.9,140,13.3,140z
			"/>
		<path class="st1" d="M49.8,140h2.3c4.4,0,8-3.6,8-8V65.7c0-4.4-3.6-8-8-8h-2.3c-4.4,0-8,3.6-8,8V132C41.8,136.4,45.4,140,49.8,140
			z"/>
		<path class="st1" d="M86.4,140h2.3c4.4,0,8-3.6,8-8V45.1c0-4.4-3.6-8-8-8h-2.3c-4.4,0-8,3.6-8,8V132C78.4,136.4,82,140,86.4,140z"
			/>
		<path class="st1" d="M123,140h2.3c4.4,0,8-3.6,8-8V4c0-4.4-3.6-8-8-8H123c-4.4,0-8,3.6-8,8v128C115,136.4,118.6,140,123,140z"/>
		<path class="st1" d="M159.6,140h2.3c4.4,0,8-3.6,8-8V24.5c0-4.4-3.6-8-8-8h-2.3c-4.4,0-8,3.6-8,8V132
			C151.6,136.4,155.1,140,159.6,140z"/>
		<path class="st1" d="M352.7,169.2v-2.3c0-4.4-3.6-8-8-8H-59.9c-4.4,0-8,3.6-8,8v2.3c0,4.4,3.6,8,8,8h404.6
			C349.1,177.2,352.7,173.6,352.7,169.2z"/>
		<path class="st1" d="M196.1,140h2.3c4.4,0,8-3.6,8-8V-26.9c0-4.4-3.6-8-8-8h-2.3c-4.4,0-8,3.6-8,8V132
			C188.1,136.4,191.7,140,196.1,140z"/>
		<path class="st1" d="M232.7,140h2.3c4.4,0,8-3.6,8-8V-6.3c0-4.4-3.6-8-8-8h-2.3c-4.4,0-8,3.6-8,8V132
			C224.7,136.4,228.3,140,232.7,140z"/>
		<path class="st1" d="M269.3,140h2.3c4.4,0,8-3.6,8-8V-37.2c0-4.4-3.6-8-8-8h-2.3c-4.4,0-8,3.6-8,8V132
			C261.3,136.4,264.9,140,269.3,140z"/>
		<path class="st1" d="M305.8,140h2.3c4.4,0,8-3.6,8-8V4c0-4.4-3.6-8-8-8h-2.3c-4.4,0-8,3.6-8,8v128
			C297.8,136.4,301.4,140,305.8,140z"/>
		<path class="st1" d="M342.4,140h2.3c4.4,0,8-3.6,8-8V-57.7c0-4.4-3.6-8-8-8h-2.3c-4.4,0-8,3.6-8,8V132
			C334.4,136.4,338,140,342.4,140z"/>
	</g>
	<g>
		<rect x="-239" y="2.7" class="st2" width="284.4" height="213.3"/>
		<g>
			<line class="st3" x1="-210.1" y1="181.5" x2="-145.5" y2="116.9"/>
			<line class="st3" x1="-152.1" y1="116.9" x2="-119.8" y2="149.2"/>
			<line class="st3" x1="-126.4" y1="149.2" x2="-61.8" y2="84.6"/>
			<line class="st3" x1="-50.8" y1="108.9" x2="16.4" y2="41.7"/>
			<line class="st3" x1="-68.4" y1="84.6" x2="-44.2" y2="108.9"/>
			<polygon class="st4" points="26.6,51.9 26.6,31.4 6.1,31.4 			"/>
		</g>
		<line class="st3" x1="-210.1" y1="32.2" x2="-210.1" y2="187.2"/>
		<line class="st3" x1="-210.1" y1="182.3" x2="20.2" y2="182.3"/>
	</g>
	<g>
		<circle class="st4" cx="381" cy="116" r="100"/>
		<path class="st5" d="M281.5,105.8c-2.9,28.9,6.7,58.8,28.8,81L381,116L281.5,105.8z"/>
		<path class="st6" d="M381,116l9.1-99.6c-28.6-2.6-58,7.1-79.9,28.9c-16.9,16.9-26.4,38.4-28.7,60.4l0,0L381,116z"/>
	</g>
</g>
</svg>
