<?xml version="1.0" encoding="utf-8"?>
<!-- Generator: Adobe Illustrator 19.1.0, SVG Export Plug-In . SVG Version: 6.00 Build 0)  -->
<svg version="1.1" id="Layer_1" xmlns="http://www.w3.org/2000/svg" xmlns:xlink="http://www.w3.org/1999/xlink" x="0px" y="0px"
	 viewBox="-49 -584 1100 1280" style="enable-background:new -49 -584 1100 1280;" xml:space="preserve">
<style type="text/css">
	.st0{fill:#DB3B61;}
	.st1{clip-path:url(#SVGID_2_);}
	.st2{fill:none;stroke:#555574;stroke-width:8;stroke-miterlimit:10;}
	.st3{fill:#555574;}
	.st4{fill:#FFFFFF;}
	.st5{fill:#3A3A59;}
	.st6{fill:#555574;stroke:#3A3A59;stroke-width:8;stroke-miterlimit:10;}
</style>
<g id="content">
	<path class="st0" d="M504.3,546.3H324.8c-2.2,0-4,1.8-4,4v8c0,2.2,1.8,4,4,4h179.5c2.2,0,4-1.8,4-4v-8
		C508.3,548.1,506.5,546.3,504.3,546.3z"/>
	<path class="st0" d="M504.3,574.3H324.8c-2.2,0-4,1.8-4,4v8c0,2.2,1.8,4,4,4h179.5c2.2,0,4-1.8,4-4v-8
		C508.3,576.1,506.5,574.3,504.3,574.3z"/>
	<path class="st0" d="M504.3,602.3H324.8c-2.2,0-4,1.8-4,4v8c0,2.2,1.8,4,4,4h179.5c2.2,0,4-1.8,4-4v-8
		C508.3,604.1,506.5,602.3,504.3,602.3z"/>
	<path class="st0" d="M370.8,534.5h-46c-2.2,0-4-1.8-4-4v-46c0-2.2,1.8-4,4-4h46c2.2,0,4,1.8,4,4v46
		C374.8,532.7,373,534.5,370.8,534.5z"/>
	<path class="st0" d="M504.3,534.5h-46c-2.2,0-4-1.8-4-4v-46c0-2.2,1.8-4,4-4h46c2.2,0,4,1.8,4,4v46
		C508.3,532.7,506.5,534.5,504.3,534.5z"/>
	<path class="st0" d="M436.8,534.5h-46c-2.2,0-4-1.8-4-4v-46c0-2.2,1.8-4,4-4h46c2.2,0,4,1.8,4,4v46
		C440.8,532.7,439,534.5,436.8,534.5z"/>
</g>
<g id="load_1_">
	<defs>
		<rect id="SVGID_1_" x="317.5" y="46.1" width="194.4" height="427.4"/>
	</defs>
	<clipPath id="SVGID_2_">
		<use xlink:href="#SVGID_1_"  style="overflow:visible;"/>
	</clipPath>
	<g id="loadInner" class="st1">
		<line class="st2" x1="415" y1="282.1" x2="415" y2="-37.9"/>
		<rect x="320.8" y="282.1" class="st3" width="187.5" height="187.5"/>
		<polygon class="st4" points="383,338.9 447,375.9 383,412.8 				"/>
		<circle class="st5" cx="415" cy="282.1" r="10"/>
	</g>
</g>
<circle id="anchor" class="st6" cx="414.7" cy="36.1" r="10"/>
</svg>
