<?xml version="1.0" encoding="utf-8"?>
<!-- Generator: Adobe Illustrator 19.1.0, SVG Export Plug-In . SVG Version: 6.00 Build 0)  -->
<svg version="1.1" xmlns="http://www.w3.org/2000/svg" xmlns:xlink="http://www.w3.org/1999/xlink" x="0px" y="0px"
	 viewBox="0 0 1100 800" style="enable-background:new 0 0 1100 800;" xml:space="preserve">
<style type="text/css">
	.st0{fill:#E6E6ED;}
	.st1{fill:#0E69A1;}
	.st2{fill:#EF3F61;}
	.st3{fill:#4BBC6E;}
	.st4{fill:#169CEE;}
	.st5{fill:#555574;}
	.st6{fill:#3A3A59;}
	.st7{fill:#F15732;}
	.st8{fill:#E0E0EA;}
	.st9{fill:#768C97;}
	.st10{fill:none;stroke:#169CEE;stroke-width:9;stroke-linecap:round;stroke-miterlimit:10;}
	.st11{fill:none;stroke:#555574;stroke-width:8;stroke-linecap:round;stroke-linejoin:round;stroke-miterlimit:10;}
	.st12{fill:none;stroke:#555574;stroke-width:8;stroke-linecap:round;stroke-miterlimit:10;}
	.st13{opacity:0.3;fill:#FFFFFF;}
	.st14{fill:none;stroke:#0E69A1;stroke-width:8;stroke-linecap:round;stroke-miterlimit:10;}
	.st15{fill:none;stroke:#3A3A59;stroke-width:8;stroke-miterlimit:10;}
	.st16{fill:#424259;}
	.st17{fill:none;stroke:#3B2C48;stroke-width:18;stroke-linecap:round;stroke-miterlimit:10;}
	.st18{fill:none;stroke:#0E69A1;stroke-width:12;stroke-linecap:round;stroke-miterlimit:10;}
	.st19{fill:#159CEE;}
	.st20{fill:none;stroke:#555574;stroke-width:10;stroke-miterlimit:10;}
	.st21{fill:none;stroke:#3A3A59;stroke-width:12;stroke-miterlimit:10;}
	.st22{fill:#FFFFFF;}
	.st23{fill:#40A565;}
	.st24{fill:none;stroke:#3A3A59;stroke-width:8;stroke-linecap:round;stroke-miterlimit:10;}
	.st25{fill:none;stroke:#0E69A1;stroke-width:8;stroke-linejoin:round;stroke-miterlimit:10;}
	.st26{fill:none;stroke:#0E69A1;stroke-width:8;stroke-miterlimit:10;}
	.st27{fill:none;stroke:#3A3A59;stroke-width:12;stroke-linecap:round;stroke-linejoin:round;stroke-miterlimit:10;}
	.st28{fill:#DB3B61;}
	.st29{clip-path:url(#mask_1_);}
	.st30{fill:#555574;stroke:#3A3A59;stroke-width:8;stroke-miterlimit:10;}
	.st31{opacity:0.3;clip-path:url(#SVGID_2_);fill:#FFFFFF;}
	.st32{fill:#B73D29;}
</style>
<g id="city_background_1_">
	<rect x="700" y="2379.1" class="st0" width="228" height="402"/>
	<rect x="635" y="2403.1" class="st0" width="69" height="378"/>
	<rect x="928" y="2334.1" class="st0" width="191" height="447"/>
	<rect x="1119" y="2420.1" class="st0" width="131" height="361"/>
	<rect x="1214" y="2450.1" class="st0" width="174" height="331"/>
	<rect x="1374" y="2395.1" class="st0" width="132" height="386"/>
	<rect x="1506" y="2486.1" class="st0" width="165" height="295"/>
	<rect x="1671" y="2460.1" class="st0" width="105" height="321"/>
	<rect x="1776" y="2435.1" class="st0" width="66" height="346"/>
	<rect x="1842" y="2500.1" class="st0" width="116" height="281"/>
	<rect x="1958" y="2520.1" class="st0" width="116" height="261"/>
	<rect x="2072" y="2435.1" class="st0" width="142" height="346"/>
	<rect x="3130" y="2325.1" class="st0" width="115" height="456"/>
	<rect x="-408" y="2373.1" class="st0" width="206" height="408"/>
	<rect x="-411" y="2364.1" class="st0" width="212" height="10"/>
	<rect x="-306" y="2356.1" class="st0" width="72" height="8"/>
	<rect x="3244" y="2378.1" class="st0" width="182" height="403"/>
	<rect x="2928" y="2275.1" class="st0" width="202" height="506"/>
	<rect x="2822" y="2393.1" class="st0" width="106" height="388"/>
	<rect x="2672" y="2448.1" class="st0" width="150" height="333"/>
	<rect x="2523" y="2372.1" class="st0" width="149" height="409"/>
	<rect x="2439" y="2553.1" class="st0" width="84" height="228"/>
	<rect x="2364" y="2485.1" class="st0" width="83" height="296"/>
	<rect x="2214" y="2448.1" class="st0" width="150" height="333"/>
	<rect x="3562" y="2350.1" class="st0" width="182" height="431"/>
	<rect x="3744" y="2461.1" class="st0" width="221" height="320"/>
	<rect x="3965" y="2405.1" class="st0" width="141" height="376"/>
	<rect x="4106" y="2432.1" class="st0" width="181" height="349"/>
	<rect x="4277" y="2374.1" class="st0" width="226" height="408"/>
	<rect x="4436" y="2449.1" class="st0" width="163" height="333"/>
	<rect x="4589" y="2510.1" class="st0" width="96" height="272"/>
	<rect x="4674" y="2435.1" class="st0" width="109" height="346"/>
	<rect x="4783" y="2405.1" class="st0" width="162" height="376"/>
	<rect x="4938" y="2481.1" class="st0" width="108" height="300"/>
	<rect x="5203" y="2528.1" class="st0" width="99" height="253"/>
	<rect x="5302" y="2559.1" class="st0" width="52" height="222"/>
	<rect x="5353" y="2500.1" class="st0" width="80" height="281"/>
	<rect x="5430" y="2420.1" class="st0" width="138" height="361"/>
	<rect x="5568" y="2444.1" class="st0" width="108" height="337"/>
	<rect x="5676" y="2328.1" class="st0" width="206" height="453"/>
	<rect x="5882" y="2353.1" class="st0" width="90" height="428"/>
	<rect x="5972" y="2307.1" class="st0" width="152" height="474"/>
	<rect x="6124" y="2390.1" class="st0" width="102" height="391"/>
	<rect x="6226" y="2496.1" class="st0" width="141" height="285"/>
	<rect x="6349" y="2535.1" class="st0" width="70" height="246"/>
	<rect x="6416" y="2429.1" class="st0" width="151" height="352"/>
	<rect x="6567" y="2360.1" class="st0" width="97" height="421"/>
	<rect x="6664" y="2307.1" class="st0" width="74" height="474"/>
	<rect x="6738" y="2334.1" class="st0" width="439" height="447"/>
	<rect x="6886" y="2283.1" class="st0" width="291" height="361"/>
	<rect x="5046" y="2435.1" class="st0" width="157" height="346"/>
	<rect x="361" y="2502.1" class="st0" width="185" height="278"/>
	<rect x="546" y="2541.1" class="st0" width="90" height="239"/>
	<rect x="-87" y="2491.1" class="st0" width="148" height="290"/>
	<rect x="3380" y="2287.1" class="st0" width="187" height="493"/>
	<rect x="3394" y="2255.1" class="st0" width="160" height="32"/>
	<rect x="3414" y="2223.1" class="st0" width="120" height="32"/>
	<polygon class="st0" points="3533.8,2223.1 3413.8,2223.1 3433.8,2175.1 3513.8,2175.1 	"/>
	<rect x="-161" y="2525.1" class="st0" width="148" height="256"/>
	<rect x="61" y="2412.1" class="st0" width="187" height="370"/>
	<rect x="-227" y="2462.1" class="st0" width="73" height="319"/>
	<rect x="-592" y="2431.1" class="st0" width="184" height="350"/>
	<rect x="-661" y="2498.1" class="st0" width="73" height="283"/>
	<rect x="-846" y="2464.1" class="st0" width="185" height="317"/>
	<rect x="-938" y="2420.1" class="st0" width="145" height="361"/>
	<rect x="-1062" y="2371.1" class="st0" width="73" height="410"/>
	<rect x="-992" y="2348.1" class="st0" width="107" height="433"/>
	<rect x="-1174" y="2313.1" class="st0" width="145" height="468"/>
	<rect x="-1317" y="2364.1" class="st0" width="144" height="417"/>
	<rect x="-1463" y="2469.1" class="st0" width="146" height="312"/>
	<rect x="248" y="2456.1" class="st0" width="113" height="325"/>
	<rect x="-1057" y="2269.1" class="st0" width="8" height="24"/>
	<rect x="-877" y="2400.1" class="st0" width="12" height="20"/>
	<rect x="-1073" y="2281.1" class="st0" width="8" height="12"/>
	<rect x="-1178" y="2301.1" class="st0" width="153" height="12"/>
	<rect x="-1091" y="2293.1" class="st0" width="52" height="8"/>
	<rect x="-578" y="2419.1" class="st0" width="152" height="12"/>
	<rect x="77" y="2349.1" class="st0" width="156" height="64"/>
	<rect x="91" y="2317.1" class="st0" width="128" height="32"/>
	<rect x="-569" y="2407.1" class="st0" width="60" height="12"/>
	<rect x="-178" y="2426.1" class="st0" width="12" height="24"/>
	<rect x="-250" y="2340.1" class="st0" width="8" height="16"/>
	<rect x="-266" y="2346.1" class="st0" width="8" height="10"/>
	<rect x="-202" y="2450.1" class="st0" width="42" height="12"/>
	<rect x="-987" y="2340.1" class="st0" width="96" height="8"/>
	<rect x="694" y="2367.1" class="st0" width="95" height="12"/>
	<rect x="708" y="2346.1" class="st0" width="8" height="21"/>
	<rect x="724" y="2357.1" class="st0" width="8" height="10"/>
	<rect x="377" y="2494.1" class="st0" width="148" height="8"/>
	<rect x="385" y="2484.1" class="st0" width="64" height="10"/>
	<rect x="-79" y="2467.1" class="st0" width="132" height="24"/>
	<rect x="1450" y="2371.1" class="st0" width="24" height="24"/>
	<rect x="1474" y="2379.1" class="st0" width="16" height="16"/>
	<rect x="1391" y="2387.1" class="st0" width="59" height="8"/>
	<rect x="1129" y="2404.1" class="st0" width="10" height="16"/>
	<rect x="1144" y="2410.1" class="st0" width="10" height="10"/>
	<rect x="2065" y="2419.1" class="st0" width="158" height="16"/>
	<rect x="2088" y="2411.1" class="st0" width="112" height="8"/>
	<rect x="1788" y="2423.1" class="st0" width="6" height="12"/>
	<rect x="1807" y="2427.1" class="st0" width="6" height="8"/>
	<rect x="3130" y="2315.1" class="st0" width="108" height="10"/>
	<rect x="3218" y="2299.1" class="st0" width="10" height="16"/>
	<rect x="3203" y="2291.1" class="st0" width="10" height="24"/>
	<rect x="3757" y="2445.1" class="st0" width="196" height="16"/>
	<rect x="4054" y="2373.1" class="st0" width="32" height="32"/>
	<rect x="4030" y="2381.1" class="st0" width="24" height="24"/>
	<rect x="4270" y="2362.1" class="st0" width="240" height="12"/>
	<rect x="4286" y="2354.1" class="st0" width="208" height="8"/>
	<rect x="4306" y="2330.1" class="st0" width="12" height="24"/>
	<rect x="4326" y="2342.1" class="st0" width="8" height="12"/>
	<rect x="4384" y="2342.1" class="st0" width="80" height="12"/>
	<rect x="5699" y="2280.1" class="st0" width="160" height="48"/>
	<rect x="5719" y="2248.1" class="st0" width="120" height="32"/>
	<rect x="4778" y="2393.1" class="st0" width="172" height="12"/>
	<rect x="4876" y="2368.1" class="st0" width="62" height="25"/>
	<rect x="4803" y="2380.1" class="st0" width="73" height="13"/>
	<rect x="5155" y="2411.1" class="st0" width="12" height="24"/>
	<rect x="5179" y="2423.1" class="st0" width="12" height="12"/>
	<rect x="5440" y="2408.1" class="st0" width="118" height="12"/>
	<rect x="5361" y="2478.1" class="st0" width="8" height="12"/>
	<rect x="5361" y="2490.1" class="st0" width="44" height="10"/>
	<rect x="6720" y="2275.1" class="st0" width="12" height="32"/>
	<rect x="6706" y="2283.1" class="st0" width="8" height="24"/>
	<rect x="6403" y="2413.1" class="st0" width="164" height="16"/>
	<rect x="6411" y="2405.1" class="st0" width="156" height="8"/>
	<rect x="6429" y="2385.1" class="st0" width="12" height="20"/>
	<rect x="6447" y="2393.1" class="st0" width="12" height="12"/>
	<rect x="6576" y="2352.1" class="st0" width="88" height="8"/>
	<rect x="6242" y="2462.1" class="st0" width="24" height="24"/>
	<rect x="6266" y="2470.1" class="st0" width="16" height="16"/>
	<rect x="6236" y="2486.1" class="st0" width="80" height="10"/>
	<rect x="-1374" y="2445.1" class="st0" width="24" height="24"/>
	<rect x="-1350" y="2453.1" class="st0" width="16" height="16"/>
	<rect x="-1453" y="2461.1" class="st0" width="79" height="8"/>
	<rect x="2528" y="2360.1" class="st0" width="139" height="12"/>
	<rect x="2376" y="2461.1" class="st0" width="12" height="24"/>
	<rect x="2400" y="2473.1" class="st0" width="12" height="12"/>
	<rect x="2917" y="2259.1" class="st0" width="226" height="16"/>
	<rect x="2925" y="2251.1" class="st0" width="209" height="8"/>
	<rect x="2943" y="2231.1" class="st0" width="12" height="20"/>
	<rect x="2961" y="2239.1" class="st0" width="12" height="12"/>
</g>
<g id="colors">
	<rect x="2153.1" y="-908.4" class="st1" width="200" height="200"/>
	<rect x="2353.1" y="-708.4" class="st2" width="200" height="200"/>
	<rect x="2153.1" y="-708.4" class="st3" width="200" height="200"/>
	<rect x="2353.1" y="-908.4" class="st4" width="200" height="200"/>
	<rect x="2553.1" y="-1108.4" class="st5" width="200" height="200"/>
	<rect x="2553.1" y="-908.4" class="st6" width="200" height="200"/>
	<rect x="2553.1" y="-708.4" class="st7" width="200" height="200"/>
	<rect x="2753.1" y="-908.4" class="st8" width="200" height="200"/>
	<rect x="2753.1" y="-708.4" class="st9" width="200" height="200"/>
</g>
<g id="hoist">
	<g id="hoist_1_">
		<line class="st10" x1="3138.4" y1="503" x2="3138.4" y2="890.4"/>
		<rect x="3501" y="1032.6" class="st5" width="161.6" height="80.5"/>
		<polygon class="st11" points="3658.5,1032.6 3503.5,1032.6 3136.4,500 		"/>
		<path class="st2" d="M3136.5,890.4c-60.7,0-110.1,49.4-110.1,110.1c0,60.7,49.4,110.1,110.1,110.1s110.1-49.4,110.1-110.1
			C3246.6,939.8,3197.2,890.4,3136.5,890.4z M3136.5,908.2c49.7,0,90.3,39.5,92.2,88.7h-21.1l-35.8-44.3l-51.4,61.4l-37.7-41.2
			l-21.1,21.1h-17C3047.8,946.2,3087.8,908.2,3136.5,908.2z M3136.5,1092.8c-48.3,0-88-37.2-91.9-84.5h22.8l14.8-14.8l38.6,42.2
			l50.8-60.6l29.2,36.1h27.4C3222.8,1057.1,3183.7,1092.8,3136.5,1092.8z"/>
		<polygon class="st4" points="3676.8,1206.1 3377.7,1206.1 3377.7,1139 3467,1045.1 3557.8,1045.1 3592.3,1113.1 3676.8,1113.1 		
			"/>
		<polygon class="st2" points="3518.9,1139 3397.2,1139 3477,1055.1 3518.2,1055.1 		"/>
		<polygon class="st2" points="3518.9,1139 3397.2,1139 3477,1055.1 3518.9,1055.1 		"/>
		<path class="st5" d="M3690.3,1300h-334.1c-22.7,0-41.2-18.5-41.2-41.2v0c0-22.7,18.5-41.2,41.2-41.2h334.1
			c22.7,0,41.2,18.5,41.2,41.2v0C3731.5,1281.5,3712.9,1300,3690.3,1300z"/>
		<path class="st6" d="M3690.3,1288h-334.1c-16.1,0-29.2-13.1-29.2-29.2l0,0c0-16.1,13.1-29.2,29.2-29.2h334.1
			c16.1,0,29.2,13.1,29.2,29.2l0,0C3719.5,1274.9,3706.3,1288,3690.3,1288z"/>
		<rect x="3390.8" y="1206.1" class="st6" width="267.3" height="11.5"/>
		<line class="st12" x1="3136.4" y1="500" x2="3578.5" y2="1032.6"/>
		<polygon class="st13" points="3478.9,1139 3425,1138.9 3508.9,1055.1 3518.9,1055.1 3518.9,1099.1 		"/>
		<rect x="3592.3" y="1129.6" class="st1" width="64" height="8"/>
		<rect x="3592.3" y="1153.6" class="st1" width="64" height="8"/>
		<rect x="3592.3" y="1177.6" class="st1" width="64" height="8"/>
		<polygon class="st1" points="3488.9,1149 3488.9,1155 3488.9,1161 3494.9,1161 3494.9,1155 3508.9,1155 3508.9,1149 		"/>
		<line class="st14" x1="3382" y1="1159.1" x2="3376" y2="1159.1"/>
		<line class="st14" x1="3382" y1="1191.1" x2="3376" y2="1191.1"/>
		<line class="st14" x1="3382" y1="1175.1" x2="3376" y2="1175.1"/>
		<line class="st11" x1="3658.5" y1="1032.6" x2="3425.4" y2="919.3"/>
		<line class="st11" x1="3542.2" y1="913.6" x2="3361.2" y2="826.2"/>
		<line class="st11" x1="3456.2" y1="826.2" x2="3313.9" y2="757.5"/>
		<line class="st11" x1="3385" y1="753.7" x2="3274.4" y2="700.3"/>
		<line class="st11" x1="3332.4" y1="700.3" x2="3245.5" y2="658.3"/>
		<line class="st11" x1="3289" y1="658.3" x2="3223.8" y2="626.8"/>
		<line class="st11" x1="3257.1" y1="623.1" x2="3203.4" y2="597.2"/>
		<line class="st11" x1="3503.5" y1="1032.6" x2="3542.2" y2="915.1"/>
		<line class="st11" x1="3425.4" y1="919.8" x2="3456.2" y2="826.2"/>
		<line class="st11" x1="3361.2" y1="826.2" x2="3385.1" y2="753.7"/>
		<line class="st11" x1="3313.9" y1="757.5" x2="3332.7" y2="700.3"/>
		<line class="st11" x1="3274.4" y1="700.3" x2="3289.1" y2="655.7"/>
		<line class="st11" x1="3245.5" y1="658.3" x2="3257.1" y2="623.1"/>
		<line class="st11" x1="3223.8" y1="626.8" x2="3233.1" y2="598.6"/>
		<circle class="st6" cx="3138.4" cy="890.4" r="10"/>
	</g>
	<g id="wheels_2_">
		<g id="wheel5_1_">
			<circle class="st1" cx="3691.5" cy="1258.8" r="22"/>
			<line class="st15" x1="3678.8" y1="1240.8" x2="3704.1" y2="1276.8"/>
		</g>
		<g id="wheel4_1_">
			<circle class="st1" cx="3607.6" cy="1258.8" r="22"/>
			<line class="st15" x1="3624" y1="1244.1" x2="3591.3" y2="1273.5"/>
		</g>
		<g id="wheel3_2_">
			<circle class="st1" cx="3523.8" cy="1258.8" r="22"/>
			<line class="st15" x1="3504.8" y1="1247.8" x2="3542.9" y2="1269.8"/>
		</g>
		<g id="wheel2_2_">
			<circle class="st1" cx="3440" cy="1258.8" r="22"/>
			<line class="st15" x1="3424.4" y1="1243.3" x2="3455.5" y2="1274.4"/>
		</g>
		<g id="wheel1_2_">
			<circle class="st1" cx="3356.2" cy="1258.8" r="22"/>
			<line class="st15" x1="3368.8" y1="1240.8" x2="3343.5" y2="1276.8"/>
		</g>
	</g>
</g>
<g id="tablet">
	<g id="tablet_1_">
		<path class="st3" d="M2557.1,1268V732c0-17.7,14.3-32,32-32h340.6c17.7,0,32,14.3,32,32v536c0,17.7-14.3,32-32,32h-340.6
			C2571.5,1300,2557.1,1285.7,2557.1,1268z"/>
		<rect x="2567.6" y="749.7" class="st5" width="383" height="494"/>
		<path class="st16" d="M2783.1,1260.1h-52c-5.5,0-10,4.5-10,10v4c0,5.5,4.5,10,10,10h52c5.5,0,10-4.5,10-10v-4
			C2793.1,1264.6,2788.6,1260.1,2783.1,1260.1z"/>
	</g>
	<g id="tabletContent">
		<rect x="2599.1" y="779.1" class="st16" width="204.7" height="97.1"/>
		<rect x="2822" y="779.1" class="st16" width="97.1" height="97.1"/>
		<rect x="2599.1" y="894.8" class="st16" width="97.1" height="97.1"/>
		<rect x="2714.5" y="894.8" class="st16" width="204.7" height="97.1"/>
		<rect x="2599.1" y="1006.2" class="st16" width="320" height="97.1"/>
		<rect x="2599.1" y="1117.2" class="st16" width="204.7" height="97.1"/>
		<rect x="2822" y="1117.2" class="st16" width="97.1" height="97.1"/>
	</g>
</g>
<g id="laptop">
	<g id="laptop_1_">
		<g>
			<path class="st5" d="M2407.7,1251.7V796c0-19.9-16.1-36-36-36h-691c-19.9,0-36,16.1-36,36v455.7h-90.6v12.3c0,19.9,16.1,36,36,36
				h850.7c19.9,0,36-16.1,36-36v-12.3H2407.7z"/>
			<rect x="1676.5" y="796.9" class="st4" width="699.7" height="437.5"/>
			<circle class="st4" cx="2362.2" cy="810.9" r="6"/>
		</g>
		<path class="st4" d="M1417.3,1070.2l4.6-18.1l-15.1-5.2c0.4-7.6-0.7-15-3.2-21.9l13.1-9.3l-9.5-16.1l-14.5,7.1
			c-4.9-5.4-10.8-9.8-17.6-13l2.7-16.1l-18.1-4.6l-5.4,15.6c-7.4-0.4-14.7,0.8-21.4,3.2l-9.6-13.6l-16.1,9.5l7.3,15.1
			c-5.3,4.8-9.6,10.5-12.8,17.2l-16.6-2.8l-4.6,18.1l15.9,5.5c-0.4,7.3,0.7,14.5,3,21.2l-13.7,9.7l9.5,16.1l15-7.3
			c4.7,5.4,10.6,9.8,17.2,13.1l-2.7,16.2l18.1,4.6l5.3-15.4c7.5,0.5,14.9-0.6,21.7-3l9.4,13.2l16.1-9.5l-7-14.4
			c5.5-4.8,10.1-10.8,13.3-17.7L1417.3,1070.2z M1346.6,1063.2c-10.7-2.7-17.2-13.7-14.5-24.4c2.7-10.7,13.7-17.2,24.4-14.5
			c10.7,2.7,17.2,13.7,14.5,24.4C1368.3,1059.5,1357.3,1065.9,1346.6,1063.2z"/>
		<g>
			<path id="XMLID_1_" class="st2" d="M1362.6,1282.2l65.3-253.8c2.8-10.7,16.1-14.5,24-6.7l187.1,183.5c7.9,7.8,4.5,21.2-6.2,24.2
				l-252.4,70.3C1369.7,1302.7,1359.8,1293,1362.6,1282.2z"/>
			<path class="st5" d="M1531.3,1186.2c-10.6,0.2-19.1,8.5-19.7,18.9l-47.5,7.4c-2.2-6.4-6.9-11.7-12.9-14.7l13.2-46.2
				c1.2,0.1,2.4,0.2,3.7,0.2c15-0.3,26.9-12.7,26.6-27.7c-0.3-15-12.7-26.9-27.7-26.6c-15,0.3-26.9,12.7-26.6,27.7
				c0.2,10.7,6.5,19.7,15.6,24l-13.2,46.2c-1-0.1-2.1-0.2-3.2-0.1c-14,0.3-25.2,11.9-24.9,25.9s11.9,25.2,25.9,24.9
				c13.7-0.3,24.7-11.4,24.9-24.9l47.6-7.4c3,7.6,10.5,13,19.2,12.8c11.1-0.2,20-9.4,19.8-20.6
				C1551.7,1194.8,1542.5,1185.9,1531.3,1186.2z"/>
		</g>
		<g>
			<circle class="st5" cx="1281.4" cy="1199.9" r="100"/>
			<path class="st3" d="M1291.8,1142.5c-25.2,0-45.6,20.5-45.6,45.6c0,10.3,3.4,19.8,9.2,27.4l-27.6,27.6c-3.2,3.2-3.2,8.4,0,11.7
				c3.2,3.2,8.4,3.2,11.7,0l28.1-28.1c7,4.4,15.4,7,24.3,7c25.2,0,45.6-20.5,45.6-45.6S1317,1142.5,1291.8,1142.5z M1291.8,1222.2
				c-18.8,0-34.1-15.3-34.1-34.1c0-18.8,15.3-34.1,34.1-34.1c18.8,0,34.1,15.3,34.1,34.1C1325.9,1206.9,1310.6,1222.2,1291.8,1222.2
				z"/>
		</g>
	</g>
	<g id="laptopContent">
		<rect x="1676.5" y="796.9" class="st1" width="699.7" height="80"/>
		<rect x="1972.3" y="901.9" class="st1" width="240" height="120"/>
		<rect x="1840.3" y="901.9" class="st1" width="120" height="120"/>
		<rect x="1840.3" y="1035.7" class="st1" width="372" height="24"/>
		<rect x="1840.3" y="1071.9" class="st1" width="324.8" height="24"/>
		<rect x="1840.3" y="1108.6" class="st1" width="290.1" height="24"/>
		<rect x="1840.3" y="1144.9" class="st1" width="347.4" height="24"/>
		<rect x="1846.3" y="1180.9" class="st1" width="267.3" height="24"/>
		<rect x="1840.3" y="1217.1" class="st1" width="312.7" height="17.3"/>
		<path class="st4" d="M2304.2,860.9h-518c-4.4,0-8-3.6-8-8v-12.1c0-4.4,3.6-8,8-8h518c4.4,0,8,3.6,8,8v12.1
			C2312.2,857.3,2308.6,860.9,2304.2,860.9z"/>
		<circle class="st4" cx="1750.5" cy="846.8" r="14"/>
		<circle class="st4" cx="1714.5" cy="846.8" r="14"/>
		<circle class="st4" cx="2344.2" cy="810.9" r="6"/>
		<circle class="st4" cx="2326.2" cy="810.9" r="6"/>
		<path class="st4" d="M2344.2,860.8h-12c-4.4,0-8-3.6-8-8v-12c0-4.4,3.6-8,8-8h12c4.4,0,8,3.6,8,8v12
			C2352.2,857.2,2348.6,860.8,2344.2,860.8z"/>
	</g>
	<g id="load">
		<g>
			<path class="st3" d="M2094.4,1015.5c0.2-0.2,0.3-0.5,0.5-0.7c12.2-18.7,14.7-36.2,7.1-49.3c-6.9-12-21.6-18.6-41.2-18.6
				c-1.9,0-3.9,0.1-5.8,0.2c-9.8-19.5-23.7-31.6-39.5-31.6s-29.8,12.1-39.5,31.6c-2-0.1-3.9-0.2-5.8-0.2c-19.7,0-34.3,6.6-41.2,18.6
				c-7.9,13.7-4.4,31.8,7.6,50c-12,18.2-15.5,36.3-7.6,50c6.9,12,21.6,18.6,41.2,18.6c1.9,0,3.9-0.1,5.8-0.2
				c9.8,19.5,23.7,31.6,39.5,31.6s29.8-12.1,39.5-31.6c2,0.1,3.9,0.2,5.8,0.2c19.7,0,34.3-6.6,41.2-18.6c7.6-13.1,5-30.6-7.1-49.3
				C2094.8,1015.9,2094.6,1015.7,2094.4,1015.5z M2060.8,959c15.2,0,26.1,4.5,30.7,12.6c4.7,8.2,2.9,20.3-4.9,33.6
				c-5.6-6.7-12.3-13.2-19.7-19.3c-1.6-9.7-3.9-18.7-6.8-26.9C2060.3,959,2060.6,959,2060.8,959z M2036.3,1051.5
				c-6.8,4-13.8,7.4-20.8,10.3c-7-2.9-14-6.3-20.8-10.3c-7.1-4.1-13.5-8.4-19.3-12.9c-1-7.3-1.5-15-1.5-23.2
				c0-8.2,0.5-15.9,1.5-23.2c5.8-4.5,12.3-8.8,19.3-12.9c6.8-4,13.8-7.4,20.8-10.3c7,2.9,14,6.3,20.8,10.3c6.9,4,13.4,8.4,19.4,13
				c0.9,7.2,1.5,15,1.5,23.1c0,8.1-0.5,15.8-1.5,23.1C2049.7,1043.2,2043.2,1047.5,2036.3,1051.5z M2052.4,1055.7
				c-1.4,5.5-3,10.5-4.9,15.2c-5-0.7-10.2-1.9-15.5-3.4c3.5-1.7,6.9-3.6,10.3-5.5C2045.8,1060,2049.1,1057.9,2052.4,1055.7z
				 M1998.9,1067.6c-5.3,1.5-10.5,2.6-15.5,3.4c-1.8-4.6-3.5-9.7-4.9-15.1c3.2,2.1,6.6,4.2,10.1,6.2
				C1992,1064,1995.4,1065.8,1998.9,1067.6z M1962.1,1027.3c-4-3.9-7.6-7.9-10.7-11.8c3.1-3.9,6.7-7.9,10.7-11.8
				c-0.2,3.9-0.4,7.8-0.4,11.8S1961.8,1023.4,1962.1,1027.3z M1978.5,975.1c1.4-5.5,3-10.5,4.9-15.1c5,0.7,10.2,1.9,15.5,3.4
				c-3.5,1.7-6.9,3.6-10.3,5.5C1985.1,970.9,1981.8,973,1978.5,975.1z M2032,963.4c5.3-1.5,10.5-2.6,15.5-3.4
				c1.9,4.6,3.5,9.7,4.9,15.2c-3.3-2.2-6.6-4.3-10.1-6.3C2038.9,966.9,2035.5,965.1,2032,963.4z M2068.9,1003.8
				c3.9,3.8,7.5,7.7,10.6,11.7c-3.1,4-6.7,7.9-10.6,11.7c0.2-3.8,0.4-7.7,0.4-11.7C2069.2,1011.5,2069.1,1007.6,2068.9,1003.8z
				 M2015.5,927.6c9.3,0,19,7.6,26.7,21.1c-8.6,1.5-17.6,4.1-26.7,7.5c-9-3.4-18-5.9-26.7-7.5
				C1996.5,935.2,2006.1,927.6,2015.5,927.6z M1939.3,971.5c4.7-8.1,15.6-12.6,30.7-12.6c0.2,0,0.5,0,0.8,0
				c-2.9,8.1-5.3,17.1-6.8,26.8c-7.6,6.2-14.2,12.7-19.8,19.3C1936.5,991.7,1934.7,979.6,1939.3,971.5z M1970.1,1072
				c-15.2,0-26.1-4.5-30.7-12.6c-4.7-8.1-2.9-20.2,4.9-33.6c5.6,6.6,12.2,13.1,19.8,19.3c1.6,9.7,3.9,18.7,6.8,26.8
				C1970.6,1072,1970.3,1072,1970.1,1072z M2015.5,1103.4c-9.3,0-19-7.6-26.7-21.1c8.6-1.5,17.6-4.1,26.7-7.5c9,3.4,18,5.9,26.7,7.5
				C2034.5,1095.7,2024.8,1103.4,2015.5,1103.4z M2091.6,1059.4c-4.7,8.1-15.6,12.6-30.7,12.6c-0.2,0-0.5,0-0.8,0
				c2.9-8.1,5.3-17.2,6.8-26.9c7.5-6.1,14.1-12.6,19.7-19.3C2094.5,1039.1,2096.3,1051.2,2091.6,1059.4z"/>
			<circle class="st3" cx="2015.5" cy="1015.5" r="19"/>
		</g>
		<line class="st17" x1="2015.5" y1="927.6" x2="2015.5" y2="898"/>
		<line class="st18" x1="2015.5" y1="839.6" x2="2015.5" y2="-40.4"/>
		<line class="st14" x1="2015.5" y1="849.6" x2="2015.5" y2="899"/>
		<path class="st5" d="M2034.1,841.7l-13.2,22.9c-2.4,4.1-8.4,4.1-10.8,0l-13.2-22.9c-2.4-4.1,0.6-9.3,5.4-9.3h26.5
			C2033.5,832.4,2036.5,837.6,2034.1,841.7z"/>
		<path class="st5" d="M2027.5,889h-24c-2.2,0-4,1.8-4,4v12c0,2.2,1.8,4,4,4h24c2.2,0,4-1.8,4-4v-12
			C2031.5,890.8,2029.7,889,2027.5,889z"/>
		<circle class="st19" cx="2015.5" cy="860.1" r="3.4"/>
		<circle class="st19" cx="2003.5" cy="893" r="2"/>
		<circle class="st19" cx="2027.5" cy="893" r="2"/>
		<circle class="st19" cx="2003.5" cy="904.9" r="2"/>
		<circle class="st19" cx="2027.5" cy="904.9" r="2"/>
		<circle class="st19" cx="2005.5" cy="840.1" r="3.4"/>
		<circle class="st19" cx="2025.5" cy="840.1" r="3.4"/>
	</g>
</g>
<g id="charts">
	<g>
		<rect x="141.4" y="980" class="st1" width="480" height="320"/>
		<path class="st6" d="M179.1,1224h2.3c4.4,0,8-3.6,8-8v-189.7c0-4.4-3.6-8-8-8h-2.3c-4.4,0-8,3.6-8,8V1216
			C171.1,1220.4,174.7,1224,179.1,1224z"/>
		<path class="st6" d="M215.7,1224h2.3c4.4,0,8-3.6,8-8v-169.1c0-4.4-3.6-8-8-8h-2.3c-4.4,0-8,3.6-8,8V1216
			C207.7,1220.4,211.3,1224,215.7,1224z"/>
		<path class="st6" d="M252.3,1224h2.3c4.4,0,8-3.6,8-8v-148.6c0-4.4-3.6-8-8-8h-2.3c-4.4,0-8,3.6-8,8V1216
			C244.3,1220.4,247.9,1224,252.3,1224z"/>
		<path class="st6" d="M288.8,1224h2.3c4.4,0,8-3.6,8-8v-66.3c0-4.4-3.6-8-8-8h-2.3c-4.4,0-8,3.6-8,8v66.3
			C280.8,1220.4,284.4,1224,288.8,1224z"/>
		<path class="st6" d="M325.4,1224h2.3c4.4,0,8-3.6,8-8v-86.9c0-4.4-3.6-8-8-8h-2.3c-4.4,0-8,3.6-8,8v86.9
			C317.4,1220.4,321,1224,325.4,1224z"/>
		<path class="st6" d="M362,1224h2.3c4.4,0,8-3.6,8-8v-128c0-4.4-3.6-8-8-8H362c-4.4,0-8,3.6-8,8v128
			C354,1220.4,357.6,1224,362,1224z"/>
		<path class="st6" d="M398.6,1224h2.3c4.4,0,8-3.6,8-8v-107.4c0-4.4-3.6-8-8-8h-2.3c-4.4,0-8,3.6-8,8V1216
			C390.6,1220.4,394.1,1224,398.6,1224z"/>
		<path class="st6" d="M591.7,1253.2v-2.3c0-4.4-3.6-8-8-8H179.1c-4.4,0-8,3.6-8,8v2.3c0,4.4,3.6,8,8,8h404.6
			C588.1,1261.2,591.7,1257.6,591.7,1253.2z"/>
		<path class="st6" d="M435.1,1224h2.3c4.4,0,8-3.6,8-8v-158.9c0-4.4-3.6-8-8-8h-2.3c-4.4,0-8,3.6-8,8V1216
			C427.1,1220.4,430.7,1224,435.1,1224z"/>
		<path class="st6" d="M471.7,1224h2.3c4.4,0,8-3.6,8-8v-138.3c0-4.4-3.6-8-8-8h-2.3c-4.4,0-8,3.6-8,8V1216
			C463.7,1220.4,467.3,1224,471.7,1224z"/>
		<path class="st6" d="M508.3,1224h2.3c4.4,0,8-3.6,8-8v-169.1c0-4.4-3.6-8-8-8h-2.3c-4.4,0-8,3.6-8,8V1216
			C500.3,1220.4,503.9,1224,508.3,1224z"/>
		<path class="st6" d="M544.8,1224h2.3c4.4,0,8-3.6,8-8v-128c0-4.4-3.6-8-8-8h-2.3c-4.4,0-8,3.6-8,8v128
			C536.8,1220.4,540.4,1224,544.8,1224z"/>
		<path class="st6" d="M581.4,1224h2.3c4.4,0,8-3.6,8-8v-189.7c0-4.4-3.6-8-8-8h-2.3c-4.4,0-8,3.6-8,8V1216
			C573.4,1220.4,577,1224,581.4,1224z"/>
	</g>
	<g>
		<rect x="0" y="1086.7" class="st4" width="284.4" height="213.3"/>
		<g>
			<line class="st20" x1="28.9" y1="1265.5" x2="93.5" y2="1200.9"/>
			<line class="st20" x1="86.9" y1="1200.9" x2="119.2" y2="1233.2"/>
			<line class="st20" x1="112.6" y1="1233.2" x2="177.2" y2="1168.6"/>
			<line class="st20" x1="188.2" y1="1192.9" x2="255.4" y2="1125.7"/>
			<line class="st20" x1="170.6" y1="1168.6" x2="194.8" y2="1192.9"/>
			<polygon class="st5" points="265.6,1135.9 265.6,1115.4 245.1,1115.4 			"/>
		</g>
		<line class="st20" x1="28.9" y1="1116.2" x2="28.9" y2="1271.2"/>
		<line class="st20" x1="28.9" y1="1266.3" x2="259.2" y2="1266.3"/>
	</g>
	<g>
		<circle class="st5" cx="620" cy="1200" r="100"/>
		<path class="st3" d="M520.5,1189.8c-2.9,28.9,6.7,58.8,28.8,81L620,1200L520.5,1189.8z"/>
		<path class="st2" d="M620,1200l9.1-99.6c-28.6-2.6-58,7.1-79.9,28.9c-16.9,16.9-26.4,38.4-28.7,60.4l0,0L620,1200z"/>
	</g>
</g>
<g id="phones">
	<g>
		<line class="st21" x1="-674.4" y1="1299.9" x2="-843.3" y2="1196.5"/>
		<line class="st21" x1="-843.3" y1="1299.9" x2="-674.4" y2="1196.5"/>
		<line class="st21" x1="-674.4" y1="1164.8" x2="-843.3" y2="1061.4"/>
		<line class="st21" x1="-843.3" y1="1164.8" x2="-674.4" y2="1061.4"/>
		<rect x="-674.4" y="1029.9" class="st6" width="9.9" height="269.8"/>
		<rect x="-853.2" y="1029.9" class="st6" width="9.9" height="269.8"/>
		<rect x="-678.1" y="1269" class="st1" width="17.4" height="30.9"/>
		<rect x="-856.9" y="1269" class="st1" width="17.4" height="30.9"/>
		<rect x="-853.2" y="1185.8" class="st1" width="188.7" height="10.7"/>
		<rect x="-865.7" y="1164.8" class="st4" width="213.4" height="21.5"/>
		<rect x="-853.2" y="1050.7" class="st1" width="188.6" height="10.7"/>
		<rect x="-865.7" y="1029.7" class="st4" width="213.4" height="21.5"/>
		<g>
			<path class="st7" d="M-866.8,1216.7c13.2,8.2,17.5,25.7,9.7,39.1c-4.7,8.2-12.8,13.1-21.4,14.2c-4.3,0.6-8.2,3.2-10.5,6.8l-4,6.2
				l0,0c-4,6.3-12.3,8.1-18.6,4.1c-6.3-4-8.1-12.3-4.1-18.6l0,0l4.1-6.4c2.4-3.7,2.8-8.2,1.6-12.4c-2.4-7.8-1.4-16.6,3.3-24.1
				C-898,1212.2-880.2,1208.3-866.8,1216.7z"/>
			<circle class="st22" cx="-887.1" cy="1224.6" r="7.5"/>
			
				<rect x="-923.3" y="1274.2" transform="matrix(0.8421 0.5394 -0.5394 0.8421 549.022 693.5129)" class="st5" width="27.2" height="20.1"/>
		</g>
	</g>
	<g>
		<g>
			<path class="st6" d="M-507.3,1300h-185.5c-17.7,0-32-14.3-32-32V852c0-17.7,14.3-32,32-32h185.5c17.7,0,32,14.3,32,32v416
				C-475.3,1285.7-489.7,1300-507.3,1300z"/>
			<path class="st3" d="M-575.6,1279.7h-49c-5,0-9.2-4.1-9.2-9.2v-6.1c0-5,4.1-9.2,9.2-9.2h49c5,0,9.2,4.1,9.2,9.2v6.1
				C-566.4,1275.6-570.6,1279.7-575.6,1279.7z"/>
			<rect x="-711.9" y="860.1" class="st3" width="223.5" height="378.6"/>
		</g>
		<path class="st23" d="M-571.3,1034c-6.3-6.3-14.7-9.8-23.5-9.8c-5.2,0-10.2,1.2-14.7,3.5c-4.5-2.2-9.5-3.5-14.7-3.5
			c-8.9,0-17.3,3.5-23.5,9.8c-11,11-12.6,27.8-5,40.6l-3,13.3c-0.2,0.7,0.5,1.3,1.2,1.2l13.3-3c5.1,3.1,11,4.7,17.1,4.7
			c5.2,0,10.2-1.2,14.7-3.5c4.5,2.2,9.5,3.5,14.7,3.5c6.1,0,12-1.7,17.1-4.7l13.3,3c0.7,0.2,1.3-0.5,1.2-1.2l-3-13.4
			C-558.7,1061.8-560.3,1045-571.3,1034z M-613.5,1080.1c-0.5,0.5-1.1,0.7-1.8,0.7c-0.6,0-1.3-0.2-1.8-0.7l-0.2-0.2
			c-12.3-12.3-12.3-32.4,0-44.7c1-1,2.6-1,3.5,0c1,1,1,2.6,0,3.5c-10.4,10.4-10.4,27.3,0,37.7l0.2,0.2
			C-612.5,1077.6-612.5,1079.1-613.5,1080.1z M-577.2,1075.2c-4.7,4.7-11,7.3-17.7,7.3c-2.2,0-4.4-0.3-6.5-0.9
			c0.2-0.2,0.4-0.3,0.6-0.5c13-13,13-34.1,0-47.1c-0.2-0.2-0.4-0.4-0.6-0.5c2.1-0.6,4.3-0.9,6.5-0.9c6.7,0,12.9,2.6,17.7,7.3
			C-567.5,1049.6-567.5,1065.5-577.2,1075.2z"/>
	</g>
	<g>
		<g>
			<path class="st2" d="M-370.4,1300H-582c-2.1,0-3.8-1.7-3.8-3.8V897.6c0-2.1,1.7-3.8,3.8-3.8h211.6c2.1,0,3.8,1.7,3.8,3.8v398.6
				C-366.6,1298.3-368.3,1300-370.4,1300z"/>
			<circle class="st5" cx="-476.2" cy="1265.6" r="20.4"/>
			<rect x="-585.8" y="936.2" class="st5" width="219.2" height="294.3"/>
		</g>
		<g>
			<g>
				<path class="st16" d="M-450.7,1088.8c-16.3,0-29.6-13.3-29.6-29.6c0-3,0.4-5.8,1.3-8.5H-508c-8.9,0-16.1,7.2-16.1,16.1v47.2
					c0,8.9,7.2,16.1,16.1,16.1h47.2c8.9,0,16.1-7.2,16.1-16.1v-25.8C-446.6,1088.6-448.6,1088.8-450.7,1088.8z"/>
			</g>
			<path class="st16" d="M-450.7,1036.6c-12.4,0-22.6,10.1-22.6,22.6c0,12.4,10.1,22.6,22.6,22.6c12.4,0,22.6-10.1,22.6-22.6
				C-428.2,1046.7-438.3,1036.6-450.7,1036.6z M-450.7,1071.2c-6.6,0-12-5.4-12-12c0-6.6,5.4-12,12-12c6.6,0,12,5.4,12,12
				C-438.7,1065.8-444.1,1071.2-450.7,1071.2z"/>
		</g>
	</g>
</g>
<g id="crane">
	<g id="crane_1_">
		<g>
			<line class="st24" x1="850.4" y1="13.5" x2="388.8" y2="99.7"/>
			<polyline class="st25" points="387.2,99 443.2,124 499.2,95 555.2,124 611.2,93 667.2,124 723.2,90 779.2,124 			"/>
			<line class="st24" x1="1077.7" y1="96" x2="850.4" y2="13.5"/>
			<polyline class="st25" points="1080.6,93 1024.6,124 968.6,90 912.6,124 			"/>
			<rect x="383.1" y="124" class="st1" width="701.5" height="24"/>
			<polygon class="st1" points="884,533.1 884,353.1 878,353.1 878,148.1 818,148.1 818,353.1 812,353.1 812,533.1 806,533.1 
				806,713.1 812,713.1 818,713.1 878,713.1 884,713.1 890,713.1 890,533.1 			"/>
			<polygon class="st4" points="959.2,749.8 959.2,703.9 730.3,703.9 730.3,749.8 683.8,749.8 683.8,799.9 730.3,799.9 959.2,799.9 
				1003.8,799.9 1003.8,749.8 			"/>
			<line class="st25" x1="912.6" y1="89" x2="779.2" y2="87"/>
			<polygon class="st25" points="968.6,90 912.6,88 912.6,144 968.6,144 			"/>
			<polygon class="st25" points="1024.6,92 968.6,90 968.6,144 1024.6,144 			"/>
			<polygon class="st25" points="1080.6,93 1024.6,92 1024.6,144 1080.6,144 			"/>
			<polygon class="st25" points="723.2,90 779.2,88 779.2,144 723.2,144 			"/>
			<polygon class="st25" points="667.2,92 723.2,90 723.2,144 667.2,144 			"/>
			<polygon class="st25" points="611.2,93 667.2,92 667.2,144 611.2,144 			"/>
			<polygon class="st25" points="555.2,94 611.2,93 611.2,144 555.2,144 			"/>
			<polygon class="st25" points="499.2,95 555.2,94 555.2,144 499.2,144 			"/>
			<polygon class="st25" points="443.2,97 499.2,95 499.2,144 443.2,144 			"/>
			<polygon class="st25" points="387.2,99 443.2,97 443.2,144 387.2,144 			"/>
			<polygon class="st26" points="850.4,24.6 882.3,98.6 818.3,98.6 			"/>
			<line class="st24" x1="392.3" y1="140" x2="1077.7" y2="140"/>
			<polygon class="st25" points="850.3,85.8 839.2,50.2 861.4,50.2 			"/>
			<g>
				<polyline class="st21" points="1065.6,806.7 962.8,703.9 730.3,703.9 				"/>
				<polyline class="st27" points="736.4,703.9 736.4,667.9 964.8,667.9 1063.9,767 1063.9,801.7 				"/>
				<line class="st21" x1="927.4" y1="703.9" x2="927.4" y2="667.9"/>
				<path class="st21" d="M906.3,667.9"/>
				<path class="st21" d="M906.3,703.9"/>
				<line class="st21" x1="895.6" y1="703.9" x2="895.6" y2="667.9"/>
				<line class="st21" x1="863.7" y1="703.9" x2="863.7" y2="667.9"/>
				<line class="st21" x1="959.2" y1="703.9" x2="959.2" y2="667.9"/>
				<line class="st21" x1="831.9" y1="703.9" x2="831.9" y2="667.9"/>
				<line class="st21" x1="1037.7" y1="778.2" x2="1037.7" y2="742.2"/>
				<line class="st21" x1="985.4" y1="725.9" x2="985.4" y2="689.9"/>
				<line class="st21" x1="1011.5" y1="750.5" x2="1011.5" y2="714.5"/>
				<line class="st21" x1="800" y1="703.9" x2="800" y2="667.9"/>
				<line class="st21" x1="768.2" y1="703.9" x2="768.2" y2="667.9"/>
				<path class="st21" d="M1056.9,757.7"/>
				<path class="st21" d="M1056.9,799.9"/>
				<path class="st21" d="M923.6,677.3"/>
			</g>
			<polygon class="st4" points="783.9,65.5 765,120.4 779.4,148 916.6,148 916.6,83.5 854.8,83.5 837,64.8 			"/>
			<polygon class="st3" points="790.9,73 774.8,120.9 832,120.9 832,72.3 			"/>
			<rect x="872.6" y="107" class="st5" width="36" height="4"/>
			<rect x="872.6" y="118.9" class="st5" width="36" height="4"/>
			<rect x="872.6" y="95" class="st5" width="36" height="4"/>
			<polygon class="st13" points="823.3,72.4 774.8,120.9 832,120.9 832,72.3 			"/>
			<line class="st14" x1="850.4" y1="24.6" x2="850.4" y2="8.6"/>
		</g>
		<g>
			<rect x="89.5" y="460" class="st4" width="340" height="340"/>
			<polygon class="st1" points="297.3,576.4 232.6,688.4 205.7,641.8 130.1,772.7 184,772.7 281.2,772.7 410.6,772.7 			"/>
			<circle class="st1" cx="161.5" cy="532" r="34.2"/>
		</g>
		<g>
			<rect x="-0.5" y="620" class="st5" width="180" height="180"/>
			<rect x="11.5" y="632" class="st4" width="156" height="58"/>
			<rect x="51.5" y="700" class="st4" width="103.9" height="10"/>
			<rect x="11.5" y="780" class="st4" width="113.7" height="10"/>
			<rect x="11.5" y="760" class="st4" width="119.4" height="10"/>
			<rect x="11.5" y="740" class="st4" width="137.5" height="10"/>
			<rect x="51.5" y="720" class="st4" width="87.5" height="10"/>
			<rect x="11.5" y="700" class="st4" width="30" height="30"/>
		</g>
		<path class="st6" d="M566.3,763.8v-408c0-19.9-16.1-36-36-36H366.2c-19.9,0-36,16.1-36,36v408c0,19.9,16.1,36,36,36h164.1
			C550.2,799.8,566.3,783.7,566.3,763.8z"/>
		<circle class="st2" cx="447.5" cy="772.8" r="17"/>
		<rect x="341" y="374.6" class="st2" width="213.8" height="374.3"/>
		<rect x="354.5" y="384.9" class="st28" width="187.5" height="187.5"/>
	</g>
	<g id="content">
		<path class="st28" d="M538,650.2H358.5c-2.2,0-4,1.8-4,4v8c0,2.2,1.8,4,4,4H538c2.2,0,4-1.8,4-4v-8C542,652,540.2,650.2,538,650.2
			z"/>
		<path class="st28" d="M538,678.2H358.5c-2.2,0-4,1.8-4,4v8c0,2.2,1.8,4,4,4H538c2.2,0,4-1.8,4-4v-8C542,680,540.2,678.2,538,678.2
			z"/>
		<path class="st28" d="M538,706.2H358.5c-2.2,0-4,1.8-4,4v8c0,2.2,1.8,4,4,4H538c2.2,0,4-1.8,4-4v-8C542,708,540.2,706.2,538,706.2
			z"/>
		<path class="st28" d="M404.5,638.4h-46c-2.2,0-4-1.8-4-4v-46c0-2.2,1.8-4,4-4h46c2.2,0,4,1.8,4,4v46
			C408.5,636.6,406.7,638.4,404.5,638.4z"/>
		<path class="st28" d="M538,638.4h-46c-2.2,0-4-1.8-4-4v-46c0-2.2,1.8-4,4-4h46c2.2,0,4,1.8,4,4v46
			C542,636.6,540.2,638.4,538,638.4z"/>
		<path class="st28" d="M470.5,638.4h-46c-2.2,0-4-1.8-4-4v-46c0-2.2,1.8-4,4-4h46c2.2,0,4,1.8,4,4v46
			C474.5,636.6,472.7,638.4,470.5,638.4z"/>
	</g>
	<g id="load_1_">
		<defs>
			<rect id="mask" x="444.4" y="153.1" width="194.4" height="419.3"/>
		</defs>
		<clipPath id="mask_1_">
			<use xlink:href="#mask"  style="overflow:visible;"/>
		</clipPath>
		<g id="loadInner" class="st29">
			<line class="st15" x1="542" y1="291.1" x2="542" y2="-28.9"/>
			<rect x="447.8" y="291.1" class="st5" width="187.5" height="187.5"/>
			<polygon class="st22" points="510,347.9 574,384.9 510,421.8 			"/>
			<circle class="st6" cx="542" cy="291.1" r="10"/>
		</g>
	</g>
	<circle id="anchor" class="st30" cx="542" cy="140" r="10"/>
</g>
<g id="tanker">
	<g id="truck">
		<polygon class="st5" points="-512.1,613.7 -591.8,613.7 -608.8,629.2 -608.8,635 -512.1,635 		"/>
		<rect x="-908.3" y="629.2" class="st5" width="418.4" height="33.6"/>
		<rect x="-878.4" y="662.8" class="st6" width="167.2" height="20"/>
		<rect x="-606.4" y="662.8" class="st6" width="133.3" height="20"/>
		<polygon class="st4" points="-487.4,530.2 -579.8,530.2 -579.8,630.1 -536.4,630.1 -513.8,652.7 -513.8,675.2 -452.4,675.2 
			-452.4,590.1 		"/>
		<polygon class="st7" points="-494.4,542.2 -541.8,542.2 -541.8,590.1 -467.9,590.1 		"/>
		<path class="st7" d="M-614.2,499.3h-294.1c0,0-18.5,23.2-18.5,65c0,36.7,18.5,65,18.5,65h294.1c0,0,9.3-18.2,9.3-65
			C-604.9,531.5-614.2,499.3-614.2,499.3z"/>
		<path class="st1" d="M-450.9,659.2h-62.9v16h62.9c2.2,0,4-1.8,4-4v-8C-446.9,661-448.7,659.2-450.9,659.2z"/>
		<line class="st14" x1="-451" y1="615.1" x2="-457" y2="615.1"/>
		<line class="st14" x1="-451" y1="647.1" x2="-457" y2="647.1"/>
		<line class="st14" x1="-451" y1="631.1" x2="-457" y2="631.1"/>
		<rect x="-591.8" y="514.4" class="st6" width="12" height="99.3"/>
		<rect x="-575.4" y="552.6" class="st1" width="28" height="4"/>
		<rect x="-541.8" y="596" class="st1" width="16" height="4.1"/>
		<rect x="-575.4" y="564.6" class="st1" width="28" height="4"/>
		<rect x="-575.4" y="576.6" class="st1" width="28" height="4"/>
		<g>
			<defs>
				<polygon id="SVGID_1_" points="-494.4,542.2 -541.8,542.2 -541.8,590.1 -467.9,590.1 				"/>
			</defs>
			<clipPath id="SVGID_2_">
				<use xlink:href="#SVGID_1_"  style="overflow:visible;"/>
			</clipPath>
			
				<rect x="-521.7" y="520.6" transform="matrix(-0.7071 -0.7071 0.7071 -0.7071 -1256.7845 641.0886)" class="st31" width="52.3" height="120.5"/>
		</g>
		<rect x="-529.8" y="600.1" class="st1" width="4.1" height="4.1"/>
		<g>
			<path class="st32" d="M-879.5,556h6.9l1.3-8.4h5.6l-1.4,8.4h6.1l1.4-8.4h5.5l-1.4,8.4h5.5v5h-6.3l-1.1,6.6h5.8v4.9h-6.6l-1.4,8.7
				h-5.5l1.4-8.7h-6.1l-1.4,8.7h-5.5l1.4-8.7h-5.8v-4.9h6.6l1.1-6.6h-6.1V556z M-868.9,567.6h6.1l1.1-6.6h-6.1L-868.9,567.6z"/>
			<path class="st32" d="M-842.2,575.9h8.8v-21.2l-7.2,3.1l-2.4-5.1l11.5-5.1h5.4v28.3h7.8v5.3h-23.8V575.9z"/>
			<path class="st32" d="M-797.3,547.1c3.1,0,6.3,0.8,9.3,2.4l-2.7,4.8c-1.8-0.9-4.1-1.6-6.6-1.6c-4.7,0-7.7,3.4-8.2,9.6
				c2.1-1.7,5-2.9,8.1-2.9c6.4,0,10.9,4,10.9,10.8c0,6.2-4.8,11.6-12.8,11.6c-9.5,0-13.6-7.4-13.6-16.5
				C-812.9,552.3-805.4,547.1-797.3,547.1z M-799.1,576.3c3.4,0,5.5-2.7,5.5-6c0-3.5-2.1-5.9-5.4-5.9c-2.6,0-4.8,1.2-6.5,2.8
				C-805.3,572.8-803.3,576.3-799.1,576.3z"/>
			<path class="st32" d="M-777.1,574.3c1.8,1.1,4,1.9,6.7,1.9c4.7,0,7.7-3.4,8.2-9.6c-2.1,1.7-5,2.9-8.1,2.9
				c-6.4,0-10.9-4-10.9-10.8c0-6.2,4.8-11.6,12.8-11.6c9.6,0,13.6,7.4,13.6,16.5c0,13-7.5,18.3-15.6,18.3c-3.3,0-6.8-1-9.7-2.7
				L-777.1,574.3z M-762.2,561.7c-0.1-5.6-2.3-9.1-6.3-9.1c-3.5,0-5.6,2.7-5.6,6c0,3.5,2.1,5.9,5.5,5.9
				C-766.1,564.5-763.8,563.2-762.2,561.7z"/>
			<path class="st32" d="M-732,547.1c4.7,0,8.7,1.5,12.2,4.3l-3.9,5c-2.4-1.9-4.8-3.1-8.1-3.1c-6.2,0-10.3,4.4-10.3,11
				c0,6.9,4,11.4,10.3,11.4c3.4,0,6-1.3,8.3-3.5l4.3,4.6c-3.6,3.4-7.8,5-13,5c-10.3,0-17.3-7.3-17.3-17.6
				C-749.5,554.3-742.2,547.1-732,547.1z"/>
			<path class="st32" d="M-712.4,547.6h24.5v6.3h-17.2v7.4h15.4v5.6h-15.4v7.9h17.4v6.3h-24.7V547.6z"/>
			<path class="st32" d="M-680.1,547.6h24.5v6.3h-17.2v7.4h15.4v5.6h-15.4v7.9h17.4v6.3h-24.7V547.6z"/>
		</g>
	</g>
	<g id="wheels_1_">
		<g id="wheel3_1_">
			<circle class="st1" cx="-555.8" cy="670" r="36"/>
			<circle class="st4" cx="-555.8" cy="670" r="20"/>
			<g>
				<circle class="st1" cx="-541.8" cy="670" r="2"/>
				<circle class="st1" cx="-569.8" cy="670" r="2"/>
				<circle class="st1" cx="-555.8" cy="684" r="2"/>
				<circle class="st1" cx="-555.8" cy="656" r="2"/>
				<circle class="st1" cx="-545.9" cy="660.1" r="2"/>
				<circle class="st1" cx="-565.7" cy="679.9" r="2"/>
				<circle class="st1" cx="-545.9" cy="679.9" r="2"/>
				<circle class="st1" cx="-565.7" cy="660.1" r="2"/>
			</g>
		</g>
		<g id="wheel2_1_">
			<circle class="st1" cx="-759.6" cy="670" r="36"/>
			<circle class="st4" cx="-759.6" cy="671" r="20"/>
			<g>
				<circle class="st1" cx="-745.6" cy="671" r="2"/>
				<circle class="st1" cx="-773.6" cy="671" r="2"/>
				<circle class="st1" cx="-759.6" cy="685" r="2"/>
				<circle class="st1" cx="-759.6" cy="657" r="2"/>
				<circle class="st1" cx="-749.7" cy="661.1" r="2"/>
				<circle class="st1" cx="-769.5" cy="680.9" r="2"/>
				<circle class="st1" cx="-749.7" cy="680.9" r="2"/>
				<circle class="st1" cx="-769.5" cy="661.1" r="2"/>
			</g>
		</g>
		<g id="wheel1_1_">
			<circle class="st1" cx="-852.5" cy="670" r="36"/>
			<circle class="st4" cx="-852.5" cy="671" r="20"/>
			<g>
				<circle class="st1" cx="-838.5" cy="671" r="2"/>
				<circle class="st1" cx="-866.5" cy="671" r="2"/>
				<circle class="st1" cx="-852.5" cy="685" r="2"/>
				<circle class="st1" cx="-852.5" cy="657" r="2"/>
				<circle class="st1" cx="-842.6" cy="661.1" r="2"/>
				<circle class="st1" cx="-862.4" cy="680.9" r="2"/>
				<circle class="st1" cx="-842.6" cy="680.9" r="2"/>
				<circle class="st1" cx="-862.4" cy="661.1" r="2"/>
			</g>
		</g>
	</g>
</g>
<g id="transport">
	<g id="truck_1_">
		<polygon class="st6" points="-154.7,296.1 -524,296.1 -524,259.1 -171.7,259.1 -154.9,276 		"/>
		<path class="st4" d="M-222.9,206.6l-0.1,0.1l-13.9-56.6h-31.2c0,0-19.5-38-63.3-38c-5.1,0-10.6,0-10.6,0v37.9v136.1h119v15h80
			v-88.2L-222.9,206.6z"/>
		<path class="st5" d="M-574.9,3.2h-224c-4.4,0-8.1,3.7-8.1,8.1v191.9h240V11.3C-567,6.8-570.5,3.2-574.9,3.2z"/>
		<path class="st2" d="M-574.9,3.2h-224c-4.4,0-8,3.6-8,8v16h240v-16C-566.9,6.7-570.5,3.2-574.9,3.2z"/>
		<rect x="-750.3" y="87.7" class="st2" width="36" height="7.5"/>
		<polygon class="st2" points="-786.9,47.2 -750.3,68.2 -750.3,74.2 -786.9,95.2 -786.9,86.2 -760.1,71.2 -786.9,56.2 		"/>
		<circle class="st5" cx="-608.9" cy="15.2" r="5"/>
		<circle class="st5" cx="-593.9" cy="15.2" r="5"/>
		<circle class="st5" cx="-578.9" cy="15.2" r="5"/>
		<rect x="-906" y="259.1" class="st6" width="160" height="37"/>
		<rect x="-926.6" y="235.1" class="st4" width="480" height="24"/>
		<rect x="-358" y="67.1" class="st6" width="16" height="192"/>
		<rect x="-867" y="203.1" class="st6" width="360" height="32"/>
		<rect x="-331.9" y="169.8" class="st1" width="28" height="4"/>
		<rect x="-331.9" y="181.8" class="st1" width="28" height="4"/>
		<rect x="-331.9" y="193.8" class="st1" width="28" height="4"/>
		<polygon class="st7" points="-290.4,206.6 -232.1,206.6 -242.9,161.9 -293.4,161.9 		"/>
		<polygon class="st13" points="-290.4,206.6 -232.1,206.6 -242.9,161.9 -245.8,161.9 		"/>
		<polygon class="st1" points="-290.4,216.6 -290.4,220.6 -278.4,220.6 -278.4,224.6 -274.4,224.6 -274.4,220.6 -274.4,216.6 		"/>
		<path class="st5" d="M-268.4,262.1h-78.7c0,0-4.9,6-4.9,17c0,9.7,4.9,17,4.9,17h78.7c0,0,2.4-4.7,2.4-17
			C-266,270.5-268.4,262.1-268.4,262.1z"/>
		<polygon class="st6" points="-165.2,301.2 -191.6,301.2 -227.7,296.1 -243.7,296.1 -243.5,276.2 -225.6,258.3 -183.2,258.3 
			-165.4,276.2 		"/>
		<path class="st1" d="M-139.1,281.2h-10.1v20h10.1c2.2,0,4-1.8,4-4v-12C-135.1,283-136.9,281.2-139.1,281.2z"/>
		<line class="st14" x1="-141" y1="224.1" x2="-147" y2="224.1"/>
		<line class="st14" x1="-141" y1="239.1" x2="-147" y2="239.1"/>
		<line class="st14" x1="-141" y1="254.1" x2="-147" y2="254.1"/>
	</g>
	<g id="wheels">
		<g id="wheel5">
			<circle class="st1" cx="-204.8" cy="295.9" r="34"/>
			<circle class="st4" cx="-204.8" cy="295.9" r="18.9"/>
			<g>
				<circle class="st1" cx="-191.5" cy="295.9" r="1.9"/>
				<circle class="st1" cx="-218" cy="295.9" r="1.9"/>
				<circle class="st1" cx="-204.8" cy="309.1" r="1.9"/>
				<circle class="st1" cx="-204.8" cy="282.7" r="1.9"/>
				<circle class="st1" cx="-195.4" cy="286.6" r="1.9"/>
				<circle class="st1" cx="-214.1" cy="305.3" r="1.9"/>
				<circle class="st1" cx="-195.4" cy="305.3" r="1.9"/>
				<circle class="st1" cx="-214.1" cy="286.6" r="1.9"/>
			</g>
		</g>
		<g id="wheel4">
			<circle class="st1" cx="-403" cy="295.9" r="34"/>
			<circle class="st4" cx="-403" cy="295.9" r="18.9"/>
			<g>
				<circle class="st1" cx="-389.7" cy="295.9" r="1.9"/>
				<circle class="st1" cx="-416.2" cy="295.9" r="1.9"/>
				<circle class="st1" cx="-403" cy="309.1" r="1.9"/>
				<circle class="st1" cx="-403" cy="282.7" r="1.9"/>
				<circle class="st1" cx="-393.6" cy="286.6" r="1.9"/>
				<circle class="st1" cx="-412.3" cy="305.3" r="1.9"/>
				<circle class="st1" cx="-393.6" cy="305.3" r="1.9"/>
				<circle class="st1" cx="-412.3" cy="286.6" r="1.9"/>
			</g>
		</g>
		<g id="wheel3">
			<circle class="st1" cx="-481.3" cy="295.9" r="34"/>
			<circle class="st4" cx="-481.3" cy="295.9" r="18.9"/>
			<g>
				<circle class="st1" cx="-468.1" cy="295.9" r="1.9"/>
				<circle class="st1" cx="-494.5" cy="295.9" r="1.9"/>
				<circle class="st1" cx="-481.3" cy="309.1" r="1.9"/>
				<circle class="st1" cx="-481.3" cy="282.7" r="1.9"/>
				<circle class="st1" cx="-472" cy="286.6" r="1.9"/>
				<circle class="st1" cx="-490.7" cy="305.3" r="1.9"/>
				<circle class="st1" cx="-472" cy="305.3" r="1.9"/>
				<circle class="st1" cx="-490.7" cy="286.6" r="1.9"/>
			</g>
		</g>
		<g id="wheel2">
			<circle class="st1" cx="-786.7" cy="295.9" r="34"/>
			<circle class="st4" cx="-786.7" cy="295.9" r="18.9"/>
			<g>
				<circle class="st1" cx="-773.5" cy="295.9" r="1.9"/>
				<circle class="st1" cx="-800" cy="295.9" r="1.9"/>
				<circle class="st1" cx="-786.7" cy="309.1" r="1.9"/>
				<circle class="st1" cx="-786.7" cy="282.7" r="1.9"/>
				<circle class="st1" cx="-777.4" cy="286.6" r="1.9"/>
				<circle class="st1" cx="-796.1" cy="305.3" r="1.9"/>
				<circle class="st1" cx="-777.4" cy="305.3" r="1.9"/>
				<circle class="st1" cx="-796.1" cy="286.6" r="1.9"/>
			</g>
		</g>
		<g id="wheel1">
			<circle class="st1" cx="-865.1" cy="295.9" r="34"/>
			<circle class="st4" cx="-865.1" cy="295.9" r="18.9"/>
			<g>
				<circle class="st1" cx="-851.9" cy="295.9" r="1.9"/>
				<circle class="st1" cx="-878.3" cy="295.9" r="1.9"/>
				<circle class="st1" cx="-865.1" cy="309.1" r="1.9"/>
				<circle class="st1" cx="-865.1" cy="282.7" r="1.9"/>
				<circle class="st1" cx="-855.7" cy="286.6" r="1.9"/>
				<circle class="st1" cx="-874.4" cy="305.3" r="1.9"/>
				<circle class="st1" cx="-855.7" cy="305.3" r="1.9"/>
				<circle class="st1" cx="-874.4" cy="286.6" r="1.9"/>
			</g>
		</g>
	</g>
</g>
</svg>
