<?xml version="1.0" encoding="utf-8"?>
<!-- Generator: Adobe Illustrator 19.1.0, SVG Export Plug-In . SVG Version: 6.00 Build 0)  -->
<svg version="1.1" id="Layer_1" xmlns="http://www.w3.org/2000/svg" xmlns:xlink="http://www.w3.org/1999/xlink" x="0px" y="0px"
	 viewBox="-49 -824 1100 1280" style="enable-background:new -49 -824 1100 1280;" xml:space="preserve">
<style type="text/css">
	.st0{fill:none;stroke:#3A3A59;stroke-width:8;stroke-linecap:round;stroke-miterlimit:10;}
	.st1{fill:none;stroke:#0E69A1;stroke-width:8;stroke-linejoin:round;stroke-miterlimit:10;}
	.st2{fill:#0E69A1;}
	.st3{fill:#169CEE;}
	.st4{fill:none;stroke:#0E69A1;stroke-width:8;stroke-miterlimit:10;}
	.st5{fill:none;stroke:#3A3A59;stroke-width:12;stroke-miterlimit:10;}
	.st6{fill:none;stroke:#3A3A59;stroke-width:12;stroke-linecap:round;stroke-linejoin:round;stroke-miterlimit:10;}
	.st7{fill:#4BBC6E;}
	.st8{fill:#555574;}
	.st9{opacity:0.3;fill:#FFFFFF;enable-background:new    ;}
	.st10{fill:none;stroke:#0E69A1;stroke-width:8;stroke-linecap:round;stroke-miterlimit:10;}
	.st11{fill:#3A3A59;}
	.st12{fill:#EF3F61;}
	.st13{fill:#DB3B61;}
</style>
<g id="crane">
	<g id="crane_1_">
		<g>
			<line class="st0" x1="816.7" y1="-330.4" x2="355.1" y2="-244.2"/>
			<polyline class="st1" points="353.5,-244.9 409.5,-219.9 465.5,-248.9 521.5,-219.9 577.5,-250.9 633.5,-219.9 689.5,-253.9 
				745.5,-219.9 			"/>
			<line class="st0" x1="1044" y1="-247.9" x2="816.7" y2="-330.4"/>
			<polyline class="st1" points="1046.9,-250.9 990.9,-219.9 934.9,-253.9 878.9,-219.9 			"/>
			<rect x="349.4" y="-219.9" class="st2" width="701.5" height="24"/>
			<polygon class="st2" points="850.3,189.2 850.3,9.2 844.3,9.2 844.3,-195.8 784.3,-195.8 784.3,9.2 778.3,9.2 778.3,189.2 
				772.3,189.2 772.3,369.2 778.3,369.2 784.3,369.2 844.3,369.2 850.3,369.2 856.3,369.2 856.3,189.2 			"/>
			<polygon class="st3" points="925.5,405.9 925.5,360 696.6,360 696.6,405.9 650.1,405.9 650.1,456 696.6,456 925.5,456 970.1,456 
				970.1,405.9 			"/>
			<line class="st1" x1="878.9" y1="-254.9" x2="745.5" y2="-256.9"/>
			<polygon class="st1" points="934.9,-253.9 878.9,-255.9 878.9,-199.9 934.9,-199.9 			"/>
			<polygon class="st1" points="990.9,-251.9 934.9,-253.9 934.9,-199.9 990.9,-199.9 			"/>
			<polygon class="st1" points="1046.9,-250.9 990.9,-251.9 990.9,-199.9 1046.9,-199.9 			"/>
			<polygon class="st1" points="689.5,-253.9 745.5,-255.9 745.5,-199.9 689.5,-199.9 			"/>
			<polygon class="st1" points="633.5,-251.9 689.5,-253.9 689.5,-199.9 633.5,-199.9 			"/>
			<polygon class="st1" points="577.5,-250.9 633.5,-251.9 633.5,-199.9 577.5,-199.9 			"/>
			<polygon class="st1" points="521.5,-249.9 577.5,-250.9 577.5,-199.9 521.5,-199.9 			"/>
			<polygon class="st1" points="465.5,-248.9 521.5,-249.9 521.5,-199.9 465.5,-199.9 			"/>
			<polygon class="st1" points="409.5,-246.9 465.5,-248.9 465.5,-199.9 409.5,-199.9 			"/>
			<polygon class="st1" points="353.5,-244.9 409.5,-246.9 409.5,-199.9 353.5,-199.9 			"/>
			<polygon class="st4" points="816.7,-319.3 848.6,-245.3 784.6,-245.3 			"/>
			<line class="st0" x1="358.6" y1="-203.9" x2="1044" y2="-203.9"/>
			<polygon class="st1" points="816.6,-258.1 805.5,-293.7 827.7,-293.7 			"/>
			<g>
				<polyline class="st5" points="1031.9,462.8 929.1,360 696.6,360 				"/>
				<polyline class="st6" points="702.7,360 702.7,324 931.1,324 1030.2,423.1 1030.2,457.8 				"/>
				<line class="st5" x1="893.7" y1="360" x2="893.7" y2="324"/>
				<path class="st5" d="M872.6,324"/>
				<path class="st5" d="M872.6,360"/>
				<line class="st5" x1="861.9" y1="360" x2="861.9" y2="324"/>
				<line class="st5" x1="830" y1="360" x2="830" y2="324"/>
				<line class="st5" x1="925.5" y1="360" x2="925.5" y2="324"/>
				<line class="st5" x1="798.2" y1="360" x2="798.2" y2="324"/>
				<line class="st5" x1="1004" y1="434.3" x2="1004" y2="398.3"/>
				<line class="st5" x1="951.7" y1="382" x2="951.7" y2="346"/>
				<line class="st5" x1="977.8" y1="406.6" x2="977.8" y2="370.6"/>
				<line class="st5" x1="766.3" y1="360" x2="766.3" y2="324"/>
				<line class="st5" x1="734.5" y1="360" x2="734.5" y2="324"/>
				<path class="st5" d="M1023.2,413.8"/>
				<path class="st5" d="M1023.2,456"/>
				<path class="st5" d="M889.9,333.4"/>
			</g>
			<polygon class="st3" points="750.2,-278.4 731.3,-223.5 745.7,-195.9 882.9,-195.9 882.9,-260.4 821.1,-260.4 803.3,-279.1 			
				"/>
			<polygon class="st7" points="757.2,-270.9 741.1,-223 798.3,-223 798.3,-271.6 			"/>
			<rect x="838.9" y="-236.9" class="st8" width="36" height="4"/>
			<rect x="838.9" y="-225" class="st8" width="36" height="4"/>
			<rect x="838.9" y="-248.9" class="st8" width="36" height="4"/>
			<polygon class="st9" points="789.6,-271.5 741.1,-223 798.3,-223 798.3,-271.6 			"/>
			<line class="st10" x1="816.7" y1="-319.3" x2="816.7" y2="-335.3"/>
		</g>
		<g>
			<rect x="55.8" y="116.1" class="st3" width="340" height="340"/>
			<polygon class="st2" points="263.6,232.5 198.9,344.5 172,297.9 96.4,428.8 150.3,428.8 247.5,428.8 376.9,428.8 			"/>
			<circle class="st2" cx="127.8" cy="188.1" r="34.2"/>
		</g>
		<g>
			<rect x="-34.2" y="276.1" class="st8" width="180" height="180"/>
			<rect x="-22.2" y="288.1" class="st3" width="156" height="58"/>
			<rect x="17.8" y="356.1" class="st3" width="103.9" height="10"/>
			<rect x="-22.2" y="436.1" class="st3" width="113.7" height="10"/>
			<rect x="-22.2" y="416.1" class="st3" width="119.4" height="10"/>
			<rect x="-22.2" y="396.1" class="st3" width="137.5" height="10"/>
			<rect x="17.8" y="376.1" class="st3" width="87.5" height="10"/>
			<rect x="-22.2" y="356.1" class="st3" width="30" height="30"/>
		</g>
		<path class="st11" d="M532.6,419.9v-408c0-19.9-16.1-36-36-36H332.5c-19.9,0-36,16.1-36,36v408c0,19.9,16.1,36,36,36h164.1
			C516.5,455.9,532.6,439.8,532.6,419.9z"/>
		<circle class="st12" cx="413.8" cy="428.9" r="17"/>
		<rect x="307.3" y="30.7" class="st12" width="213.8" height="374.3"/>
		<rect x="320.8" y="41" class="st13" width="187.5" height="187.5"/>
	</g>
</g>
</svg>
