<?xml version="1.0" encoding="utf-8"?>
<!-- Generator: Adobe Illustrator 19.1.0, SVG Export Plug-In . SVG Version: 6.00 Build 0)  -->
<svg version="1.1" id="Layer_1" xmlns="http://www.w3.org/2000/svg" xmlns:xlink="http://www.w3.org/1999/xlink" x="0px" y="0px"
	 viewBox="-246 -820 706 1280" style="enable-background:new -246 -820 706 1280;" xml:space="preserve">
<style type="text/css">
	.st0{fill:none;stroke:#169CEE;stroke-width:9;stroke-linecap:round;stroke-miterlimit:10;}
	.st1{fill:#555574;}
	.st2{fill:none;stroke:#555574;stroke-width:8;stroke-linecap:round;stroke-linejoin:round;stroke-miterlimit:10;}
	.st3{fill:#EF3F61;}
	.st4{fill:#169CEE;}
	.st5{fill:#3A3A59;}
	.st6{fill:none;stroke:#555574;stroke-width:8;stroke-linecap:round;stroke-miterlimit:10;}
	.st7{opacity:0.3;fill:#FFFFFF;enable-background:new    ;}
	.st8{fill:#0E69A1;}
	.st9{fill:none;stroke:#0E69A1;stroke-width:8;stroke-linecap:round;stroke-miterlimit:10;}
	.st10{fill:none;stroke:#3A3A59;stroke-width:8;stroke-miterlimit:10;}
</style>
<g id="hoist">
	<g id="hoist_1_">
		<line class="st0" x1="-133.9" y1="-337" x2="-133.9" y2="50.4"/>
		<rect x="228.7" y="192.6" class="st1" width="161.6" height="80.5"/>
		<polygon class="st2" points="386.2,192.6 231.2,192.6 -135.9,-340 		"/>
		<path class="st3" d="M-135.8,50.4c-60.7,0-110.1,49.4-110.1,110.1s49.4,110.1,110.1,110.1s110.1-49.4,110.1-110.1
			S-75.1,50.4-135.8,50.4z M-135.8,68.2c49.7,0,90.3,39.5,92.2,88.7h-21.1l-35.8-44.3l-51.4,61.4l-37.7-41.2l-21.2,21.2h-17
			C-224.5,106.2-184.5,68.2-135.8,68.2z M-135.8,252.8c-48.3,0-88-37.2-91.9-84.5h22.8l14.8-14.8l38.6,42.2l50.8-60.6l29.2,36.1
			h27.4C-49.5,217.1-88.5,252.8-135.8,252.8z"/>
		<polygon class="st4" points="404.5,366.1 105.5,366.1 105.5,299 194.7,205.1 285.5,205.1 320,273.1 404.5,273.1 		"/>
		<polygon class="st3" points="246.6,299 125,299 204.7,215.1 245.9,215.1 		"/>
		<polygon class="st3" points="246.6,299 125,299 204.7,215.1 246.6,215.1 		"/>
		<path class="st1" d="M418,460H83.9c-22.7,0-41.2-18.5-41.2-41.2l0,0c0-22.7,18.5-41.2,41.2-41.2H418c22.7,0,41.2,18.5,41.2,41.2
			l0,0C459.2,441.5,440.6,460,418,460z"/>
		<path class="st5" d="M418,448H83.9c-16.1,0-29.2-13.1-29.2-29.2l0,0c0-16.1,13.1-29.2,29.2-29.2H418c16.1,0,29.2,13.1,29.2,29.2
			l0,0C447.2,434.9,434,448,418,448z"/>
		<rect x="118.5" y="366.1" class="st5" width="267.3" height="11.5"/>
		<line class="st6" x1="-135.9" y1="-340" x2="306.2" y2="192.6"/>
		<polygon class="st7" points="206.7,299 152.8,298.9 236.6,215.1 246.6,215.1 246.6,259.1 		"/>
		<rect x="320" y="289.6" class="st8" width="64" height="8"/>
		<rect x="320" y="313.6" class="st8" width="64" height="8"/>
		<rect x="320" y="337.6" class="st8" width="64" height="8"/>
		<polygon class="st8" points="216.6,309 216.6,315 216.6,321 222.6,321 222.6,315 236.6,315 236.6,309 		"/>
		<line class="st9" x1="109.7" y1="319.1" x2="103.7" y2="319.1"/>
		<line class="st9" x1="109.7" y1="351.1" x2="103.7" y2="351.1"/>
		<line class="st9" x1="109.7" y1="335.1" x2="103.7" y2="335.1"/>
		<line class="st2" x1="386.2" y1="192.6" x2="153.1" y2="79.3"/>
		<line class="st2" x1="269.9" y1="73.6" x2="89" y2="-13.8"/>
		<line class="st2" x1="183.9" y1="-13.8" x2="41.6" y2="-82.5"/>
		<line class="st2" x1="112.8" y1="-86.3" x2="2.2" y2="-139.7"/>
		<line class="st2" x1="60.2" y1="-139.7" x2="-26.8" y2="-181.7"/>
		<line class="st2" x1="16.7" y1="-181.7" x2="-48.5" y2="-213.2"/>
		<line class="st2" x1="-15.2" y1="-216.9" x2="-68.9" y2="-242.8"/>
		<line class="st2" x1="231.2" y1="192.6" x2="269.9" y2="75.1"/>
		<line class="st2" x1="153.1" y1="79.8" x2="183.9" y2="-13.8"/>
		<line class="st2" x1="89" y1="-13.8" x2="112.8" y2="-86.3"/>
		<line class="st2" x1="41.6" y1="-82.5" x2="60.4" y2="-139.7"/>
		<line class="st2" x1="2.2" y1="-139.7" x2="16.8" y2="-184.3"/>
		<line class="st2" x1="-26.8" y1="-181.7" x2="-15.2" y2="-216.9"/>
		<line class="st2" x1="-48.5" y1="-213.2" x2="-39.2" y2="-241.4"/>
		<circle class="st5" cx="-133.9" cy="50.4" r="10"/>
	</g>
	<g id="wheels_2_">
		<g id="wheel5_1_">
			<circle class="st8" cx="419.2" cy="418.8" r="22"/>
			<line class="st10" x1="406.6" y1="400.8" x2="431.8" y2="436.8"/>
		</g>
		<g id="wheel4_1_">
			<circle class="st8" cx="335.4" cy="418.8" r="22"/>
			<line class="st10" x1="351.7" y1="404.1" x2="319" y2="433.5"/>
		</g>
		<g id="wheel3_2_">
			<circle class="st8" cx="251.5" cy="418.8" r="22"/>
			<line class="st10" x1="232.5" y1="407.8" x2="270.6" y2="429.8"/>
		</g>
		<g id="wheel2_2_">
			<circle class="st8" cx="167.7" cy="418.8" r="22"/>
			<line class="st10" x1="152.2" y1="403.3" x2="183.3" y2="434.4"/>
		</g>
		<g id="wheel1_2_">
			<circle class="st8" cx="83.9" cy="418.8" r="22"/>
			<line class="st10" x1="96.5" y1="400.8" x2="71.3" y2="436.8"/>
		</g>
	</g>
</g>
</svg>
