<?xml version="1.0" encoding="utf-8"?>
<!-- Generator: Adobe Illustrator 19.1.0, SVG Export Plug-In . SVG Version: 6.00 Build 0)  -->
<svg version="1.1" id="Layer_1" xmlns="http://www.w3.org/2000/svg" xmlns:xlink="http://www.w3.org/1999/xlink" x="0px" y="0px"
	 viewBox="50 -594 1300 1300" style="enable-background:new 50 -594 1300 1300;" xml:space="preserve">
<style type="text/css">
	.st0{fill:#555574;}
	.st1{fill:#169CEE;}
	.st2{fill:#EF3F61;}
	.st3{fill:#4BBC6E;}
</style>
<g id="laptop">
	<g id="laptop_1_">
		<g>
			<path class="st0" d="M1281.2,657.7V202c0-19.9-16.1-36-36-36h-691c-19.9,0-36,16.1-36,36v455.7h-90.6V670c0,19.9,16.1,36,36,36
				h850.7c19.9,0,36-16.1,36-36v-12.3H1281.2z"/>
			<rect x="550" y="202.9" class="st1" width="699.7" height="437.5"/>
		</g>
		<path class="st1" d="M290.8,476.2l4.6-18.1l-15.1-5.2c0.4-7.6-0.7-15-3.2-21.9l13.1-9.3l-9.5-16.1l-14.5,7.1
			c-4.9-5.4-10.8-9.8-17.6-13l2.7-16.1l-18.1-4.6l-5.4,15.6c-7.4-0.4-14.7,0.8-21.4,3.2l-9.6-13.6l-16.1,9.5l7.3,15.1
			c-5.3,4.8-9.6,10.5-12.8,17.2l-16.6-2.8l-4.6,18.1l15.9,5.5c-0.4,7.3,0.7,14.5,3,21.2l-13.7,9.7l9.5,16.1l15-7.3
			c4.7,5.4,10.6,9.8,17.2,13.1l-2.7,16.2l18.1,4.6l5.3-15.4c7.5,0.5,14.9-0.6,21.7-3l9.4,13.2l16.1-9.5l-7-14.4
			c5.5-4.8,10.1-10.8,13.3-17.7L290.8,476.2z M220.1,469.2c-10.7-2.7-17.2-13.7-14.5-24.4c2.7-10.7,13.7-17.2,24.4-14.5
			s17.2,13.7,14.5,24.4C241.8,465.5,230.9,471.9,220.1,469.2z"/>
		<g>
			<path id="XMLID_1_" class="st2" d="M236.1,688.2l65.3-253.8c2.8-10.7,16.1-14.5,24-6.7l187.1,183.5c7.9,7.8,4.5,21.2-6.2,24.2
				l-252.4,70.3C243.3,708.7,233.4,699,236.1,688.2z"/>
			<path class="st0" d="M404.9,592.2c-10.6,0.2-19.1,8.5-19.7,18.9l-47.5,7.4c-2.2-6.4-6.9-11.7-12.9-14.7l13.2-46.2
				c1.2,0.1,2.4,0.2,3.7,0.2c15-0.3,26.9-12.7,26.6-27.7s-12.7-26.9-27.7-26.6s-26.9,12.7-26.6,27.7c0.2,10.7,6.5,19.7,15.6,24
				l-13.2,46.2c-1-0.1-2.1-0.2-3.2-0.1c-14,0.3-25.2,11.9-24.9,25.9s11.9,25.2,25.9,24.9c13.7-0.3,24.7-11.4,24.9-24.9l47.6-7.4
				c3,7.6,10.5,13,19.2,12.8c11.1-0.2,20-9.4,19.8-20.6C425.2,600.8,416,591.9,404.9,592.2z"/>
		</g>
		<g>
			<circle class="st0" cx="154.9" cy="605.9" r="100"/>
			<path class="st3" d="M165.3,548.5c-25.2,0-45.6,20.5-45.6,45.6c0,10.3,3.4,19.8,9.2,27.4l-27.6,27.6c-3.2,3.2-3.2,8.4,0,11.7
				c3.2,3.2,8.4,3.2,11.7,0l28.1-28.1c7,4.4,15.4,7,24.3,7c25.2,0,45.6-20.5,45.6-45.6S190.5,548.5,165.3,548.5z M165.3,628.2
				c-18.8,0-34.1-15.3-34.1-34.1s15.3-34.1,34.1-34.1s34.1,15.3,34.1,34.1S184.1,628.2,165.3,628.2z"/>
		</g>
	</g>
</g>
</svg>
