<?xml version="1.0" encoding="utf-8"?>
<!-- Generator: Adobe Illustrator 19.1.0, SVG Export Plug-In . SVG Version: 6.00 Build 0)  -->
<svg version="1.1" id="Layer_1" xmlns="http://www.w3.org/2000/svg" xmlns:xlink="http://www.w3.org/1999/xlink" x="0px" y="0px"
	 viewBox="50 -594 1300 1300" style="enable-background:new 50 -594 1300 1300;" xml:space="preserve">
<style type="text/css">
	.st0{fill:#4BBC6E;}
</style>
<path class="st0" d="M967.7,421.4c0.2-0.2,0.3-0.5,0.5-0.7c12.2-18.7,14.7-36.2,7.1-49.3c-6.9-12-21.6-18.6-41.2-18.6
	c-1.9,0-3.9,0.1-5.8,0.2c-9.8-19.5-23.7-31.6-39.5-31.6S859,333.5,849.3,353c-2-0.1-3.9-0.2-5.8-0.2c-19.7,0-34.3,6.6-41.2,18.6
	c-7.9,13.7-4.4,31.8,7.6,50c-12,18.2-15.5,36.3-7.6,50c6.9,12,21.6,18.6,41.2,18.6c1.9,0,3.9-0.1,5.8-0.2
	c9.8,19.5,23.7,31.6,39.5,31.6s29.8-12.1,39.5-31.6c2,0.1,3.9,0.2,5.8,0.2c19.7,0,34.3-6.6,41.2-18.6c7.6-13.1,5-30.6-7.1-49.3
	C968,421.8,967.8,421.6,967.7,421.4z M934.1,364.9c15.2,0,26.1,4.5,30.7,12.6c4.7,8.2,2.9,20.3-4.9,33.6
	c-5.6-6.7-12.3-13.2-19.7-19.3c-1.6-9.7-3.9-18.7-6.8-26.9C933.5,364.9,933.8,364.9,934.1,364.9z M909.5,457.4
	c-6.8,4-13.8,7.4-20.8,10.3c-7-2.9-14-6.3-20.8-10.3c-7.1-4.1-13.5-8.4-19.3-12.9c-1-7.3-1.5-15-1.5-23.2s0.5-15.9,1.5-23.2
	c5.8-4.5,12.3-8.8,19.3-12.9c6.8-4,13.8-7.4,20.8-10.3c7,2.9,14,6.3,20.8,10.3c6.9,4,13.4,8.4,19.4,13c0.9,7.2,1.5,15,1.5,23.1
	s-0.5,15.8-1.5,23.1C922.9,449.1,916.4,453.4,909.5,457.4z M925.6,461.6c-1.4,5.5-3,10.5-4.9,15.2c-5-0.7-10.2-1.9-15.5-3.4
	c3.5-1.7,6.9-3.6,10.3-5.5C919,465.9,922.4,463.8,925.6,461.6z M872.1,473.5c-5.3,1.5-10.5,2.6-15.5,3.4c-1.8-4.6-3.5-9.7-4.9-15.1
	c3.2,2.1,6.6,4.2,10.1,6.2C865.2,469.9,868.7,471.7,872.1,473.5z M835.3,433.2c-4-3.9-7.6-7.9-10.7-11.8c3.1-3.9,6.7-7.9,10.7-11.8
	c-0.2,3.9-0.4,7.8-0.4,11.8S835.1,429.3,835.3,433.2z M851.8,381c1.4-5.5,3-10.5,4.9-15.1c5,0.7,10.2,1.9,15.5,3.4
	c-3.5,1.7-6.9,3.6-10.3,5.5C858.3,376.8,855,378.9,851.8,381z M905.2,369.3c5.3-1.5,10.5-2.6,15.5-3.4c1.9,4.6,3.5,9.7,4.9,15.2
	c-3.3-2.2-6.6-4.3-10.1-6.3C912.1,372.8,908.7,371,905.2,369.3z M942.1,409.7c3.9,3.8,7.5,7.7,10.6,11.7c-3.1,4-6.7,7.9-10.6,11.7
	c0.2-3.8,0.4-7.7,0.4-11.7C942.4,417.4,942.3,413.5,942.1,409.7z M888.7,333.5c9.3,0,19,7.6,26.7,21.1c-8.6,1.5-17.6,4.1-26.7,7.5
	c-9-3.4-18-5.9-26.7-7.5C869.7,341.1,879.3,333.5,888.7,333.5z M812.6,377.4c4.7-8.1,15.6-12.6,30.7-12.6c0.2,0,0.5,0,0.8,0
	c-2.9,8.1-5.3,17.1-6.8,26.8c-7.6,6.2-14.2,12.7-19.8,19.3C809.7,397.6,807.9,385.5,812.6,377.4z M843.3,477.9
	c-15.2,0-26.1-4.5-30.7-12.6c-4.7-8.1-2.9-20.2,4.9-33.6c5.6,6.6,12.2,13.1,19.8,19.3c1.6,9.7,3.9,18.7,6.8,26.8
	C843.8,477.9,843.6,477.9,843.3,477.9z M888.7,509.3c-9.3,0-19-7.6-26.7-21.1c8.6-1.5,17.6-4.1,26.7-7.5c9,3.4,18,5.9,26.7,7.5
	C907.7,501.6,898,509.3,888.7,509.3z M964.8,465.3c-4.7,8.1-15.6,12.6-30.7,12.6c-0.2,0-0.5,0-0.8,0c2.9-8.1,5.3-17.2,6.8-26.9
	c7.5-6.1,14.1-12.6,19.7-19.3C967.7,445,969.5,457.1,964.8,465.3z"/>
<circle class="st0" cx="888.7" cy="421.4" r="19"/>
</svg>
