<?xml version="1.0" encoding="utf-8"?>
<!-- Generator: Adobe Illustrator 19.1.0, SVG Export Plug-In . SVG Version: 6.00 Build 0)  -->
<svg version="1.1" id="Layer_1" xmlns="http://www.w3.org/2000/svg" xmlns:xlink="http://www.w3.org/1999/xlink" x="0px" y="0px"
	 viewBox="50 -594 1300 1300" style="enable-background:new 50 -594 1300 1300;" xml:space="preserve">
<style type="text/css">
	.st0{fill:#0E69A1;}
	.st1{fill:#169CEE;}
</style>
<g id="laptopContent">
	<rect x="549.7" y="202.8" class="st0" width="699.7" height="80"/>
	<rect x="845.6" y="307.8" class="st0" width="240" height="120"/>
	<rect x="713.6" y="307.8" class="st0" width="120" height="120"/>
	<rect x="713.6" y="441.6" class="st0" width="372" height="24"/>
	<rect x="713.6" y="477.8" class="st0" width="324.8" height="24"/>
	<rect x="713.6" y="514.5" class="st0" width="290.1" height="24"/>
	<rect x="713.6" y="550.8" class="st0" width="347.4" height="24"/>
	<rect x="719.6" y="586.8" class="st0" width="267.3" height="24"/>
	<rect x="713.6" y="623" class="st0" width="312.7" height="17.3"/>
	<path class="st1" d="M1187.4,266.8h-528c-4.4,0-8-3.6-8-8v-12.1c0-4.4,3.6-8,8-8h528c4.4,0,8,3.6,8,8v12.1
		C1195.4,263.2,1191.8,266.8,1187.4,266.8z"/>
	<circle class="st1" cx="623.7" cy="252.7" r="14"/>
	<circle class="st1" cx="587.7" cy="252.7" r="14"/>
	<circle class="st1" cx="1231.4" cy="220.8" r="6"/>
	<circle class="st1" cx="1195.4" cy="220.8" r="6"/>
	<circle class="st1" cx="1213.4" cy="220.8" r="6"/>
	<path class="st1" d="M1227.4,266.7h-12c-4.4,0-8-3.6-8-8v-12c0-4.4,3.6-8,8-8h12c4.4,0,8,3.6,8,8v12
		C1235.4,263.1,1231.8,266.7,1227.4,266.7z"/>
</g>
</svg>
