<?xml version="1.0" encoding="utf-8"?>
<!-- Generator: Adobe Illustrator 19.1.0, SVG Export Plug-In . SVG Version: 6.00 Build 0)  -->
<svg version="1.1" id="Layer_1" xmlns="http://www.w3.org/2000/svg" xmlns:xlink="http://www.w3.org/1999/xlink" x="0px" y="0px"
	 viewBox="50 -594 1300 1300" style="enable-background:new 50 -594 1300 1300;" xml:space="preserve">
<style type="text/css">
	.st0{fill:none;stroke:#3B2C48;stroke-width:18;stroke-linecap:round;stroke-miterlimit:10;}
	.st1{fill:none;stroke:#0E69A1;stroke-width:12;stroke-linecap:round;stroke-miterlimit:10;}
	.st2{fill:none;stroke:#0E69A1;stroke-width:8;stroke-linecap:round;stroke-miterlimit:10;}
	.st3{fill:#555574;}
	.st4{fill:#159CEE;}
</style>
<g id="load">
	<line class="st0" x1="888.7" y1="333.5" x2="888.7" y2="303.9"/>
	<line class="st1" x1="888.7" y1="245.5" x2="888.7" y2="-634.5"/>
	<line class="st2" x1="888.7" y1="255.5" x2="888.7" y2="304.9"/>
	<path class="st3" d="M907.3,247.6l-13.2,22.9c-2.4,4.1-8.4,4.1-10.8,0l-13.2-22.9c-2.4-4.1,0.6-9.3,5.4-9.3H902
		C906.7,238.3,909.7,243.5,907.3,247.6z"/>
	<path class="st3" d="M900.7,294.9h-24c-2.2,0-4,1.8-4,4v12c0,2.2,1.8,4,4,4h24c2.2,0,4-1.8,4-4v-12
		C904.7,296.7,902.9,294.9,900.7,294.9z"/>
	<circle class="st4" cx="888.7" cy="266" r="3.4"/>
	<circle class="st4" cx="876.7" cy="298.9" r="2"/>
	<circle class="st4" cx="900.7" cy="298.9" r="2"/>
	<circle class="st4" cx="876.7" cy="310.8" r="2"/>
	<circle class="st4" cx="900.7" cy="310.8" r="2"/>
	<circle class="st4" cx="878.7" cy="246" r="3.4"/>
	<circle class="st4" cx="898.7" cy="246" r="3.4"/>
</g>
</svg>
