<?xml version="1.0" encoding="utf-8"?>
<!-- Generator: Adobe Illustrator 19.1.0, SVG Export Plug-In . SVG Version: 6.00 Build 0)  -->
<svg version="1.1" id="Layer_1" xmlns="http://www.w3.org/2000/svg" xmlns:xlink="http://www.w3.org/1999/xlink" x="0px" y="0px"
	 viewBox="-319 -984 560 1280" style="enable-background:new -319 -984 560 1280;" xml:space="preserve">
<style type="text/css">
	.st0{fill:none;stroke:#3A3A59;stroke-width:12;stroke-miterlimit:10;}
	.st1{fill:#3A3A59;}
	.st2{fill:#0E69A1;}
	.st3{fill:#169CEE;}
	.st4{fill:#F15732;}
	.st5{fill:#FFFFFF;}
	.st6{fill:#555574;}
	.st7{fill:#4BBC6E;}
	.st8{fill:#40A565;}
	.st9{fill:#EF3F61;}
	.st10{fill:#424259;}
</style>
<g id="phones">
	<g>
		<line class="st0" x1="-66.8" y1="295.9" x2="-235.8" y2="192.5"/>
		<line class="st0" x1="-235.8" y1="295.9" x2="-66.8" y2="192.5"/>
		<line class="st0" x1="-66.8" y1="160.8" x2="-235.8" y2="57.4"/>
		<line class="st0" x1="-235.8" y1="160.8" x2="-66.8" y2="57.4"/>
		<rect x="-66.8" y="25.9" class="st1" width="9.9" height="269.8"/>
		<rect x="-245.6" y="25.9" class="st1" width="9.9" height="269.8"/>
		<rect x="-70.6" y="265" class="st2" width="17.4" height="30.9"/>
		<rect x="-249.4" y="265" class="st2" width="17.4" height="30.9"/>
		<rect x="-245.6" y="181.8" class="st2" width="188.7" height="10.7"/>
		<rect x="-258.1" y="160.8" class="st3" width="213.4" height="21.5"/>
		<rect x="-245.6" y="46.7" class="st2" width="188.6" height="10.7"/>
		<rect x="-258.1" y="25.7" class="st3" width="213.4" height="21.5"/>
		<g>
			<path class="st4" d="M-259.2,212.7c13.2,8.2,17.5,25.7,9.7,39.1c-4.7,8.2-12.8,13.1-21.4,14.2c-4.3,0.6-8.2,3.2-10.5,6.8l-4,6.2
				l0,0c-4,6.3-12.3,8.1-18.6,4.1s-8.1-12.3-4.1-18.6l0,0l4.1-6.4c2.4-3.7,2.8-8.2,1.6-12.4c-2.4-7.8-1.4-16.6,3.3-24.1
				C-290.4,208.2-272.7,204.3-259.2,212.7z"/>
			<circle class="st5" cx="-279.6" cy="220.6" r="7.5"/>
			
				<rect x="-315.7" y="270.2" transform="matrix(0.8421 0.5394 -0.5394 0.8421 103.4414 207.2241)" class="st6" width="27.2" height="20.1"/>
		</g>
	</g>
	<g>
		<g>
			<path class="st1" d="M100.2,296H-85.3c-17.7,0-32-14.3-32-32v-416c0-17.7,14.3-32,32-32h185.5c17.7,0,32,14.3,32,32v416
				C132.2,281.7,117.9,296,100.2,296z"/>
			<path class="st7" d="M31.9,275.7h-49c-5,0-9.2-4.1-9.2-9.2v-6.1c0-5,4.1-9.2,9.2-9.2h49c5,0,9.2,4.1,9.2,9.2v6.1
				C41.1,271.6,37,275.7,31.9,275.7z"/>
			<rect x="-104.3" y="-143.9" class="st7" width="223.5" height="378.6"/>
		</g>
		<path class="st8" d="M36.2,30c-6.3-6.3-14.7-9.8-23.5-9.8c-5.2,0-10.2,1.2-14.7,3.5c-4.5-2.2-9.5-3.5-14.7-3.5
			c-8.9,0-17.3,3.5-23.5,9.8c-11,11-12.6,27.8-5,40.6l-3,13.3c-0.2,0.7,0.5,1.3,1.2,1.2l13.3-3c5.1,3.1,11,4.7,17.1,4.7
			c5.2,0,10.2-1.2,14.7-3.5c4.5,2.2,9.5,3.5,14.7,3.5c6.1,0,12-1.7,17.1-4.7l13.3,3c0.7,0.2,1.3-0.5,1.2-1.2l-3-13.4
			C48.9,57.8,47.2,41,36.2,30z M-6,76.1c-0.5,0.5-1.1,0.7-1.8,0.7c-0.6,0-1.3-0.2-1.8-0.7l-0.2-0.2c-12.3-12.3-12.3-32.4,0-44.7
			c1-1,2.6-1,3.5,0c1,1,1,2.6,0,3.5c-10.4,10.4-10.4,27.3,0,37.7l0.2,0.2C-5,73.6-5,75.1-6,76.1z M30.3,71.2
			c-4.7,4.7-11,7.3-17.7,7.3c-2.2,0-4.4-0.3-6.5-0.9c0.2-0.2,0.4-0.3,0.6-0.5c13-13,13-34.1,0-47.1c-0.2-0.2-0.4-0.4-0.6-0.5
			c2.1-0.6,4.3-0.9,6.5-0.9c6.7,0,12.9,2.6,17.7,7.3C40,45.6,40,61.5,30.3,71.2z"/>
	</g>
	<g>
		<g>
			<path class="st9" d="M237.2,296H25.6c-2.1,0-3.8-1.7-3.8-3.8v-398.6c0-2.1,1.7-3.8,3.8-3.8h211.6c2.1,0,3.8,1.7,3.8,3.8v398.6
				C241,294.3,239.3,296,237.2,296z"/>
			<circle class="st6" cx="131.4" cy="261.6" r="20.4"/>
			<rect x="21.8" y="-67.8" class="st6" width="219.2" height="294.3"/>
		</g>
		<g>
			<g>
				<path class="st10" d="M156.8,84.8c-16.3,0-29.6-13.3-29.6-29.6c0-3,0.4-5.8,1.3-8.5H99.6c-8.9,0-16.1,7.2-16.1,16.1V110
					c0,8.9,7.2,16.1,16.1,16.1h47.2c8.9,0,16.1-7.2,16.1-16.1V84.2C160.9,84.6,158.9,84.8,156.8,84.8z"/>
			</g>
			<path class="st10" d="M156.8,32.6c-12.4,0-22.6,10.1-22.6,22.6c0,12.4,10.1,22.6,22.6,22.6c12.4,0,22.6-10.1,22.6-22.6
				C179.4,42.7,169.3,32.6,156.8,32.6z M156.8,67.2c-6.6,0-12-5.4-12-12s5.4-12,12-12s12,5.4,12,12
				C168.9,61.8,163.5,67.2,156.8,67.2z"/>
		</g>
	</g>
</g>
</svg>
