<?xml version="1.0" encoding="utf-8"?>
<!-- Generator: Adobe Illustrator 19.1.0, SVG Export Plug-In . SVG Version: 6.00 Build 0)  -->
<svg version="1.1" id="Layer_1" xmlns="http://www.w3.org/2000/svg" xmlns:xlink="http://www.w3.org/1999/xlink" x="0px" y="0px"
	 viewBox="3720 -584 8640.1 1280" style="enable-background:new 3720 -584 8640.1 1280;" xml:space="preserve">
<style type="text/css">
	.st0{fill:#E6E6ED;}
</style>
<g id="city_background_1_">
</g>
<polygon class="st0" points="12069,198 12069,249 11921,249 11921,222 11915,222 11915,190 11903,190 11903,222 11897,222 
	11897,198 11889,198 11889,222 11847,222 11847,267 11759,267 11759,275 11750,275 11750,320 11642,320 11642,308 11630,308 
	11630,320 11624,320 11624,300 11612,300 11612,320 11594,320 11594,328 11586,328 11586,344 11599,344 11599,450 11550,450 
	11550,411 11499,411 11499,401 11465,401 11465,385 11449,385 11449,377 11425,377 11425,401 11419,401 11419,411 11409,411 
	11409,305 11307,305 11307,222 11155,222 11155,268 11065,268 11065,243 11042,243 11042,195 11022,195 11022,163 10902,163 
	10902,195 10882,195 10882,243 10859,243 10859,359 10751,359 10751,335 10741,335 10741,323 10623,323 10623,335 10613,335 
	10613,415 10588,415 10588,405 10552,405 10552,393 10544,393 10544,405 10544,415 10536,415 10536,474 10485,474 10485,443 
	10386,443 10386,350 10374,350 10374,338 10362,338 10362,350 10350,350 10350,326 10338,326 10338,350 10229,350 10229,396 
	10128,396 10128,320 10133,320 10133,308 10121,308 10121,283 10059,283 10059,295 9986,295 9986,308 9961,308 9961,320 9966,320 
	9966,350 9857,350 9857,425 9782,425 9782,364 9686,364 9686,289 9693,289 9693,277 9677,277 9677,269 9647,269 9647,257 9567,257 
	9567,269 9517,269 9517,257 9509,257 9509,269 9501,269 9501,245 9489,245 9489,269 9469,269 9469,277 9453,277 9453,289 9460,289 
	9460,347 9289,347 9289,320 9269,320 9269,288 9237,288 9237,296 9213,296 9213,320 9148,320 9148,376 9136,376 9136,360 8940,360 
	8940,376 8927,376 8927,265 8750,265 8750,202 8737,202 8737,170 8717,170 8717,138 8716.8,138 8696.8,90 8616.8,90 8596.8,138 
	8597,138 8597,170 8577,170 8577,202 8563,202 8563,293 8428,293 8428,240 8421,240 8421,230 8411,230 8411,214 8401,214 8401,230 
	8396,230 8396,206 8386,206 8386,230 8313,230 8313,190 8326,190 8326,174 8317,174 8317,166 8156,166 8156,154 8144,154 8144,166 
	8138,166 8138,146 8126,146 8126,166 8108,166 8108,174 8100,174 8100,190 8111,190 8111,308 8005,308 8005,363 7855,363 7855,287 
	7850,287 7850,275 7711,275 7711,287 7706,287 7706,468 7630,468 7630,400 7595,400 7595,388 7583,388 7583,400 7571,400 7571,376 
	7559,376 7559,400 7547,400 7547,363 7397,363 7397,350 7406,350 7406,334 7383,334 7383,326 7271,326 7271,334 7248,334 7248,350 
	7255,350 7255,435 7141,435 7141,415 7025,415 7025,350 6996,350 6996,342 6990,342 6990,350 6977,350 6977,338 6971,338 6971,350 
	6959,350 6959,375 6854,375 6854,401 6689,401 6689,310 6673,310 6673,294 6657,294 6657,286 6633,286 6633,302 6574,302 6574,310 
	6557,310 6557,365 6433,365 6433,335 6337,335 6337,325 6327,325 6327,335 6322,335 6322,319 6312,319 6312,335 6302,335 6302,249 
	6111,249 6111,294 5972,294 5972,282 5915,282 5915,272 5907,272 5907,282 5899,282 5899,261 5891,261 5891,282 5877,282 5877,294 
	5883,294 5883,318 5818,318 5818,456 5729,456 5729,417 5708,417 5708,409 5632,409 5632,399 5568,399 5568,409 5560,409 5560,417 
	5544,417 5544,371 5431,371 5431,327 5416,327 5416,264 5402,264 5402,232 5274,232 5274,264 5260,264 5260,327 5244,327 5244,406 
	5236,406 5236,382 5104,382 5104,406 5096,406 5096,440 5029,440 5029,377 5023,377 5023,365 5017,365 5017,341 5005,341 5005,365 
	4981,365 4981,289 4984,289 4984,279 4949,279 4949,271 4941,271 4941,255 4933,255 4933,271 4925,271 4925,261 4917,261 4917,271 
	4877,271 4877,279 4772,279 4772,289 4775,289 4775,346 4757,346 4757,334 4674,334 4674,322 4614,322 4614,334 4605,334 4605,346 
	4591,346 4591,413 4522,413 4522,379 4390,379 4390,335 4318,335 4318,315 4306,315 4306,335 4298,335 4298,263 4292,263 4292,255 
	4196,255 4196,263 4191,263 4191,286 4154,286 4154,228 4158,228 4158,216 4144,216 4144,208 4134,208 4134,184 4126,184 4126,208 
	4118,208 4118,196 4110,196 4110,208 4092,208 4092,216 4005,216 4005,228 4009,228 4009,279 3866,279 3866,384 3849,384 3849,368 
	3833,368 3833,360 3809,360 3809,376 3730,376 3730,384 3720,384 3720,696 12360.1,696 12360,559 12360,249 12360.1,198 "/>
</svg>
