<?xml version="1.0" encoding="utf-8"?>
<!-- Generator: Adobe Illustrator 19.1.0, SVG Export Plug-In . SVG Version: 6.00 Build 0)  -->
<svg version="1.1" id="Layer_1" xmlns="http://www.w3.org/2000/svg" xmlns:xlink="http://www.w3.org/1999/xlink" x="0px" y="0px"
	 viewBox="-359 -1118 480 1280" style="enable-background:new -359 -1118 480 1280;" xml:space="preserve">
<style type="text/css">
	.st0{fill:#555574;}
	.st1{fill:#3A3A59;}
	.st2{fill:#169CEE;}
	.st3{fill:#F15732;}
	.st4{opacity:0.3;fill:#FFFFFF;enable-background:new    ;}
	.st5{fill:#0E69A1;}
	.st6{fill:none;stroke:#0E69A1;stroke-width:8;stroke-linecap:round;stroke-miterlimit:10;}
	.st7{fill:#B73D29;}
</style>
<g id="tanker">
	<g id="truck">
		<polygon class="st0" points="55.7,85.2 55.7,69.7 -24,69.7 -41,85.2 -340.5,85.2 -340.5,118.8 77.9,118.8 77.9,85.2 		"/>
		<rect x="-310.5" y="118.8" class="st1" width="167.2" height="20"/>
		<rect x="-38.6" y="118.8" class="st1" width="133.3" height="20"/>
		<polygon class="st2" points="80.4,-13.8 -12,-13.8 -12,86.1 31.4,86.1 54,108.7 54,131.2 115.4,131.2 115.4,46.1 		"/>
		<polygon class="st3" points="73.4,-1.8 26,-1.8 26,46.1 99.9,46.1 		"/>
		<polygon class="st4" points="73.4,-1.8 26,46.1 99.9,46.1 		"/>
		<path class="st3" d="M-46.4-44.7h-294.1c0,0-18.5,23.2-18.5,65c0,36.7,18.5,65,18.5,65h294.1c0,0,9.3-18.2,9.3-65
			C-37.1-12.5-46.4-44.7-46.4-44.7z"/>
		<path class="st5" d="M116.9,115.2H54v16h62.9c2.2,0,4-1.8,4-4v-8C120.9,117,119.1,115.2,116.9,115.2z"/>
		<line class="st6" x1="116.8" y1="71.1" x2="110.8" y2="71.1"/>
		<line class="st6" x1="116.8" y1="103.1" x2="110.8" y2="103.1"/>
		<line class="st6" x1="116.8" y1="87.1" x2="110.8" y2="87.1"/>
		<rect x="-24" y="-29.6" class="st1" width="12" height="99.3"/>
		<rect x="-7.6" y="8.6" class="st5" width="28" height="4"/>
		<rect x="26" y="52" class="st5" width="16" height="4.1"/>
		<rect x="-7.6" y="20.6" class="st5" width="28" height="4"/>
		<rect x="-7.6" y="32.6" class="st5" width="28" height="4"/>
		<rect x="38" y="56.1" class="st5" width="4.1" height="4.1"/>
		<g>
			<path class="st7" d="M-311.7,12h6.9l1.3-8.4h5.6l-1.3,8.4h6.1l1.4-8.4h5.5l-1.4,8.4h5.5v5h-6.3l-1.1,6.6h5.8v4.9h-6.6l-1.4,8.7
				h-5.5l1.4-8.7h-6.1l-1.4,8.7h-5.5l1.4-8.7h-5.8v-4.9h6.6l1.1-6.6h-6.1v-5H-311.7z M-301.1,23.6h6.1l1.1-6.6h-6.1L-301.1,23.6z"/>
			<path class="st7" d="M-274.4,31.9h8.8V10.7l-7.2,3.1l-2.4-5.1l11.5-5.1h5.4v28.3h7.8v5.3h-23.9L-274.4,31.9L-274.4,31.9z"/>
			<path class="st7" d="M-229.5,3.1c3.1,0,6.3,0.8,9.3,2.4l-2.7,4.8c-1.8-0.9-4.1-1.6-6.6-1.6c-4.7,0-7.7,3.4-8.2,9.6
				c2.1-1.7,5-2.9,8.1-2.9c6.4,0,10.9,4,10.9,10.8c0,6.2-4.8,11.6-12.8,11.6c-9.5,0-13.6-7.4-13.6-16.5
				C-245.1,8.3-237.6,3.1-229.5,3.1z M-231.3,32.3c3.4,0,5.5-2.7,5.5-6c0-3.5-2.1-5.9-5.4-5.9c-2.6,0-4.8,1.2-6.5,2.8
				C-237.5,28.8-235.5,32.3-231.3,32.3z"/>
			<path class="st7" d="M-209.3,30.3c1.8,1.1,4,1.9,6.7,1.9c4.7,0,7.7-3.4,8.2-9.6c-2.1,1.7-5,2.9-8.1,2.9c-6.4,0-10.9-4-10.9-10.8
				c0-6.2,4.8-11.6,12.8-11.6c9.6,0,13.6,7.4,13.6,16.5c0,13-7.5,18.3-15.6,18.3c-3.3,0-6.8-1-9.7-2.7L-209.3,30.3z M-194.4,17.7
				c-0.1-5.6-2.3-9.1-6.3-9.1c-3.5,0-5.6,2.7-5.6,6c0,3.5,2.1,5.9,5.5,5.9C-198.3,20.5-196,19.2-194.4,17.7z"/>
			<path class="st7" d="M-164.1,3.1c4.7,0,8.7,1.5,12.2,4.3l-3.9,5c-2.4-1.9-4.8-3.1-8.1-3.1c-6.2,0-10.3,4.4-10.3,11
				c0,6.9,4,11.4,10.3,11.4c3.4,0,6-1.3,8.3-3.5l4.3,4.6c-3.6,3.4-7.8,5-13,5c-10.3,0-17.3-7.3-17.3-17.6
				C-181.7,10.3-174.4,3.1-164.1,3.1z"/>
			<path class="st7" d="M-144.6,3.6h24.5V10h-17.2v7.4h15.4V23h-15.4v7.9h17.4v6.3h-24.7V3.6z"/>
			<path class="st7" d="M-112.3,3.6h24.5V10H-105v7.4h15.4V23H-105v7.9h17.4v6.3h-24.7V3.6z"/>
		</g>
	</g>
	<g id="wheels_1_">
		<g id="wheel3_1_">
			<circle class="st5" cx="12" cy="126" r="36"/>
			<circle class="st2" cx="12" cy="126" r="20"/>
			<g>
				<circle class="st5" cx="26" cy="126" r="2"/>
				<circle class="st5" cx="-2" cy="126" r="2"/>
				<circle class="st5" cx="12" cy="140" r="2"/>
				<circle class="st5" cx="12" cy="112" r="2"/>
				<circle class="st5" cx="21.9" cy="116.1" r="2"/>
				<circle class="st5" cx="2.1" cy="135.9" r="2"/>
				<circle class="st5" cx="21.9" cy="135.9" r="2"/>
				<circle class="st5" cx="2.1" cy="116.1" r="2"/>
			</g>
		</g>
		<g id="wheel2_1_">
			<circle class="st5" cx="-191.8" cy="126" r="36"/>
			<circle class="st2" cx="-191.8" cy="127" r="20"/>
			<g>
				<circle class="st5" cx="-177.8" cy="127" r="2"/>
				<circle class="st5" cx="-205.8" cy="127" r="2"/>
				<circle class="st5" cx="-191.8" cy="141" r="2"/>
				<circle class="st5" cx="-191.8" cy="113" r="2"/>
				<circle class="st5" cx="-181.9" cy="117.1" r="2"/>
				<circle class="st5" cx="-201.7" cy="136.9" r="2"/>
				<circle class="st5" cx="-181.9" cy="136.9" r="2"/>
				<circle class="st5" cx="-201.7" cy="117.1" r="2"/>
			</g>
		</g>
		<g id="wheel1_1_">
			<circle class="st5" cx="-284.7" cy="126" r="36"/>
			<circle class="st2" cx="-284.7" cy="127" r="20"/>
			<g>
				<circle class="st5" cx="-270.7" cy="127" r="2"/>
				<circle class="st5" cx="-298.7" cy="127" r="2"/>
				<circle class="st5" cx="-284.7" cy="141" r="2"/>
				<circle class="st5" cx="-284.7" cy="113" r="2"/>
				<circle class="st5" cx="-274.8" cy="117.1" r="2"/>
				<circle class="st5" cx="-294.6" cy="136.9" r="2"/>
				<circle class="st5" cx="-274.8" cy="136.9" r="2"/>
				<circle class="st5" cx="-294.6" cy="117.1" r="2"/>
			</g>
		</g>
	</g>
</g>
</svg>
