<?xml version="1.0" encoding="utf-8"?>
<!-- Generator: Adobe Illustrator 19.1.0, SVG Export Plug-In . SVG Version: 6.00 Build 0)  -->
<svg version="1.1" id="Layer_1" xmlns="http://www.w3.org/2000/svg" xmlns:xlink="http://www.w3.org/1999/xlink" x="0px" y="0px" viewBox="-199 -584 800 1280" style="enable-background:new -199 -584 800 1280;" xml:space="preserve">
	<style type="text/css">
		.st0{fill:#0E69A1;}
		.st1{fill:#169CEE;}
	</style>
	<g id="wheel5">
		<circle class="st0" cx="522.7" cy="662" r="34"/>
		<circle class="st1" cx="522.7" cy="662" r="18.9"/>
		<g>
			<circle class="st0" cx="535.8" cy="662" r="1.9"/>
			<circle class="st0" cx="509.5" cy="662" r="1.9"/>
			<circle class="st0" cx="522.7" cy="675.2" r="1.9"/>
			<circle class="st0" cx="522.7" cy="648.8" r="1.9"/>
			<circle class="st0" cx="531.9" cy="652.7" r="1.9"/>
			<circle class="st0" cx="513.2" cy="671.4" r="1.9"/>
			<circle class="st0" cx="531.9" cy="671.4" r="1.9"/>
			<circle class="st0" cx="513.2" cy="652.7" r="1.9"/>
		</g>
	</g>
	<g id="wheel4">
		<circle class="st0" cx="324.5" cy="662" r="34"/>
		<circle class="st1" cx="324.5" cy="662" r="18.9"/>
		<g>
			<circle class="st0" cx="337.6" cy="662" r="1.9"/>
			<circle class="st0" cx="311.2" cy="662" r="1.9"/>
			<circle class="st0" cx="324.5" cy="675.2" r="1.9"/>
			<circle class="st0" cx="324.5" cy="648.8" r="1.9"/>
			<circle class="st0" cx="333.8" cy="652.7" r="1.9"/>
			<circle class="st0" cx="315.1" cy="671.4" r="1.9"/>
			<circle class="st0" cx="333.8" cy="671.4" r="1.9"/>
			<circle class="st0" cx="315.1" cy="652.7" r="1.9"/>
		</g>
	</g>
	<g id="wheel3">
		<circle class="st0" cx="246.1" cy="662" r="34"/>
		<circle class="st1" cx="246.1" cy="662" r="18.9"/>
		<g>
			<circle class="st0" cx="259.4" cy="662" r="1.9"/>
			<circle class="st0" cx="232.9" cy="662" r="1.9"/>
			<circle class="st0" cx="246.1" cy="675.2" r="1.9"/>
			<circle class="st0" cx="246.1" cy="648.8" r="1.9"/>
			<circle class="st0" cx="255.5" cy="652.7" r="1.9"/>
			<circle class="st0" cx="236.8" cy="671.4" r="1.9"/>
			<circle class="st0" cx="255.5" cy="671.4" r="1.9"/>
			<circle class="st0" cx="236.8" cy="652.7" r="1.9"/>
		</g>
	</g>
	<g id="wheel2">
		<circle class="st0" cx="-59.3" cy="662" r="34"/>
		<circle class="st1" cx="-59.3" cy="662" r="18.9"/>
		<g>
			<circle class="st0" cx="-46.1" cy="662" r="1.9"/>
			<circle class="st0" cx="-72.5" cy="662" r="1.9"/>
			<circle class="st0" cx="-59.3" cy="675.2" r="1.9"/>
			<circle class="st0" cx="-59.3" cy="648.8" r="1.9"/>
			<circle class="st0" cx="-49.9" cy="652.7" r="1.9"/>
			<circle class="st0" cx="-68.6" cy="671.4" r="1.9"/>
			<circle class="st0" cx="-49.9" cy="671.4" r="1.9"/>
			<circle class="st0" cx="-68.6" cy="652.7" r="1.9"/>
		</g>
	</g>
	<g id="wheel1">
		<circle class="st0" cx="-137.6" cy="662" r="34"/>
		<circle class="st1" cx="-137.6" cy="662" r="18.9"/>
		<g>
			<circle class="st0" cx="-124.4" cy="662" r="1.9"/>
			<circle class="st0" cx="-150.8" cy="662" r="1.9"/>
			<circle class="st0" cx="-137.6" cy="675.2" r="1.9"/>
			<circle class="st0" cx="-137.6" cy="648.8" r="1.9"/>
			<circle class="st0" cx="-128.3" cy="652.7" r="1.9"/>
			<circle class="st0" cx="-147" cy="671.4" r="1.9"/>
			<circle class="st0" cx="-128.3" cy="671.4" r="1.9"/>
			<circle class="st0" cx="-147" cy="652.7" r="1.9"/>
		</g>
	</g>
</svg>
