<?xml version="1.0" encoding="utf-8"?>
<!-- Generator: Adobe Illustrator 19.1.0, SVG Export Plug-In . SVG Version: 6.00 Build 0)  -->
<svg version="1.1" id="Layer_1" xmlns="http://www.w3.org/2000/svg" xmlns:xlink="http://www.w3.org/1999/xlink" x="0px" y="0px"
	 viewBox="-199 -1059 800 1280" style="enable-background:new -199 -1059 800 1280;" xml:space="preserve">
<style type="text/css">
	.st0{fill:#3A3A59;}
	.st1{fill:#169CEE;}
	.st2{fill:#555574;}
	.st3{fill:#EF3F61;}
	.st4{fill:#0E69A1;}
	.st5{fill:#F15732;}
	.st6{opacity:0.3;fill:#FFFFFF;enable-background:new    ;}
	.st7{fill:none;stroke:#0E69A1;stroke-width:8;stroke-linecap:round;stroke-miterlimit:10;}
</style>
<g id="transport">
	<g id="truck_1_">
		<polygon class="st0" points="572.7,187.2 203.5,187.2 203.5,150.2 555.7,150.2 572.6,167.1 		"/>
		<path class="st1" d="M504.6,97.7l-0.1,0.1l-13.9-56.6h-31.2c0,0-19.5-38-63.3-38c-5.1,0-10.6,0-10.6,0v37.9v136.1h119v15h80V104
			L504.6,97.7z"/>
		<path class="st2" d="M152.5-105.7h-224c-4.4,0-8.1,3.7-8.1,8.1V94.3h240V-97.6C160.5-102.1,157-105.7,152.5-105.7z"/>
		<path class="st3" d="M152.5-105.7h-224c-4.4,0-8,3.6-8,8v16h240v-16C160.5-102.2,157-105.7,152.5-105.7z"/>
		<rect x="-22.9" y="-21.2" class="st3" width="36" height="7.5"/>
		<polygon class="st3" points="-59.5,-61.7 -22.9,-40.7 -22.9,-34.7 -59.5,-13.7 -59.5,-22.7 -32.6,-37.7 -59.5,-52.7 		"/>
		<circle class="st2" cx="118.5" cy="-93.7" r="5"/>
		<circle class="st2" cx="133.5" cy="-93.7" r="5"/>
		<circle class="st2" cx="148.5" cy="-93.7" r="5"/>
		<rect x="-178.5" y="150.2" class="st0" width="160" height="37"/>
		<rect x="-199.1" y="126.2" class="st1" width="480" height="24"/>
		<rect x="369.5" y="-41.8" class="st0" width="16" height="192"/>
		<rect x="-139.5" y="94.2" class="st0" width="360" height="32"/>
		<rect x="395.5" y="60.9" class="st4" width="28" height="4"/>
		<rect x="395.5" y="72.9" class="st4" width="28" height="4"/>
		<rect x="395.5" y="84.9" class="st4" width="28" height="4"/>
		<polygon class="st5" points="437,97.7 495.2,97.7 484.6,53 434,53 		"/>
		<polygon class="st6" points="437,97.7 495.2,97.7 484.6,53 481.6,53 		"/>
		<polygon class="st4" points="437.1,107.7 437.1,111.7 449.1,111.7 449.1,115.7 453.1,115.7 453.1,111.7 453.1,107.7 		"/>
		<path class="st2" d="M459,153.2h-78.7c0,0-4.9,6-4.9,17c0,9.7,4.9,17,4.9,17H459c0,0,2.4-4.7,2.4-17
			C461.5,161.6,459,153.2,459,153.2z"/>
		<polygon class="st0" points="562.2,192.3 535.8,192.3 499.6,187.2 483.6,187.2 484,167.3 501.8,149.4 544.2,149.4 562.1,167.3 		
			"/>
		<path class="st4" d="M588.3,172.3h-10.1v20h10.1c2.2,0,4-1.8,4-4v-12C592.3,174.1,590.6,172.3,588.3,172.3z"/>
		<line class="st7" x1="586.4" y1="115.2" x2="580.4" y2="115.2"/>
		<line class="st7" x1="586.4" y1="130.2" x2="580.4" y2="130.2"/>
		<line class="st7" x1="586.4" y1="145.2" x2="580.4" y2="145.2"/>
	</g>
</g>
</svg>
