<?xml version="1.0" encoding="UTF-8" standalone="no"?>
<svg width="28px" height="28px" viewBox="0 0 28 28" version="1.1" xmlns="http://www.w3.org/2000/svg" xmlns:xlink="http://www.w3.org/1999/xlink" xmlns:sketch="http://www.bohemiancoding.com/sketch/ns">
    <!-- Generator: Sketch 3.3.3 (12072) - http://www.bohemiancoding.com/sketch -->
    <title>android</title>
    <desc>Created with Sketch.</desc>
    <defs></defs>
    <g id="Page-1" stroke="none" stroke-width="1" fill="none" fill-rule="evenodd" sketch:type="MSPage">
        <g id="android" sketch:type="MSArtboardGroup" fill="#9CC947">
            <path d="M3,10.776 C3,10.3868387 3.14046154,10.0505161 3.42307692,9.76703226 C3.70569231,9.48354839 4.03992308,9.34851613 4.42915385,9.35941935 C4.82853846,9.35941935 5.16953846,9.50116129 5.45130769,9.78464516 C5.73476923,10.068129 5.87015385,10.3985806 5.85746154,10.776 L5.85746154,17.38 C5.85746154,17.7809032 5.717,18.1239355 5.43438462,18.4074194 C5.15176923,18.6900645 4.82261538,18.8318065 4.44607692,18.8318065 C4.04584615,18.8318065 3.70569231,18.6841935 3.42307692,18.3889677 C3.14046154,18.0937419 3,17.7582581 3,17.38 L3,10.776 L3,10.776 Z M20.7006923,9.48354839 L20.7006923,19.6638065 C20.7006923,20.0772903 20.5517692,20.4312258 20.2547692,20.7264516 C19.9569231,21.0216774 19.6049231,21.1634194 19.2013077,21.1508387 L17.8432308,21.1508387 L17.8432308,24.9225161 C17.8432308,25.3234194 17.6976923,25.6656129 17.4074615,25.9490968 C17.1172308,26.2325806 16.7855385,26.3743226 16.4149231,26.3743226 C16.0426154,26.3743226 15.7058462,26.2267097 15.4037692,25.9314839 C15.1245385,25.6362581 14.9849231,25.2999355 14.9849231,24.9225161 L14.9849231,21.1508387 L12.3956923,21.1508387 L12.3956923,24.9225161 C12.3956923,25.3234194 12.2552308,25.6656129 11.9768462,25.9490968 C11.6866154,26.2325806 11.3439231,26.3743226 10.9496154,26.3743226 C10.5536154,26.3743226 10.2168462,26.2267097 9.93761538,25.9314839 C9.65838462,25.6362581 9.52553846,25.2999355 9.53738462,24.9225161 L9.53738462,21.1508387 L8.18015385,21.1508387 C7.78669231,21.1390968 7.43553846,20.9914839 7.12584615,20.7088387 C6.81615385,20.4253548 6.66723077,20.0772903 6.67992308,19.6638065 L6.67992308,9.48354839 L20.7006923,9.48354839 L20.7006923,9.48354839 Z M18.4355385,1.23148387 L17.0588462,3.41464516 C18.125,3.94387097 18.9838462,4.69032258 19.6345385,5.654 C20.2860769,6.61851613 20.6296154,7.6643871 20.6651538,8.79329032 L6.67992308,8.79329032 C6.69092308,7.65264516 7.02938462,6.58748387 7.69192308,5.59948387 C8.35530769,4.61148387 9.24292308,3.85245161 10.3564615,3.32322581 L8.99923077,1.22980645 L9.37407692,1 L10.7575385,3.14206452 C11.6053846,2.76716129 12.5733846,2.57845161 13.6640769,2.57845161 C14.7539231,2.57845161 15.7633846,2.79064516 16.6933077,3.21419355 L18.059,1.00167742 L18.4355385,1.23148387 L18.4355385,1.23148387 Z M10.4131538,5.26735484 C10.2219231,5.26735484 10.0552308,5.34032258 9.91223077,5.48541935 C9.76923077,5.63135484 9.69138462,5.80077419 9.68038462,5.99451613 C9.68038462,6.18825806 9.75146154,6.37025806 9.89530769,6.53883871 C10.0493077,6.68477419 10.2219231,6.75690323 10.4131538,6.75690323 C10.6026923,6.75690323 10.7753077,6.68477419 10.9301538,6.53883871 C11.0731538,6.39374194 11.1450769,6.22432258 11.1450769,6.03058065 C11.1450769,5.83683871 11.0731538,5.65483871 10.9301538,5.48541935 C10.7753077,5.34032258 10.6026923,5.26735484 10.4131538,5.26735484 L10.4131538,5.26735484 Z M16.9852308,5.26735484 C16.7711538,5.26735484 16.5926154,5.34032258 16.4496154,5.48541935 C16.3074615,5.63135484 16.2355385,5.80077419 16.2355385,5.99451613 C16.2355385,6.18825806 16.3074615,6.37025806 16.4496154,6.53883871 C16.5926154,6.68477419 16.7711538,6.75690323 16.9852308,6.75690323 C17.2001538,6.75690323 17.3719231,6.68477419 17.5039231,6.53883871 C17.6579231,6.39374194 17.7357692,6.22432258 17.7357692,6.03058065 C17.7357692,5.83683871 17.6646923,5.65483871 17.5216923,5.48541935 C17.3786923,5.34032258 17.2001538,5.26735484 16.9852308,5.26735484 L16.9852308,5.26735484 Z M22.9421538,9.35941935 C23.3567692,9.35941935 23.6935385,9.50116129 23.9541538,9.78464516 C24.2139231,10.068129 24.3450769,10.3985806 24.3450769,10.776 L24.3450769,17.38 C24.3450769,17.7809032 24.2029231,18.1239355 23.9186154,18.4074194 C23.6343077,18.6900645 23.3034615,18.8318065 22.9252308,18.8318065 C22.5224615,18.8318065 22.1789231,18.6841935 21.8946154,18.3889677 C21.6103077,18.0937419 21.4749231,17.7582581 21.4867692,17.38 L21.4867692,10.776 C21.4749231,10.3868387 21.6103077,10.0505161 21.8946154,9.76703226 C22.1789231,9.48354839 22.5283846,9.34851613 22.9421538,9.35941935 L22.9421538,9.35941935 Z" sketch:type="MSShapeGroup"></path>
        </g>
    </g>
</svg>