<?xml version="1.0" encoding="UTF-8" standalone="no"?>
<svg width="28px" height="28px" viewBox="0 0 28 28" version="1.1" xmlns="http://www.w3.org/2000/svg" xmlns:xlink="http://www.w3.org/1999/xlink" xmlns:sketch="http://www.bohemiancoding.com/sketch/ns">
    <!-- Generator: Sketch 3.3.3 (12072) - http://www.bohemiancoding.com/sketch -->
    <title>arduino</title>
    <desc>Created with Sketch.</desc>
    <defs></defs>
    <g id="Page-1" stroke="none" stroke-width="1" fill="none" fill-rule="evenodd" sketch:type="MSPage">
        <g id="arduino" sketch:type="MSArtboardGroup" fill="#5298FC">
            <path d="M14.0385763,15.7628914 L10.1268991,13.6540855 L10.1268991,17.3907706 L14.0385763,19.634024 L17.9502089,17.3907706 L17.9502089,13.6540855 L14.0385763,15.7628914 Z M14.7129573,9.04538115 C14.7129573,9.32739512 14.8660576,9.58834058 15.1154025,9.73134582 L18.9666149,11.939934 C19.1727389,12.0581348 19.2992382,12.2737721 19.2992382,12.5067421 L19.2992382,16.9794785 C19.2992382,17.2648808 19.4559923,17.5284761 19.7101495,17.6702216 L26.7274548,21.5846641 C27.5751208,20.6173371 27.9998003,19.479985 27.9998003,18.1718693 C28.0089347,17.0416414 27.70465,16.0260089 27.0889961,15.1252757 C26.4727629,14.2248466 25.7076178,13.5756324 24.6285191,13.1782412 L24.6285191,12.6616934 C24.6285191,10.4453729 23.8191728,8.53391589 22.1708938,6.92667082 C20.5223029,5.31972984 18.5583771,4.51612903 16.2759082,4.51612903 C15.7386759,4.52772757 15.2187319,4.58789229 14.7129573,4.68771794 L14.7129573,9.04538115 Z M17.2926707,12.5056995 L14.0385763,10.6395507 L10.7844373,12.5056995 L14.0385763,14.3453064 L17.2926707,12.5056995 Z M8.35844796,17.6199178 C8.61746195,17.479519 8.77809251,17.2132738 8.77809251,16.9243528 L8.77809251,12.5067421 C8.77809251,12.2737721 8.9045473,12.0581348 9.11058217,11.939934 L12.96175,9.73134582 C13.2110504,9.58838402 13.3641507,9.32739512 13.3641507,9.04538115 L13.3641507,5.06851499 C12.8296809,5.2707727 12.3146829,5.5275479 11.8197803,5.8405782 C10.4791278,6.68831428 9.450914,7.79647454 8.73567357,9.16505898 C8.11970772,8.67057885 7.30452434,8.42331706 6.29012342,8.42331706 C5.27572249,8.42331706 4.40176748,8.78087359 3.66799104,9.4962473 C2.93448195,10.2113169 2.56777196,11.1018851 2.56777196,12.1702106 L2.70349476,13.2810642 C1.87013183,13.7491761 1.21361847,14.3994764 0.733464535,15.2383506 C0.244488178,16.0771815 0,16.9978537 0,18.0131822 C0,19.3127401 0.43140779,20.4518298 1.29163902,21.4503469 L8.35844796,17.6199178 Z M22.4301306,23.483871 C23.6674983,23.483871 24.7526569,23.1701456 25.6873441,22.519411 L18.9916118,18.7843766 C18.73741,18.6425442 18.4247485,18.6443687 18.1723291,18.789155 L14.3804676,20.963686 C14.2749549,21.0241114 14.1567433,21.0543892 14.0385763,21.0543892 C13.9203646,21.0543892 13.802153,21.0241114 13.6966404,20.963686 L9.85656743,18.7614401 C9.60722246,18.6184349 9.29883852,18.6147859 9.04601805,18.7518399 L2.31236714,22.4017748 C3.2305234,23.0786171 4.28876912,23.483871 5.48844102,23.483871 L22.4301306,23.483871 Z" id="things" sketch:type="MSShapeGroup"></path>
        </g>
    </g>
</svg>