<?xml version="1.0" encoding="UTF-8" standalone="no"?>
<svg width="32px" height="32px" viewBox="0 0 32 32" version="1.1" xmlns="http://www.w3.org/2000/svg" xmlns:xlink="http://www.w3.org/1999/xlink" xmlns:sketch="http://www.bohemiancoding.com/sketch/ns">
    <!-- Generator: Sketch 3.3.3 (12072) - http://www.bohemiancoding.com/sketch -->
    <title>facebook</title>
    <desc>Created with Sketch.</desc>
    <defs></defs>
    <g id="Page-1" stroke="none" stroke-width="1" fill="none" fill-rule="evenodd" sketch:type="MSPage">
        <g id="facebook" sketch:type="MSArtboardGroup" fill="#FFFFFF">
            <path d="M7.16937,6 L25.8585073,6 C26.1806382,6 26.4535836,6.10703313 26.6773434,6.3204387 C26.9017959,6.53450497 27.0084801,6.79019524 26.9994743,7.0875095 L26.9994743,24.9118298 C26.9994743,25.2283043 26.8920973,25.4886195 26.6773434,25.6927753 C26.4632822,25.8975918 26.189644,26 25.8585073,26 L20.5062842,26 L20.5062842,18.259258 L23.2260393,18.259258 L23.6506979,15.2325989 L20.5062842,15.2325989 L20.5062842,13.3218592 C20.5062842,12.8296389 20.6136612,12.4576658 20.8277224,12.2059397 C21.0521749,11.9548743 21.461593,11.8293416 22.0566693,11.8293416 L23.737985,11.8293416 L23.737985,9.15219187 C23.2800742,9.0590334 22.4515395,9.01212381 21.252381,9.01212381 C20.0532226,9.01212381 19.083366,9.36097255 18.3421184,10.05867 C17.6008708,10.7649566 17.2309398,11.7460936 17.2309398,13.0014205 L17.2309398,15.2325989 L14.4813962,15.2325989 L14.4813962,18.259258 L17.2309398,18.259258 L17.2309398,26 L7.16937,26 C6.85763036,26 6.584685,25.8929669 6.3505339,25.6789006 C6.11707555,25.465495 6,25.2098048 6,24.9118298 L6,7.0875095 C6,6.77169568 6.11707555,6.51138053 6.3505339,6.30656404 C6.584685,6.10240825 6.85763036,6 7.16937,6" sketch:type="MSShapeGroup"></path>
        </g>
    </g>
</svg>