<?xml version="1.0" encoding="UTF-8" standalone="no"?>
<svg width="64px" height="64px" viewBox="0 0 64 64" version="1.1" xmlns="http://www.w3.org/2000/svg" xmlns:xlink="http://www.w3.org/1999/xlink" xmlns:sketch="http://www.bohemiancoding.com/sketch/ns">
    <!-- Generator: Sketch 3.3.3 (12072) - http://www.bohemiancoding.com/sketch -->
    <title>favicon</title>
    <desc>Created with Sketch.</desc>
    <defs></defs>
    <g id="Page-1" stroke="none" stroke-width="1" fill="none" fill-rule="evenodd" sketch:type="MSPage">
        <g id="favicon" sketch:type="MSArtboardGroup" fill="#169CEE">
            <path d="M32,0 C14.3350554,0 0,14.3350554 0,32 C0,49.6649446 14.3350554,64 32,64 C49.6649446,64 64,49.6649446 64,32 C64,14.3350554 49.6885609,0 32,0 Z M37.7387454,40.2656827 L20.9476015,40.2656827 C19.2944649,40.2656827 17.9483395,41.6118081 17.9483395,43.2649446 C17.9483395,44.9180812 19.2944649,46.2642066 20.9476015,46.2642066 C22.600738,46.2642066 23.9468635,44.9653137 23.9468635,43.3121771 L23.9468635,43.0760148 L28.4575646,43.0760148 L28.4575646,43.2649446 C28.4575646,47.4214022 25.104059,50.798524 20.9239852,50.798524 C16.7439114,50.798524 13.4140221,47.4450185 13.4140221,43.2885609 C13.4140221,39.1321033 16.7911439,35.7549815 20.9476015,35.7549815 L37.7387454,35.7549815 C42.8398524,35.7549815 46.99631,31.6221402 46.99631,26.497417 C46.99631,21.39631 42.8398524,17.2634686 37.7387454,17.2634686 C32.6376384,17.2634686 28.4811808,21.4907749 28.4811808,26.5918819 L28.4811808,33.1808118 L23.9232472,33.1808118 L23.9232472,26.5918819 C23.9232472,18.9638376 30.1107011,12.7291513 37.7151292,12.7291513 C45.3431734,12.7291513 51.5070111,18.8929889 51.5070111,26.5210332 C51.5070111,34.1490775 45.3667897,40.2656827 37.7387454,40.2656827 Z" id="logo" sketch:type="MSShapeGroup"></path>
        </g>
    </g>
</svg>