<?xml version="1.0" encoding="UTF-8" standalone="no"?>
<svg width="32px" height="32px" viewBox="0 0 32 32" version="1.1" xmlns="http://www.w3.org/2000/svg" xmlns:xlink="http://www.w3.org/1999/xlink" xmlns:sketch="http://www.bohemiancoding.com/sketch/ns">
    <!-- Generator: Sketch 3.3.3 (12072) - http://www.bohemiancoding.com/sketch -->
    <title>github</title>
    <desc>Created with Sketch.</desc>
    <defs></defs>
    <g id="Page-1" stroke="none" stroke-width="1" fill="none" fill-rule="evenodd" sketch:type="MSPage">
        <g id="github" sketch:type="MSArtboardGroup" fill="#FFFFFF">
            <path d="M19.0826044,25.3573813 C19.0826044,24.2389877 19.0875236,23.3196653 19.0973618,22.5994142 C19.1072001,21.8798544 18.880217,21.271581 18.4150071,20.7752851 C18.6525312,20.7752851 19.0875236,20.6978685 19.7206869,20.542344 C21.1149111,20.2015727 22.0790622,19.5062055 22.61314,18.4555514 C23.197112,17.2203416 23.3348479,15.9554093 23.0284558,14.662137 C22.9195321,14.1658412 22.7368212,13.7621688 22.4796206,13.4511199 C22.2224199,13.1400709 22.1141989,12.9251016 22.153552,12.8089766 C22.3812378,12.0700626 22.3510203,11.282072 22.0643048,10.4450048 C22.0052751,10.2894804 21.9111088,10.2314179 21.7825084,10.2701262 C21.1690217,10.2701262 20.3292545,10.5860137 19.2610989,11.2184798 C19.0826044,11.2765423 18.9736806,11.2965877 18.9343275,11.2765423 C17.2927409,10.8783997 15.6609926,10.8783997 14.0390825,11.2765423 C13.9203204,11.2965877 13.8113967,11.2765423 13.7130139,11.2184798 C12.8226499,10.6834757 12.0812656,10.3675882 11.4874553,10.2701262 C11.2204164,10.1920184 11.0573821,10.2023867 10.9983525,10.2991575 C10.9386201,10.3966195 10.8795904,10.5231127 10.819858,10.6786371 C10.592875,11.4375965 10.592875,12.1571563 10.819858,12.8380079 C10.8599139,12.954824 10.8395346,13.0329319 10.7608284,13.0716402 C9.94987334,14.0248323 9.64348132,15.2503651 9.84094957,16.7482384 C10.1375033,18.7721301 11.2653914,20.0363711 13.2232083,20.542344 C13.3215911,20.5616982 13.7572862,20.6543216 14.5288881,20.8195232 C14.2217933,21.1402492 14.0194059,21.5439216 13.9203204,22.0305403 C13.8809673,22.1280023 13.831776,22.1812262 13.7720436,22.1909033 C12.4965814,22.6871992 11.5324303,22.4051815 10.8795904,21.3448503 C10.4937895,20.7317383 10.0187413,20.3771425 9.4551486,20.2796805 C9.25768035,20.2409722 9.08480779,20.2506493 8.93582818,20.3087117 C8.73835992,20.34742 8.70814236,20.444882 8.84728369,20.6004065 C8.94566645,20.6978685 9.03491367,20.7711378 9.11432261,20.8195232 C9.61818289,21.120895 10.0039839,21.5881596 10.2710228,22.2199346 C10.6568237,23.1344184 11.3785316,23.6210371 12.436849,23.6790996 C12.5752876,23.6790996 13.0503358,23.6597454 13.8612908,23.6210371 L13.8612908,25.5612912 C13.8711291,25.7271839 13.7966393,25.8488386 13.6385241,25.9262553 C13.480409,26.0043631 13.3026173,26.0140402 13.1044463,25.9559777 C12.1353761,25.6152063 11.3047445,25.2066954 10.6125515,24.7297537 C7.36873136,22.5026435 5.8360685,19.501367 6.0138602,15.7273067 C6.11224296,13.3536579 6.95271283,11.2910579 8.5352698,9.54019809 C10.1178268,7.78933827 12.1845675,6.6709446 14.7361946,6.18432584 C17.2878218,5.69770708 19.7354443,6.17464876 22.0790622,7.61445966 C24.4135445,9.06394763 25.93145,11.0823095 26.6334813,13.6695453 C27.3355125,16.2574723 27.0291205,18.7424076 25.7136024,21.1257336 C24.3987871,23.5097507 22.459944,25.1092334 19.8984786,25.9262553 C19.3545625,26.120488 19.0826044,25.9310938 19.0826044,25.3573813 L19.0826044,25.3573813 Z M10.3012403,21.2570653 C10.2611845,21.1796487 10.2014521,21.1015409 10.1227459,21.023433 C10.1227459,21.0047701 10.1522607,20.9653706 10.2119931,20.9066169 L10.4200024,21.0821867 L10.3012403,21.2570653 L10.3012403,21.2570653 Z M10.7608284,21.7678768 C10.592875,21.6413836 10.5233043,21.5639669 10.5528191,21.5342445 L10.6420663,21.4471508 L10.9091053,21.6220294 L10.7608284,21.7678768 L10.7608284,21.7678768 Z M11.0278673,22.1328409 L11.1613868,22.0015091 C11.2597695,22.0595716 11.3391785,22.1425179 11.3989109,22.249657 L11.250634,22.4535669 L11.0278673,22.1328409 L11.0278673,22.1328409 Z M12.1550526,22.6291367 L11.9477461,22.8185309 L11.7249794,22.570383 L11.9175285,22.4535669 C11.9969375,22.4922752 12.0756437,22.5510288 12.1550526,22.6291367 L12.1550526,22.6291367 Z M12.7636203,22.8772846 C12.743241,22.8772846 12.7137262,22.8572392 12.6743731,22.8185309 C12.6343172,22.7798226 12.6048024,22.7604685 12.5858286,22.7604685 C12.6645348,22.6823606 12.7235644,22.5994142 12.7636203,22.5123205 C12.8423265,22.570383 12.9217354,22.6436523 13.0004416,22.730746 L12.7636203,22.8772846 L12.7636203,22.8772846 Z M13.3714852,22.6581679 L13.5794945,22.4245356 C13.6778772,22.5219976 13.752367,22.5800601 13.8022611,22.5994142 C13.6532815,22.7556299 13.5499796,22.8040153 13.4902472,22.7459528 C13.4312176,22.6871992 13.3911617,22.6581679 13.3714852,22.6581679 L13.3714852,22.6581679 Z" sketch:type="MSShapeGroup"></path>
        </g>
    </g>
</svg>