<?xml version="1.0" encoding="UTF-8" standalone="no"?>
<svg width="32px" height="32px" viewBox="0 0 32 32" version="1.1" xmlns="http://www.w3.org/2000/svg" xmlns:xlink="http://www.w3.org/1999/xlink" xmlns:sketch="http://www.bohemiancoding.com/sketch/ns">
    <!-- Generator: Sketch 3.3.3 (12072) - http://www.bohemiancoding.com/sketch -->
    <title>google</title>
    <desc>Created with Sketch.</desc>
    <defs></defs>
    <g id="Page-1" stroke="none" stroke-width="1" fill="none" fill-rule="evenodd" sketch:type="MSPage">
        <g id="google" sketch:type="MSArtboardGroup" fill="#FFFFFF">
            <path d="M15.5751,15.8187097 C15.5751,15.6464516 15.6591,15.3154839 15.8257,14.8251613 C15.4218,14.8612903 15.1313,14.8793548 14.9542,14.8793548 C13.4765,14.8612903 12.3432,14.4296774 11.555,13.5851613 C10.7472,12.7870968 10.3489,11.8787097 10.358,10.8619355 C10.358,9.58129032 10.9299,8.43741935 12.073,7.42967742 C12.8605,6.81225806 13.6781,6.42193548 14.5251,6.25806452 C15.3721,6.09483871 16.1575,6.00903226 16.8799,6 L22.3833,6 L20.6837,6.92580645 L18.8994,6.92580645 C19.6624,7.36129032 20.2574,8.07870968 20.6837,9.07806452 C20.8048,9.4683871 20.8552,10.0812903 20.8356,10.916129 C20.816,11.7516129 20.3792,12.56 19.5252,13.34 L18.6866,14.0077419 C18.1882,14.4529032 17.9397,14.8432258 17.9397,15.1793548 C17.9397,15.5148387 18.0307,15.7645161 18.2141,15.9277419 C18.3359,16.0916129 18.4724,16.2412903 18.625,16.3774194 L19.6169,17.1129032 C20.2574,17.5941935 20.7705,18.0890323 21.1576,18.5974194 C21.5454,19.1058065 21.7624,19.8006452 21.8114,20.6806452 C21.8114,21.9064516 21.2227,23.0096774 20.046,23.9903226 C18.7916,24.9980645 17.0409,25.5116129 14.7946,25.5296774 C12.8332,25.4929032 11.38,25.116129 10.4343,24.3993548 C9.4879,23.6819355 9.0098,22.8419355 9,21.8793548 C9,21.4077419 9.1519,20.8806452 9.455,20.3 C9.7581,19.7187097 10.3307,19.2012903 11.1721,18.7470968 C12.0149,18.2935484 12.9445,17.9845161 13.9623,17.8212903 C14.9801,17.6670968 15.7725,17.5851613 16.3402,17.5754839 C15.8306,16.9496774 15.5751,16.363871 15.5751,15.8187097 L15.5751,15.8187097 Z M18.9603,23.6767742 C19.6687,23.1690323 20.0229,22.5516129 20.0229,21.8251613 C20.0229,21.0987097 19.7912,20.4812903 19.3278,19.9729032 C18.8441,19.5277419 18.0846,18.9741935 17.05,18.3116129 C16.1589,18.1754839 15.0347,18.3025806 13.676,18.6922581 C13.6557,18.7109677 13.5087,18.7651613 13.2343,18.856129 C12.9592,18.9470968 12.6547,19.1148387 12.3215,19.36 C11.6922,19.896129 11.3744,20.5812903 11.3639,21.4167742 C11.3541,22.2425806 11.786,22.9554839 12.6596,23.5548387 C13.5332,24.1451613 14.6245,24.44 15.9342,24.44 C17.2432,24.44 18.2526,24.1858065 18.9603,23.6767742 L18.9603,23.6767742 Z M15.2076,6.84387097 C14.4411,6.88064516 13.8181,7.16645161 13.3372,7.70193548 C12.4041,8.96387097 12.4874,10.5670968 13.5864,12.5096774 C13.8846,13.0090323 14.236,13.3993548 14.6413,13.6806452 C15.0746,14.0258065 15.6094,14.1890323 16.2457,14.1709677 C16.8813,14.1529032 17.4448,13.9122581 17.9369,13.4490323 C18.177,13.1135484 18.3163,12.8045161 18.3555,12.5232258 C18.394,12.2419355 18.4227,11.9283871 18.4423,11.5832258 C18.4423,10.5754839 18.177,9.55419355 17.6471,8.51935484 C17.3538,8.00193548 17.0185,7.60193548 16.6405,7.32064516 C16.2051,7.03935484 15.7277,6.88064516 15.2076,6.84387097 L15.2076,6.84387097 Z" sketch:type="MSShapeGroup"></path>
        </g>
    </g>
</svg>