<?xml version="1.0" encoding="UTF-8" standalone="no"?>
<svg width="28px" height="28px" viewBox="0 0 28 28" version="1.1" xmlns="http://www.w3.org/2000/svg" xmlns:xlink="http://www.w3.org/1999/xlink" xmlns:sketch="http://www.bohemiancoding.com/sketch/ns">
    <!-- Generator: Sketch 3.3.3 (12072) - http://www.bohemiancoding.com/sketch -->
    <title>js</title>
    <desc>Created with Sketch.</desc>
    <defs></defs>
    <g id="Page-1" stroke="none" stroke-width="1" fill="none" fill-rule="evenodd" sketch:type="MSPage">
        <g id="js" sketch:type="MSArtboardGroup" fill="#DEBC11">
            <path d="M2.43334085,23.7582314 C2.25569592,23.7699165 2.08910444,23.6982479 1.93356643,23.5440048 C1.77802842,23.3905406 1.70618092,23.2144853 1.71723438,23.0158387 L0,9.66601395 L3.38393864,9.66601395 L3.38393864,15.9144206 L4.58402887,14.6796962 L5.73358899,15.7999067 L5.73358899,9.66601395 L28,9.66601395 L26.2835552,23.0158387 C26.2835552,23.2144853 26.2109181,23.3843086 26.0672231,23.5276456 C25.921949,23.6709827 25.7553575,23.7481043 25.5666591,23.7582314 L2.43334085,23.7582314 L2.43334085,23.7582314 Z M26.2835552,8.02153241 L1.71723438,8.02153241 L1.71723438,7.7582284 C1.71723438,7.5611399 1.78908189,7.38586356 1.93356643,7.23239939 C2.07805098,7.07893522 2.24464245,7.00726667 2.43334085,7.01817275 L3.54974058,7.01817275 L4.41664787,5.29111659 C4.61718926,4.86344232 4.9669524,4.65544774 5.46672682,4.66713283 L10.1502369,4.66713283 C10.6500113,4.66713283 11.000564,4.89148654 11.2003158,5.34097297 L12.0506429,7.01817275 L25.5666591,7.01817275 C25.7443041,7.01817275 25.9108956,7.0898413 26.0672231,7.23239939 C26.2219716,7.37495748 26.2946086,7.55023381 26.2835552,7.7582284 L26.2835552,8.02153241 L26.2835552,8.02153241 Z M5.73358899,9.71509132 L3.73370178,9.66601395 L5.73358899,9.64965482 L5.73358899,9.71509132 L5.73358899,9.71509132 Z M10.8671329,18.1018693 C10.8671329,19.4721407 10.3389353,20.1568869 9.28332957,20.1568869 C8.78355515,20.1568869 8.36668171,20.0969035 8.03349876,19.9761576 L7.7500564,21.8816061 C8.25062035,22.0584404 8.83329574,22.1472471 9.50045116,22.1472471 C10.7337018,22.1472471 11.6669298,21.8340867 12.3001353,21.208545 C12.9333409,20.5822242 13.2499436,19.5500413 13.2499436,18.1119964 L13.2499436,11.4912249 L10.8671329,11.4912249 L10.8671329,18.1018693 L10.8671329,18.1018693 Z M17.9168734,22.1145289 C19.2393413,22.1145289 20.2665238,21.8114956 21,21.2054289 C21.7334762,20.5993623 22.1006091,19.8219144 22.1006091,18.8746432 C22.1006091,17.4599684 21.1776449,16.4246695 19.3332957,15.7664095 C18.5777126,15.4750612 18.0605685,15.2366854 17.7834424,15.05284 C17.5055267,14.8689946 17.3665689,14.6251658 17.3665689,14.3221325 C17.3886758,13.6514083 17.9776675,13.3164358 19.1335439,13.3164358 C19.7556959,13.3164358 20.4220618,13.4839221 21.1334311,13.8196736 L21.6497857,11.8768328 C20.8389353,11.506805 19.8780735,11.3221806 18.7672005,11.3221806 C17.655538,11.3221806 16.7444169,11.6182028 16.0338371,12.2110264 C15.3224679,12.8030709 14.9608617,13.5657177 14.9498083,14.4981878 C14.9498083,15.8692382 15.9296188,16.890515 17.8876607,17.5589021 C18.5366569,17.8113001 18.9953756,18.0411068 19.2638168,18.2498804 C19.5322581,18.457875 19.6672682,18.721179 19.6672682,19.0390134 C19.6672682,19.8063343 19.1580194,20.1903842 18.1403113,20.1903842 C17.1226032,20.1903842 16.1783217,19.9652515 15.3058877,19.5157651 L14.8195353,21.4835341 C15.5506429,21.9034183 16.5833521,22.1145289 17.9168734,22.1145289 L17.9168734,22.1145289 Z" sketch:type="MSShapeGroup"></path>
        </g>
    </g>
</svg>