<?xml version="1.0" encoding="UTF-8" standalone="no"?>
<svg width="271px" height="271px" viewBox="0 0 271 271" version="1.1" xmlns="http://www.w3.org/2000/svg" xmlns:xlink="http://www.w3.org/1999/xlink" xmlns:sketch="http://www.bohemiancoding.com/sketch/ns">
    <!-- Generator: Sketch 3.3.3 (12072) - http://www.bohemiancoding.com/sketch -->
    <title>logo</title>
    <desc>Created with Sketch.</desc>
    <defs></defs>
    <g id="Page-1" stroke="none" stroke-width="1" fill="none" fill-rule="evenodd" sketch:type="MSPage">
        <g id="logo" sketch:type="MSArtboardGroup" transform="translate(-24.000000, -24.000000)" fill="#FFFFFF">
            <path d="M159.5,24 C84.7,24 24,84.7 24,159.5 C24,234.3 84.7,295 159.5,295 C234.3,295 295,234.3 295,159.5 C295,84.7 234.4,24 159.5,24 Z M183.8,194.5 L112.7,194.5 C105.7,194.5 100,200.2 100,207.2 C100,214.2 105.7,219.9 112.7,219.9 C119.7,219.9 125.4,214.4 125.4,207.4 L125.4,206.4 L144.5,206.4 L144.5,207.2 C144.5,224.8 130.3,239.1 112.6,239.1 C94.9,239.1 80.8,224.9 80.8,207.3 C80.8,189.7 95.1,175.4 112.7,175.4 L183.8,175.4 C205.4,175.4 223,157.9 223,136.2 C223,114.6 205.4,97.1 183.8,97.1 C162.2,97.1 144.6,115 144.6,136.6 L144.6,164.5 L125.3,164.5 L125.3,136.6 C125.3,104.3 151.5,77.9 183.7,77.9 C216,77.9 242.1,104 242.1,136.3 C242.1,168.6 216.1,194.5 183.8,194.5 Z" sketch:type="MSShapeGroup"></path>
        </g>
    </g>
</svg>