<?xml version="1.0" encoding="UTF-8" standalone="no"?>
<svg width="56px" height="28px" viewBox="0 0 56 28" version="1.1" xmlns="http://www.w3.org/2000/svg" xmlns:xlink="http://www.w3.org/1999/xlink" xmlns:sketch="http://www.bohemiancoding.com/sketch/ns">
    <!-- Generator: Sketch 3.3.3 (12072) - http://www.bohemiancoding.com/sketch -->
    <title>net</title>
    <desc>Created with Sketch.</desc>
    <defs></defs>
    <g id="Page-1" stroke="none" stroke-width="1" fill="none" fill-rule="evenodd" sketch:type="MSPage">
        <g id="net" sketch:type="MSArtboardGroup" fill="#922ADD">
            <g id="Imported-Layers-5-+-Imported-Layers-3-+-Imported-Layers-4" sketch:type="MSLayerGroup" transform="translate(0.000000, 9.397260)">
                <path d="M49.0128824,5.05321432 L45.260274,5.05321432 L45.260274,1.87217676 L49.0128824,1.18483429 L49.0128824,5.05321432 L49.0128824,5.05321432 Z M45.260274,5.49943261 L49.0128824,5.49943261 L49.0128824,9.34633319 L45.260274,8.67319487 L45.260274,5.49943261 L45.260274,5.49943261 Z M55.4933812,5.05321432 L49.5050581,5.05321432 L49.5050581,1.14083606 L55.4933812,0 L55.4933812,5.05321432 L55.4933812,5.05321432 Z M49.5050581,5.49943261 L55.4933812,5.49943261 L55.4933812,10.4871692 L49.5050581,9.41215731 L49.5050581,5.49943261 L49.5050581,5.49943261 Z" id="Imported-Layers-5" sketch:type="MSShapeGroup"></path>
                <path d="M35.8202621,10.3530959 L31.2616424,10.3530959 C30.7245731,10.3530959 30.3324695,10.1330942 30.0849996,9.69341636 C29.5761274,8.84172354 28.8151411,7.5500274 27.8020407,5.81865338 C27.5545709,5.37897551 27.5545709,4.94873557 27.8020407,4.52728269 L30.1271292,0.590684932 C30.2017682,0.439677875 30.34408,0.297783313 30.5540644,0.164675799 C30.572973,0.146450809 30.7083184,0.0914503944 30.9604324,0 L36.1072077,0 C36.490023,0.109675384 36.7889108,0.347902034 37.0035394,0.714354504 C37.2181681,1.08080697 37.5124117,1.58004151 37.8859385,2.21205812 C38.2594654,2.84407472 38.4999689,3.25153342 38.6071174,3.43475965 C38.7145976,3.61798589 38.8569093,3.85165629 39.0343843,4.13544541 C39.2118593,4.41955998 39.3448826,4.68968037 39.4334543,4.94645745 L39.4334543,5.39947862 C39.3402384,5.62403653 39.1067012,6.05688003 38.7331744,6.69800913 C38.3596475,7.33946368 37.7668478,8.34704525 36.9544435,9.72075384 C36.7165939,10.1422067 36.3384228,10.3530959 35.8202621,10.3530959 L35.8202621,10.3530959 Z M35.3021014,8.12704359 L36.2053995,8.12704359 C36.2707501,8.12704359 36.3102258,8.12020922 36.3241585,8.10654047 C36.3337786,8.09254628 36.3171922,8.05381818 36.2753943,7.98970527 L34.811806,5.33113491 C34.7650322,5.21657783 34.7650322,5.11341137 34.811806,5.02163553 C35.8295505,3.21280531 36.3337786,2.28528352 36.3241585,2.2393956 C36.31487,2.22572686 36.2800385,2.21889249 36.2193321,2.21889249 L35.3021014,2.21889249 C35.1946213,2.21889249 35.1223043,2.26250228 35.084819,2.34939643 C34.8748345,2.74318638 34.5504036,3.33419676 34.1115261,4.12177667 L33.5933654,5.06296721 C33.5465916,5.13619261 33.509438,5.1501868 33.481241,5.10429888 C33.4533758,5.06296721 33.4019578,4.96923869 33.3273188,4.82278788 C33.2526797,4.67601162 32.7975476,3.84710004 31.9615905,2.33572769 C31.9244369,2.26250228 31.8614084,2.22344873 31.7728367,2.21889249 L30.8834713,2.21889249 C30.8085006,2.21889249 30.7643806,2.22572686 30.750448,2.2393956 C30.7361836,2.25338979 31.2357675,3.18514238 32.2488678,5.03562972 C32.30493,5.12740556 32.30493,5.22113408 32.2488678,5.31714072 C31.2311233,7.15851557 30.7292173,8.08571191 30.7431499,8.09938066 C30.7527701,8.11793109 30.7899237,8.12704359 30.8552743,8.12704359 L31.7307071,8.12704359 C31.847144,8.12704359 31.9337253,8.08148111 31.9897875,7.98970527 L33.4533758,5.28980324 C33.4626642,5.28069074 33.4719526,5.267022 33.481241,5.24847156 C33.5140822,5.17524616 33.5628464,5.20258364 33.628197,5.33113491 C33.95495,5.93093234 34.4406013,6.8216787 35.084819,8.00337401 C35.1315927,8.08571191 35.2039097,8.12704359 35.3021014,8.12704359 L35.3021014,8.12704359 Z" id="Imported-Layers-3" sketch:type="MSShapeGroup"></path>
                <path d="M0.705119714,7.83991631 C0.879223347,7.83991631 1.04655628,7.91258846 1.20808577,8.05887655 C1.368648,8.20516463 1.44989637,8.3712724 1.44989637,8.55719983 C1.44989637,8.75634039 1.38315664,8.92244815 1.24870995,9.05457933 C1.11426325,9.18859809 0.940159619,9.25371988 0.724464562,9.25371988 C0.28146754,9.25371988 0.0406241811,9.02249033 0,8.55719983 C0,8.3712724 0.0677069684,8.20516463 0.20118642,8.05887655 C0.335633115,7.91258846 0.502966051,7.83991631 0.705119714,7.83991631 L0.705119714,7.83991631 Z M6.46117927,2.52069274 C8.17029661,2.52069274 9.00405956,3.40597161 8.96343538,5.17841694 L8.96343538,9.13480183 L7.82015485,9.13480183 L7.82015485,5.42946617 C7.82015485,4.0477516 7.31235259,3.35028775 6.29868255,3.33707464 C5.74251817,3.33707464 5.28984872,3.52960863 4.93777248,3.91467663 C4.58666349,4.30068842 4.41062537,4.80467447 4.41062537,5.42946617 L4.41062537,9.13480183 L3.26734485,9.13480183 L3.26734485,2.68019394 L4.41062537,2.68019394 L4.41062537,3.72119884 L4.45124955,3.72119884 C4.95131388,2.92086144 5.62161286,2.52069274 6.46117927,2.52069274 L6.46117927,2.52069274 Z M10.5971078,5.96554122 C10.5971078,4.93114288 10.885346,4.08833474 11.4627898,3.43711681 C12.0402335,2.78684267 12.772436,2.46123371 13.65843,2.46123371 C14.5444241,2.46123371 15.214723,2.74625953 15.669327,3.31725496 C16.1674568,3.86182416 16.4160381,4.62157841 16.4160381,5.59463014 L16.4160381,6.12598622 L11.6504348,6.12598622 C11.7587659,7.69362823 12.4832305,8.46376422 13.825763,8.43733798 C14.6053603,8.43733798 15.3037094,8.18345737 15.9198428,7.67569614 L15.9198428,8.66196098 C15.3259559,9.08383694 14.5579655,9.29430303 13.6178058,9.29430303 C12.6786135,9.29430303 11.9328696,8.99795168 11.3825086,8.40619278 C10.8582633,7.81443387 10.5971078,7.00088335 10.5971078,5.96554122 L10.5971078,5.96554122 Z M15.2727576,5.30960432 C15.2727576,4.7046323 15.1238023,4.22612868 14.8249244,3.87598107 C14.5260465,3.52677725 14.1265753,3.35123155 13.6236093,3.35123155 C13.1216105,3.35123155 12.6950566,3.52677725 12.3420131,3.87598107 C11.9889696,4.22612868 11.7723073,4.7046323 11.691059,5.30960432 L15.2727576,5.30960432 L15.2727576,5.30960432 Z M19.4986397,7.21229323 C19.4986397,8.02961893 19.8139607,8.43733798 20.4436355,8.43733798 C20.6796426,8.43733798 20.9021084,8.36655342 21.1129672,8.22404051 L21.1129672,9.0592983 C20.8943705,9.18954188 20.5606718,9.25371988 20.1118714,9.25371988 C18.9405408,9.25371988 18.3553591,8.62987198 18.3553591,7.38123238 L18.3553591,3.49657584 L17.2942942,3.49657584 L17.2942942,2.68019394 L18.3553591,2.68019394 L18.3553591,1.10594537 L19.4986397,0.767123288 L19.4986397,2.68019394 L21.1129672,2.68019394 L21.1129672,3.49657584 L19.4986397,3.49657584 L19.4986397,7.21229323 L19.4986397,7.21229323 Z" id="Imported-Layers-4" sketch:type="MSShapeGroup"></path>
            </g>
        </g>
    </g>
</svg>