<?xml version="1.0" encoding="UTF-8" standalone="no"?>
<svg width="28px" height="28px" viewBox="0 0 28 28" version="1.1" xmlns="http://www.w3.org/2000/svg" xmlns:xlink="http://www.w3.org/1999/xlink" xmlns:sketch="http://www.bohemiancoding.com/sketch/ns">
    <!-- Generator: Sketch 3.3.3 (12072) - http://www.bohemiancoding.com/sketch -->
    <title>osx</title>
    <desc>Created with Sketch.</desc>
    <defs></defs>
    <g id="Page-1" stroke="none" stroke-width="1" fill="none" fill-rule="evenodd" sketch:type="MSPage">
        <g id="osx" sketch:type="MSArtboardGroup" fill="#9CA8BA">
            <path d="M18.5342427,25.97284 C18.0286683,25.97284 17.3630089,25.8152871 16.5348144,25.5001812 C15.696002,25.1850753 15.0344264,25.0275224 14.5517213,25.0275224 C14.0690162,25.0275224 13.3625189,25.2074686 12.4305958,25.5673611 C11.5003063,25.9280534 10.6786458,26.063213 9.96561441,25.97284 C9.25339976,25.882467 8.45379181,25.3146366 7.56924082,24.2677493 C5.45383265,21.7580988 4.26381345,18.8541662 4,15.5559512 L4,14.4930687 C4.04655532,13.2206487 4.3626414,12.0729915 4.94825826,11.0492972 C5.52244048,10.0248032 6.32776575,9.20264878 7.3617838,8.58363366 C8.39661861,7.96541831 9.50006126,7.745484 10.6729285,7.92543025 C11.1670682,8.0046066 11.8335443,8.19015119 12.6723568,8.48286376 C13.511986,8.77557634 13.9889737,8.92113286 14.1033201,8.92113286 C14.2184833,8.92113286 14.4708621,8.85395293 14.8620901,8.7187933 C15.2533181,8.58363366 15.5751215,8.47166711 15.8283171,8.3812941 C16.0806959,8.30291751 16.2415976,8.25253255 16.3102054,8.22933948 C17.0346715,7.94862332 17.7305509,7.8070656 18.397027,7.8070656 C20.6496508,7.84065557 22.2937885,8.64041671 23.3278066,10.2047495 C21.3969862,11.3979931 20.523053,13.0407025 20.706824,15.1344771 C20.890595,17.227452 21.9891371,18.7190065 24,19.6083409 L24,19.6755208 C23.5401642,21.0151207 22.9765998,22.1235897 22.3101237,23.0017274 C21.6436476,23.8790654 21.2246498,24.4420972 21.0514967,24.6900232 C20.8791604,24.914756 20.540205,25.1850753 20.0346306,25.5001812 C19.5290562,25.8152871 19.0291992,25.97284 18.5342427,25.97284 L18.5342427,25.97284 Z M18.6902438,2 L18.8797321,2 C18.9948953,3.42917315 18.5407767,4.74078141 17.5173766,5.93322526 C16.4939764,7.12646888 15.3104913,7.66150908 13.9652877,7.53674634 C13.8509413,6.17555289 14.2993425,4.93192432 15.3104913,3.80586064 C16.172173,2.78216639 17.2984849,2.17994626 18.6902438,2 L18.6902438,2 Z" sketch:type="MSShapeGroup"></path>
        </g>
    </g>
</svg>