<?xml version="1.0" encoding="UTF-8" standalone="no"?>
<svg width="32px" height="32px" viewBox="0 0 32 32" version="1.1" xmlns="http://www.w3.org/2000/svg" xmlns:xlink="http://www.w3.org/1999/xlink" xmlns:sketch="http://www.bohemiancoding.com/sketch/ns">
    <!-- Generator: Sketch 3.3.3 (12072) - http://www.bohemiancoding.com/sketch -->
    <title>overflow</title>
    <desc>Created with Sketch.</desc>
    <defs></defs>
    <g id="Page-1" stroke="none" stroke-width="1" fill="none" fill-rule="evenodd" sketch:type="MSPage">
        <g id="overflow" sketch:type="MSArtboardGroup" fill="#FFFFFF">
            <path d="M18.88293,23.3244372 L9.83007039,23.3280624 L9.82908051,21.6421765 L18.8817422,21.6383787 L18.88293,23.3244372 Z M23.0946766,14.0651844 L21.5463044,6.28828891 L23.4512319,6 L25,13.7768955 L23.0946766,14.0651844 Z M18.9231192,21.1551927 L9.90906291,20.4315357 L10.0864496,18.7525549 L19.1005059,19.4767297 L18.9231192,21.1551927 Z M19.1935548,18.9048129 L10.4511219,16.8557174 L10.9533876,15.2276619 L19.6952266,17.2767574 L19.1935548,18.9048129 Z M19.8542015,16.8004765 L12.0565112,12.7901533 L13.0392653,11.3383511 L20.8363616,15.348329 L19.8542015,16.8004765 Z M21.1511439,15.1170073 L16.0504839,8.59563596 L17.6479542,7.64583621 L22.7484162,14.1675528 L21.1511439,15.1170073 Z M20.4200176,17.7787598 L20.4200176,24.6707637 L8.54639243,24.6707637 L8.54639243,17.7787598 L7,17.7787598 L7,25.9934401 L7.01544215,25.9934401 C7.01544215,26 7.46682798,26 7.46682798,26 L21.9511659,26 L21.9511659,25.9934401 C21.96641,25.9934401 21.96641,25.5996755 21.96641,25.5996755 L21.96641,17.7787598 L20.4200176,17.7787598 Z" id="stackoverflow" sketch:type="MSShapeGroup"></path>
        </g>
    </g>
</svg>