<?xml version="1.0" encoding="UTF-8" standalone="no"?>
<svg width="48px" height="48px" viewBox="0 0 48 48" version="1.1" xmlns="http://www.w3.org/2000/svg" xmlns:xlink="http://www.w3.org/1999/xlink" xmlns:sketch="http://www.bohemiancoding.com/sketch/ns">
    <!-- Generator: Sketch 3.3.3 (12072) - http://www.bohemiancoding.com/sketch -->
    <title>repos</title>
    <desc>Created with Sketch.</desc>
    <defs></defs>
    <g id="Page-1" stroke="none" stroke-width="1" fill="none" fill-rule="evenodd" sketch:type="MSPage">
        <g id="repos" sketch:type="MSArtboardGroup" fill="#FFFFFF">
            <path d="M18,28.75 L15.25,28.75 L15.25,26 L18,26 L18,28.75 L18,28.75 Z M18,20.5 L15.25,20.5 L15.25,23.25 L18,23.25 L18,20.5 L18,20.5 Z M18,15 L15.25,15 L15.25,17.75 L18,17.75 L18,15 L18,15 Z M18,9.5 L15.25,9.5 L15.25,12.25 L18,12.25 L18,9.5 L18,9.5 Z M40,6.75 L40,39.75 C40,41.2539062 38.7539062,42.5 37.25,42.5 L23.5,42.5 L23.5,48 L19.375,43.875 L15.25,48 L15.25,42.5 L9.75,42.5 C8.24609375,42.5 7,41.2539062 7,39.75 L7,6.75 C7,5.24609375 8.24609375,4 9.75,4 L37.25,4 C38.7539062,4 40,5.24609375 40,6.75 L40,6.75 Z M37.25,34.25 L9.75,34.25 L9.75,39.75 L15.25,39.75 L15.25,37 L23.5,37 L23.5,39.75 L37.25,39.75 L37.25,34.25 L37.25,34.25 Z M37.25,6.75 L12.5,6.75 L12.5,31.5 L37.25,31.5 L37.25,6.75 L37.25,6.75 Z" id="Shape" sketch:type="MSShapeGroup"></path>
        </g>
    </g>
</svg>