<?xml version="1.0" encoding="UTF-8" standalone="no"?>
<svg width="32px" height="32px" viewBox="0 0 32 32" version="1.1" xmlns="http://www.w3.org/2000/svg" xmlns:xlink="http://www.w3.org/1999/xlink" xmlns:sketch="http://www.bohemiancoding.com/sketch/ns">
    <!-- Generator: Sketch 3.3.3 (12072) - http://www.bohemiancoding.com/sketch -->
    <title>twitter</title>
    <desc>Created with Sketch.</desc>
    <defs></defs>
    <g id="Page-1" stroke="none" stroke-width="1" fill="none" fill-rule="evenodd" sketch:type="MSPage">
        <g id="twitter" sketch:type="MSArtboardGroup" fill="#FFFFFF">
            <path d="M28.0913599,6.80410682 C28.0505221,7.00319044 27.8609183,7.34064425 27.521819,7.8171742 C27.183449,8.29441012 26.7415262,8.69681319 26.1975089,9.02438341 C27.3161718,9.02438341 28.2510647,8.82106396 29,8.4137191 C27.9119655,9.73458953 27.1272971,10.4949195 26.6445365,10.6940032 C26.521294,10.7335375 26.4490987,10.9417987 26.429409,11.3194929 C26.3572137,12.7003708 26.2288665,13.8482785 26.0436381,14.761804 C25.633802,16.7992343 24.6427571,18.7808929 23.0726912,20.7081919 C22.816726,21.085886 22.3492795,21.5673577 21.6718103,22.1533131 C20.9950703,22.7300908 20.3227058,23.2270939 19.6561753,23.6436164 C18.9889155,24.0615508 18.1262178,24.483721 17.0695409,24.910833 C16.0128639,25.3280615 14.9146199,25.6160974 13.7748089,25.7749407 C12.8508547,25.8547153 11.9123155,25.9239004 10.9584622,25.9839079 C10.0031503,26.053093 8.89032145,25.8991915 7.61778776,25.5222033 C6.34525407,25.1445092 5.13908173,24.5479643 4,23.7332746 C4.28659355,23.7932821 4.75914474,23.7932821 5.41619509,23.7332746 C7.61195379,23.5447805 9.62394259,22.8091595 11.450703,21.5278234 C11.1830698,21.5278234 10.7732338,21.4438129 10.2190071,21.27438 C9.65457091,21.1056531 9.17253953,20.9065695 8.77218365,20.6785411 C8.37182778,20.4498067 7.97147191,20.111647 7.57111604,19.6647678 C7.17076017,19.2178886 6.88854209,18.7110019 6.72446182,18.1448137 C7.90438131,18.1448137 8.60737413,18.1250465 8.83416954,18.0855122 C8.73061665,18.0459779 8.5876845,17.9909122 8.4024561,17.9210211 C8.21795695,17.851836 7.88979639,17.6682837 7.4172452,17.3703643 C6.95563269,17.0717388 6.5501721,16.7491104 6.20086343,16.4010671 C5.852284,16.0537297 5.52922817,15.571552 5.23096669,14.9559459 C4.93343446,14.3396338 4.80071174,13.6837874 4.83061082,12.9884066 L5.21565253,13.1380723 C5.95510764,13.4261082 6.53996266,13.550359 6.97094685,13.5101187 C6.63184762,13.2616171 6.28764366,12.8994544 5.93979348,12.4222185 C5.5904848,11.9456885 5.32868561,11.4684526 5.15439589,10.9912167 C4.98010618,10.5146867 4.90791086,9.90896419 4.93853918,9.17334314 C4.96916749,8.43842806 5.17481477,7.68303984 5.55475176,6.90859042 C5.94416895,7.43524427 6.49912491,8.00143245 7.21743189,8.60715496 C7.93500963,9.21287748 8.67446473,9.74517908 9.43433872,10.2019419 C10.1825448,10.6587047 11.1633802,11.0759331 12.373928,11.4536272 C13.5844758,11.8313213 14.8314859,12.0247572 16.1149583,12.0346408 C16.0529724,11.6873034 16.0639111,11.1952421 16.1455866,10.5591628 C16.2382008,9.92378957 16.3767575,9.36748497 16.5612566,8.89024905 C16.7457558,8.4137191 17.084855,7.93154139 17.5770959,7.44512785 C18.3471793,6.66997246 19.3119713,6.20826789 20.4714719,6.05860218 C22.3806371,5.82069019 23.8887171,6.30710373 24.9971705,7.51925473 C26.7211073,7.25098602 27.7836182,6.85352474 28.1839741,6.3268709 C28.1635552,6.44617988 28.1329269,6.60572917 28.0913599,6.80410682 Z" sketch:type="MSShapeGroup"></path>
        </g>
    </g>
</svg>